<svg xmlns="http://www.w3.org/2000/svg" id="Layer_1" data-name="Layer 1" width="96.6936" height="163.0295" viewBox="0 0 96.6936 163.0295"><defs><style>.cls-1{fill:#fff;}</style></defs><path class="cls-1" d="M28.2286,47.0061H48.21c4.8632,0,11.2668,0,14.5841,2.006a13.0725,13.0725,0,0,1,6.4787,11.4972,12.7178,12.7178,0,0,1-8.1761,12.3415v.1555c6.7925,1.3874,10.4929,6.4811,10.4929,13.2711,0,8.098-5.7878,15.8152-16.742,15.8152H28.2286Zm7.3255,23.686H50.2207c8.3291,0,11.7275-3.0088,11.7275-8.7966,0-7.6388-5.3986-8.7168-11.7275-8.7168H35.5541Zm0,25.2276H53.9223c6.3249,0,10.3391-3.8569,10.3391-9.8737,0-7.1763-5.7872-9.1822-11.9624-9.1822H35.5541Z" transform="translate(-0.001 -0.0001)"></path><path class="cls-1" d="M90.33,74.5723A41.9022,41.9022,0,1,1,48.4218,32.6758h.0015A41.9017,41.9017,0,0,1,90.33,74.5723ZM48.4233,26.2847a48.2675,48.2675,0,1,0,.0077,0Z" transform="translate(-0.001 -0.0001)"></path><rect class="cls-1" x="0.2607" y="132.9938" width="96.333" height="6.3322"></rect><path class="cls-1" d="M93.581,126.0228c.119,0,.231-.0061.337-.0122a.804.804,0,0,0,.277-.0634.4767.4767,0,0,0,.1981-.1667.5611.5611,0,0,0,.0694-.3136.4508.4508,0,0,0-.0642-.2657.39.39,0,0,0-.17-.1529.69.69,0,0,0-.2362-.0807c-.0894-.0052-.1745-.0148-.2657-.0148h-.6913v1.07Zm.231-1.4938a1.392,1.392,0,0,1,.8867.2354.8926.8926,0,0,1,.2936.7251.847.847,0,0,1-.2545.6688,1.2129,1.2129,0,0,1-.6383.2509l.9631,1.4782H94.506l-.92-1.4469h-.5514v1.4469h-.5289V124.529Zm-2.3683,2.6445a2.1918,2.1918,0,0,0,.4959.7868,2.2809,2.2809,0,0,0,.7547.52,2.332,2.332,0,0,0,.9345.1807,2.3,2.3,0,0,0,.9345-.1807,2.4632,2.4632,0,0,0,.7547-.52,2.4241,2.4241,0,0,0,.4933-.7868,2.4962,2.4962,0,0,0,.1858-.9692,2.4644,2.4644,0,0,0-.1858-.9658,2.4156,2.4156,0,0,0-.4933-.7772,2.5034,2.5034,0,0,0-.7547-.5133,2.3626,2.3626,0,0,0-.9345-.1885,2.3957,2.3957,0,0,0-.9345.1885,2.3147,2.3147,0,0,0-.7547.5133,2.1825,2.1825,0,0,0-.4959.7772,2.4774,2.4774,0,0,0-.1824.9658,2.51,2.51,0,0,0,.1824.9692m-.4768-2.11a3.0282,3.0282,0,0,1,.6244-.9041,2.9392,2.9392,0,0,1,.925-.6018,2.8281,2.8281,0,0,1,1.1125-.2154,2.87,2.87,0,0,1,2.6566,1.7213,2.7164,2.7164,0,0,1,.2319,1.1412,2.6812,2.6812,0,0,1-.2319,1.1394,2.8,2.8,0,0,1-.6244.9162,2.7566,2.7566,0,0,1-.9041.608,2.9909,2.9909,0,0,1-1.1281.2128,2.9384,2.9384,0,0,1-1.1125-.2128,2.8112,2.8112,0,0,1-.925-.608,2.9143,2.9143,0,0,1-.6244-.9162,2.6686,2.6686,0,0,1-.2249-1.1394,2.7021,2.7021,0,0,1,.2249-1.1412" transform="translate(-0.001 -0.0001)"></path><path class="cls-1" d="M11.9361,5.0625a3.8741,3.8741,0,0,0-.8548-.9634A3.9483,3.9483,0,0,0,9.9229,3.452a3.999,3.999,0,0,0-1.3544-.2314,4.47,4.47,0,0,0-2.1962.5A4.1542,4.1542,0,0,0,4.9088,5.0624a5.883,5.883,0,0,0-.8177,1.9152,9.5232,9.5232,0,0,0-.2556,2.221,8.837,8.837,0,0,0,.2556,2.1337A5.7772,5.7772,0,0,0,4.9088,13.2a4.1975,4.1975,0,0,0,1.4635,1.3295,4.4773,4.4773,0,0,0,2.1962.5,3.541,3.541,0,0,0,2.7442-1.0727,4.9646,4.9646,0,0,0,1.2079-2.83h3.7088a8.8577,8.8577,0,0,1-.7557,2.9509,7.0762,7.0762,0,0,1-1.6106,2.2446A6.8308,6.8308,0,0,1,11.52,17.7374a8.5894,8.5894,0,0,1-2.9519.4883A8.9215,8.9215,0,0,1,4.97,17.53a7.694,7.694,0,0,1-2.6957-1.9152A8.4781,8.4781,0,0,1,.59,12.7482a10.5051,10.5051,0,0,1-.5857-3.55A10.8777,10.8777,0,0,1,.59,5.5739,8.7016,8.7016,0,0,1,2.2739,2.6592,7.6932,7.6932,0,0,1,4.97.7074,9.3451,9.3451,0,0,1,11.2885.4146a7.3627,7.3627,0,0,1,2.2936,1.2085A6.5218,6.5218,0,0,1,15.253,3.5866a7.017,7.017,0,0,1,.83,2.6834H12.3742A3.1417,3.1417,0,0,0,11.9361,5.0625Z" transform="translate(-0.001 -0.0001)"></path><path class="cls-1" d="M21.224,14.81a3.5528,3.5528,0,0,0,4.05.231,2.18,2.18,0,0,0,.9275-1.11h3.05a5.7931,5.7931,0,0,1-2.2454,3.2454,6.61,6.61,0,0,1-3.66.9758,7.2,7.2,0,0,1-2.6833-.4753,5.5788,5.5788,0,0,1-2.0251-1.3549,6.0925,6.0925,0,0,1-1.281-2.0975,7.6733,7.6733,0,0,1-.4511-2.6841,7.3626,7.3626,0,0,1,.4634-2.6348,6.09,6.09,0,0,1,3.3552-3.5127A6.5149,6.5149,0,0,1,23.3467,4.88a6.0047,6.0047,0,0,1,2.8061.6217,5.6,5.6,0,0,1,1.9636,1.6713,6.87,6.87,0,0,1,1.11,2.3911A8.9377,8.9377,0,0,1,29.47,12.37h-9.1A3.4966,3.4966,0,0,0,21.224,14.81ZM25.14,8.1733A2.4387,2.4387,0,0,0,23.2484,7.49a3.0189,3.0189,0,0,0-1.3779.28,2.6273,2.6273,0,0,0-.8785.6949,2.5582,2.5582,0,0,0-.4641.88,3.9158,3.9158,0,0,0-.1576.8289h5.6358A4.002,4.002,0,0,0,25.14,8.1733Z" transform="translate(-0.001 -0.0001)"></path><path class="cls-1" d="M34.3251,5.2214V7.564h.0491a4.2541,4.2541,0,0,1,.6583-1.0864,4.3431,4.3431,0,0,1,.9516-.8542,4.6867,4.6867,0,0,1,1.1477-.5491A4.143,4.143,0,0,1,38.4,4.88a2.7259,2.7259,0,0,1,.7568.1216v3.22c-.164-.0324-.3582-.06-.5868-.085A6.2384,6.2384,0,0,0,37.9118,8.1a3.6912,3.6912,0,0,0-1.61.3175,2.7759,2.7759,0,0,0-1.0615.8655,3.4686,3.4686,0,0,0-.5733,1.2812,6.9638,6.9638,0,0,0-.1707,1.5853v5.6853H31.0314V5.2214Z" transform="translate(-0.001 -0.0001)"></path><path class="cls-1" d="M48.4282,5.2214V7.5386H45.89v6.2457a1.693,1.693,0,0,0,.294,1.1718,1.6941,1.6941,0,0,0,1.1695.2929c.1955,0,.3831-.0082.5615-.0248a4.7554,4.7554,0,0,0,.5136-.0732v2.6839a8.1881,8.1881,0,0,1-.9771.0969q-.5358.0248-1.0491.0253a10.0547,10.0547,0,0,1-1.5249-.11,3.5727,3.5727,0,0,1-1.2681-.4264,2.2645,2.2645,0,0,1-.8667-.9032,3.2153,3.2153,0,0,1-.316-1.5362V7.5386H40.3277V5.2214h2.0988V1.4393H45.89V5.2214Z" transform="translate(-0.001 -0.0001)"></path><path class="cls-1" d="M50.4458,3.27V.4145h3.4648V3.27Zm3.4648,1.9519V17.8349H50.4458V5.2214Z" transform="translate(-0.001 -0.0001)"></path><path class="cls-1" d="M55.2835,7.5386V5.2214h2.0742V4.2449A3.7759,3.7759,0,0,1,58.4069,1.489,4.25,4.25,0,0,1,61.5791.4145c.3076,0,.6181.0123.9274.0371.3071.0243.6088.0454.901.0608V3.099a10.4788,10.4788,0,0,0-1.2682-.0738,1.3275,1.3275,0,0,0-1.0119.3293,1.62,1.62,0,0,0-.3046,1.1106v.7563h2.39V7.5386h-2.39V17.8349H57.3577V7.5386Z" transform="translate(-0.001 -0.0001)"></path><path class="cls-1" d="M65.5613,3.27V.4145h3.4649V3.27Zm3.4649,1.9519V17.8349H65.5613V5.2214Z" transform="translate(-0.001 -0.0001)"></path><path class="cls-1" d="M74.49,14.81a3.554,3.554,0,0,0,4.0507.231,2.1675,2.1675,0,0,0,.9268-1.11h3.0488a5.7857,5.7857,0,0,1-2.2423,3.2454,6.6193,6.6193,0,0,1-3.6609.9758,7.1989,7.1989,0,0,1-2.6838-.4753,5.5675,5.5675,0,0,1-2.025-1.3549,6.09,6.09,0,0,1-1.2812-2.0975,7.7019,7.7019,0,0,1-.4517-2.6841,7.3789,7.3789,0,0,1,.464-2.6348A6.0958,6.0958,0,0,1,73.99,5.3926a6.5169,6.5169,0,0,1,2.623-.5125,6.0035,6.0035,0,0,1,2.8061.6217,5.6087,5.6087,0,0,1,1.9642,1.6713,6.8618,6.8618,0,0,1,1.1082,2.3911,8.9,8.9,0,0,1,.2455,2.8055h-9.1A3.503,3.503,0,0,0,74.49,14.81Zm3.9155-6.6364a2.4346,2.4346,0,0,0-1.89-.6831,3.0216,3.0216,0,0,0-1.3785.28,2.6263,2.6263,0,0,0-.8785.6949,2.5642,2.5642,0,0,0-.4641.88,4.0029,4.0029,0,0,0-.1575.8289h5.6347A3.969,3.969,0,0,0,78.4056,8.1733Z" transform="translate(-0.001 -0.0001)"></path><path class="cls-1" d="M93.2531,16.2243A3.5742,3.5742,0,0,1,91.6538,17.7a5.3043,5.3043,0,0,1-2.2317.4515,5.3747,5.3747,0,0,1-2.4879-.5491,4.9827,4.9827,0,0,1-1.77-1.4878,6.7128,6.7128,0,0,1-1.0492-2.1589,9.07,9.07,0,0,1-.3524-2.5374,8.524,8.524,0,0,1,.3524-2.452A6.3541,6.3541,0,0,1,85.1642,6.88a5.251,5.251,0,0,1,1.7444-1.4512A5.19,5.19,0,0,1,89.3494,4.88a4.9393,4.9393,0,0,1,2.1329.4753,3.7164,3.7164,0,0,1,1.5994,1.4028H93.13V.4145h3.4644v17.42H93.3013v-1.61ZM93.1055,9.99a3.67,3.67,0,0,0-.5-1.2686,2.8222,2.8222,0,0,0-.915-.89,2.68,2.68,0,0,0-1.4146-.3412,2.8157,2.8157,0,0,0-1.44.3412,2.7116,2.7116,0,0,0-.9406.9033,4.0182,4.0182,0,0,0-.5106,1.2805,6.8841,6.8841,0,0,0-.1576,1.5008,6.45,6.45,0,0,0,.1689,1.4636,4.0072,4.0072,0,0,0,.5491,1.3054,3.0325,3.0325,0,0,0,.9527.9269,2.5645,2.5645,0,0,0,1.378.3535,2.7427,2.7427,0,0,0,1.4276-.3412,2.6031,2.6031,0,0,0,.9151-.915,4.1135,4.1135,0,0,0,.4864-1.3048,7.6669,7.6669,0,0,0,.1476-1.5126A7.5059,7.5059,0,0,0,93.1055,9.99Z" transform="translate(-0.001 -0.0001)"></path><path class="cls-1" d="M8.7122,151.7587a2.6549,2.6549,0,0,0-2.6824-2.148c-2.421,0-3.3332,2.0634-3.3332,4.2113,0,2.0423.9122,4.1043,3.3332,4.1043a2.76,2.76,0,0,0,2.7822-2.7376v-.0117h2.6156a5.1834,5.1834,0,0,1-5.3424,5.0192l-.0558-.0021c-3.7954,0-6.0285-2.8351-6.0285-6.3721,0-3.6439,2.2331-6.479,6.0285-6.479a4.98,4.98,0,0,1,5.2931,4.4157Z" transform="translate(-0.001 -0.0001)"></path><path class="cls-1" d="M17.059,150.7807a4.6818,4.6818,0,0,1,0,9.3623,4.6821,4.6821,0,0,1,0-9.3623Zm0,7.5233c1.6662,0,2.1637-1.4267,2.1637-2.8339,0-1.4255-.4975-2.8516-2.1637-2.8516-1.6486,0-2.15,1.4261-2.15,2.8516C14.9093,156.8774,15.41,158.304,17.059,158.304Z" transform="translate(-0.001 -0.0001)"></path><path class="cls-1" d="M23.169,151.0047h2.3165v1.6487h.0358a3.1381,3.1381,0,0,1,2.8364-1.8883,1.8513,1.8513,0,0,1,.5332.084v2.2677a4.5516,4.5516,0,0,0-.8769-.0834c-1.789,0-2.4086,1.2887-2.4086,2.85v4.004H23.169Z" transform="translate(-0.001 -0.0001)"></path><path class="cls-1" d="M29.8432,151.02h2.3206v1.1331h.0339a2.9521,2.9521,0,0,1,2.6437-1.3727c2.7858,0,4.0368,2.25,4.0368,4.7739,0,2.3717-1.3028,4.5884-3.8988,4.5884a3.1514,3.1514,0,0,1-2.6613-1.34h-.0358V163.03H29.8432Zm6.5959,4.468c0-1.412-.5674-2.87-2.13-2.87-1.5976,0-2.1121,1.4261-2.1121,2.87,0,1.4414.5492,2.8157,2.13,2.8157,1.5993,0,2.1121-1.3743,2.1121-2.8157Z" transform="translate(-0.001 -0.0001)"></path><path class="cls-1" d="M44.2322,150.7807a4.6822,4.6822,0,1,1-4.5838,4.7786c-.0006-.03-.001-.06-.001-.0892a4.3614,4.3614,0,0,1,4.5848-4.6894Zm0,7.5233c1.6669,0,2.1661-1.4267,2.1661-2.8339,0-1.4255-.4992-2.8516-2.1661-2.8516-1.6469,0-2.1467,1.4261-2.1467,2.8516C42.0855,156.8774,42.5853,158.304,44.2322,158.304Z" transform="translate(-0.001 -0.0001)"></path><path class="cls-1" d="M50.3458,151.0047h2.3188v1.6487h.0371a3.1341,3.1341,0,0,1,2.8321-1.8883,1.8384,1.8384,0,0,1,.5333.084v2.2677a4.5151,4.5151,0,0,0-.8764-.0834c-1.7867,0-2.4057,1.2887-2.4057,2.85v4.004H50.3458Z" transform="translate(-0.001 -0.0001)"></path><path class="cls-1" d="M56.7831,153.7521c.14-2.286,2.1826-2.9714,4.176-2.9714,1.7684,0,3.9012.3941,3.9012,2.5226v4.623a4.4786,4.4786,0,0,0,.3113,1.9765H62.6941a3.8685,3.8685,0,0,1-.1738-.8605,4.056,4.056,0,0,1-2.9866,1.1007c-1.6839,0-3.0231-.841-3.0231-2.6642,0-2.0087,1.5142-2.4892,3.0231-2.6959,1.4953-.2244,2.888-.1721,2.888-1.17,0-1.0455-.7255-1.2012-1.5818-1.2012-.9287,0-1.5282.3771-1.6163,1.34Zm5.6386,1.8025a4.8641,4.8641,0,0,1-2.0294.5163c-.7559.1516-1.4431.4136-1.4431,1.3057,0,.9109.7049,1.1324,1.4966,1.1324a1.8134,1.8134,0,0,0,1.9759-2.0433Z" transform="translate(-0.001 -0.0001)"></path><path class="cls-1" d="M69.7871,151.02H71.575v1.6322H69.7871v4.3949c0,.8277.2079,1.0332,1.03,1.0332a3.93,3.93,0,0,0,.7577-.0669V159.92a9.4117,9.4117,0,0,1-1.4284.0857c-1.4907,0-2.7969-.346-2.7969-2.1144v-5.2392H65.87V151.02h1.48V148.356h2.4374Z" transform="translate(-0.001 -0.0001)"></path><path class="cls-1" d="M75.8547,149.6453h-2.44v-2.011h2.44Zm-2.44,1.375h2.44v8.8825h-2.44Z" transform="translate(-0.001 -0.0001)"></path><path class="cls-1" d="M82.0777,150.7807a4.6822,4.6822,0,1,1-4.582,4.78c-.0006-.03-.001-.0606-.001-.0909a4.3623,4.3623,0,0,1,4.583-4.6894Zm0,7.5233c1.67,0,2.1668-1.4267,2.1668-2.8339,0-1.4255-.4963-2.8516-2.1668-2.8516-1.648,0-2.1467,1.4261-2.1467,2.8516C79.9306,156.8774,80.4293,158.304,82.0777,158.304Z" transform="translate(-0.001 -0.0001)"></path><path class="cls-1" d="M88.2627,151.02h2.32v1.2376h.05a3.1677,3.1677,0,0,1,2.7159-1.4772c2.5937,0,3.2456,1.46,3.2456,3.6586v5.4635H94.1556v-5.0177c0-1.46-.4312-2.1833-1.5624-2.1833-1.3255,0-1.8917.7408-1.8917,2.5457v4.6553H88.2627Z" transform="translate(-0.001 -0.0001)"></path></svg>