<svg id="Layer_1" xmlns="http://www.w3.org/2000/svg" xmlns:xlink="http://www.w3.org/1999/xlink" viewBox="0 0 225.8 50.4" preserveAspectRatio="none"><style>.st0{clip-path:url(#SVGID_2_);fill:#304149}</style><defs><path id="SVGID_1_" d="M0 .7h225.8v49.1H0z"/></defs><clipPath id="SVGID_2_"><use xlink:href="#SVGID_1_" overflow="visible"/></clipPath><path class="st0" d="M191.7 2.1c-.3-.1-.7 0-.6 0 .1.1.5 0 .6 0m5 1.2c.1 0 0-.1-.2-.1-.1.1.2.1.2.1m17 3.7c.5.1.8 0 .8-.1s-.1 0-.2-.1h-1.1c-.1 0 .3.1.5.2m7.1 3.4h-.4c.3.1.6.1.4 0m-52.3-7.3c.2-.1.6-.1.8-.2l-.1-.1h-.7c-.5 0-.4.2 0 .3m4.3.4h-.4s.3.1.4 0m-5.5-.1c.1 0 .4-.1.4-.1h-.2c-.4-.1-.6 0-.2.1M148.6 2c.1.1.1.1.2.1h.4c.4.1.6.1.9.1.1 0 .2-.1.4-.1h1c.2 0 .4.1.6.1h.6c.3 0 .7 0 .7-.1h-2.3c-.3 0-.8 0-1-.1-.4-.1 0-.2-.4-.3-.2 0-.5 0-.8.1-.3 0-.6 0-.7.1 0 0 .3 0 .4.1m74 12c.2 0 .4.1.5.1 0-.1-.5-.2-.5-.1M146.7 2h.8-.8c-.2-.1-.7-.1-.7 0h.7m77.1 12.8h.4c.2-.1-.2-.1-.6-.2-.2 0-.3-.1-.5-.1-.3 0-1-.1-1.1-.1-.2 0-.1.1-.2.1s-.6.1-.5.1c0 0 .1 0 .4.1.2 0 .9 0 .8.1-.1.1-.5 0-.7.1.3 0 .4.1.6.2h1.5c.1 0 .1-.1.1-.1-.1-.1-.5 0-.5-.1s.3-.1.3-.1M145.5 2.4l-.3-.1c-.9 0 .2.2.3.1m77.3 12.8c.3 0 .6.1.7 0 .2-.1-.5-.1-.7 0M143.7 2.3c.1 0 .1 0 0 0-.3-.1 0 0 0 0m.6.3c-.5-.1-.3 0 0 0m.7.2c-.3 0-1.1-.1-1.3 0-.4 0-.4.1-.2.2.3.1.8.1 1.2.1h1.2c-.6-.1-1-.1-.9-.3 0 0 .2 0 0 0m-14.1-1.4h.7c-.5-.1-1-.1-1.4 0 .2.1.5 0 .7 0m-3.6.1c.4 0 1-.1 1.2-.1.3 0 .8.1 1 0-.2 0-.5-.1-.6-.1-.2 0-.2-.1-.5-.1h-1c-.4 0-.8 0-.9.1-.2 0 .2.1.8.2m-1.5-.2h-.7.7m-2.2-.1c.3.1.6.1.8.1.2-.1-.7-.2-.8-.1m-4.3.4c.1 0-.2 0-.2.1l.2.1c-.1.1-.7.2-.7.3 0 0 .2 0 .3.1.1 0 0 .1.2.1.4 0 .5-.1.6-.2 0 0-.1-.1.1-.1h.3c.2 0 .7-.1.5-.2-.1-.1-.8 0-.5-.1h.8c.4 0 1-.1 1.3 0 .1 0-.2.1-.2.1s.2.1.2.2c.1 0 .3 0 .4.1.2.1.1.1.3.2h.4l-.1-.1c0-.1.2-.1.4-.1h.4c.3 0 0 .1.3.2s.4-.1.4-.1c.1-.1.1-.1 0-.2-.4-.1-.5 0-.8 0h-.6l.3-.1s-.4-.1-.6-.2c-.2 0-.5.1-.9 0s-.6-.2-.6-.2c0-.1.4-.1.8-.1-.3 0-.5-.1-.9-.2h-1.6c-.2 0-.7.1-.9.1-.3.1-.4.4-.3.4.1-.1.6-.1.7-.1M222.7 18c-.7 0-1.3 0-1.9.1.4.1.9 0 1.4.1.2 0 .3.1.5.1h1.1c-.1 0-.2-.1-.1-.1s.3 0 .4-.1c-.3-.1-1-.1-1.4-.1M117.4 1.1h-.8c0 .1.8 0 .8 0"/><path class="st0" d="M220 18.6c.8 0 1.7.1 2.4.1h1.1c.4 0 1.2.1 1.4 0 .1 0 0-.1-.1-.2-.1 0-.3 0-.5-.1-.1 0-.3-.1-.5-.1-.4-.1-.8-.1-1.2-.1h-.8c-.2 0-.1.1-.2.1h-.6c-.5.2-.8.2-1 .3M116 1.1c-.2 0-.5 0-.4.1.2 0 .8-.1.4-.1m-.9 0h-.2c-.3-.1-.5 0-.6 0-.1 0-.1.1 0 .1.2 0 .9-.1.8-.1m7 1.5h-.2c-.5 0-.2.1-.1.1.2 0 .3-.1.3-.1m-.8.3c.3 0 .4.1.7 0-.4-.1-.9 0-1.5-.1-.2 0-.3-.1-.6-.1-.2 0-.2 0-.3.1h-.4c-.2 0-.2 0-.2.1h.7c.1 0-.1.2 0 .2h.7c.1 0-.1-.1.1-.1 0-.1.5-.1.8-.1M102 1.3h1c.3 0 .8 0 .9-.1.1 0 0 0-.1-.1-.2-.1.1-.1.3-.1.1 0 .1-.1.2-.1h.4c.2 0 .2-.1.3-.1-.5 0-.7 0-1-.1-.1 0-.1-.1-.3-.1-.4-.1-1 0-1.2 0-.2.1-.1.1-.3.2-.2 0-.7 0-.8.1-.1 0 .1.1.2.1.2.2.2.3.4.3m6.3.3c-.4-.1-.9 0-1.3 0s-.9 0-1.3.1c.5 0 .3.1.6.2.1 0 .4 0 .5.1.4.1.5.1.7.1.1 0-.1 0-.1-.1l.1-.1-.2-.1c.3-.2.9-.1 1-.2m114.3 18.9h-.7c0 .1.7.1.7 0M112.5 2.6c0-.1-.7-.1-.7 0 .2.1.7.1.7 0m-1 0c-.2 0-.2-.1-.4-.1h-.4c-.2 0-.2-.1-.4-.1-.2.1-.4.1-.6.2.7.2 1.3.1 1.8 0m111.7 18.6c.1-.1 0 0-.2-.1-.3-.1-.6-.1-.7-.1-.2.2.7.3.9.2M92.3 1c.3 0 .5 0 .8-.1.2.1.9.1.9 0 0 0-.7-.1-.8-.1h-.5c-.4 0-1.1.2-.4.2m128.9 21.5h1.4c.1 0 .6.1.7 0 .1 0-.4-.1-.4-.2s0-.1-.2-.1c-.5-.1-.7 0-1.2 0h-.4c-.2 0 .1 0-.1.1 0 .2-.2.2.2.2M90.9.9h-.8c0 .1.7.1.8 0m-6.6.1h-.5c-.1 0-.4 0-.4.1.2 0 1.1 0 .9-.1m-7.5.7h.5c.2 0 .1.1.2.1.2 0 .4-.1.5-.1h1.8c.1 0 .3-.1.4-.1h1.9c.2 0 .3 0 .4-.1-.2 0-.6 0-.8-.1h-2.9c-.3 0-.9 0-.7-.1.2-.1.5 0 .9-.1.4 0 .7-.1 1.1 0 .2 0 .3.1.4.1.2 0 .2-.1.3-.1h.7c.2 0 .3-.1.4-.1h.8c-.1-.1-.5 0-.8-.1-.1 0-.1 0-.2-.1h-1c-.2 0-.1.1-.1.1-.1.1-.7 0-1 0h-1c-.4 0-.6-.1-.9-.1-.1 0-.1.1-.3.1-.2.1-.6.1-.7.2.4.1 1 .1.8.2-.1.1-1.2 0-1.3.1 0 .1.2.1.6.2M74.4.9s-.3-.1-.4-.1c-.6 0 .4.2.4.1m12.5 2.2h.5c-.1 0-.6-.1-.9-.1.2 0 .2.1.4.1M71.1 1c.3 0 1-.1.5-.1-.2 0-1.2.1-1.2.1h.7m4.8.9s-.1-.1-.2 0h.2m-13.4-.4c.1 0 .7-.1.7-.1h-.7c-.2.1-.2.1 0 .1M222.7 28h-.5c-.3 0-.1.1-.2.1s-.6 0-.7.1c0 0 .1 0 .1.1.1.1-.6.1-.9.1h-1.3 2c.7 0 1.5 0 2.1.1.5 0 .7.1.6-.1-.1-.1.1-.1.3-.2-.4-.1-1-.1-1.3-.1-.1 0 0-.1-.2-.1M59.1 1.6c.2 0 .5-.1.8-.1h.8-1.3c-.1 0-.2-.1-.3-.1-.3 0-.8 0-.9.1.1 0 .7.1.9.1m158.5 26.2c.1 0 .3.1.5.1-.1 0-.3-.1-.5-.1M61.7 2c0-.1 0-.1 0 0-.2-.1-.9-.1-1-.1-.2.1.9.1 1 .1m161.2 27.1c.1-.1-1-.1-1.2 0 .2.1.6 0 .8.1.2-.1.4 0 .4-.1M57.2 1.8c.3 0 .1-.1.4-.2H57c-.2 0-.4 0-.4.1 0 0 .3 0 .3.1.2-.1.1 0 .3 0m164.6 27.5c-.2 0-.5-.1-.6 0 .2.1.6.1.9.1.2-.1-.2-.1-.3-.1M57.3 2c-.1.1.7.1.7 0h-.7"/><path class="st0" d="M221.2 29.4c0 .1.9.1.9 0h-.9m1.1 1.7c.3 0 .2-.1.2-.2h-.2c-.1 0-.5-.1-.5 0 0 0 .3.1.4.1 0 0 0 .1.1.1m-1.2 0c.1.1.9.1 1 .1.1 0 .2-.1 0-.1h-1m-2.8 0c0-.1-.3-.1-.4-.1-.4.1.4.2.4.1m.1 1.5c.2 0 .1 0 0 0-.2 0-.1 0 0 0m3.9 2.1l-.8-.2c-.4 0-.6.1-.6.1.1.1-.4.1-.8.2h1.2c.2 0 1.2.1 1.3.1.1-.1-.4-.1-.4-.1-.1 0 .2-.1.1-.1m-5.5.3h.6c.1 0 .1-.1.1-.1.1 0 .4 0 .5-.1-.3-.1-.4-.1-.1-.2h-.8c-.1 0-.3.1-.3.1 0 .1.3 0 .2.1h-1.4c-.3 0-.7 0-.9.1.2.1.5 0 .8 0 .2 0 .5.1.7.1.2 0-.1 0 .1-.1 0 0 .2.1.5.1m3.2 1.5c.2 0 .4 0 .7.1.2 0 .3.1.5.1-.2-.2-.8-.3-1.2-.2m.3 1c.2 0 .9.1.9 0 .1-.1-.6-.1-.9 0M14.3 3c.4 0 .4-.1.2-.1s-1.4 0-1.3.1c.1.1.9 0 1.1 0m205.5 36.5c-.1.1.6.1.8.1.4 0 .7.1 1 .1-.2-.2-1.7-.3-1.8-.2m1 .4h-.5c-.5 0-.6 0-.9.1.4.1.8 0 1.3.1.2 0 .8.1.9 0 .1-.1-.5-.2-.8-.2M4.1 5c.2 0 .4 0 .7-.1.3 0 .6 0 .7-.1-.4 0-.6-.1-.8-.1-.2-.1-1 .1-1.1.2-.2.1.2.1.5.1m212.6 39s.2.1.3.1c.1 0 .2-.1.2-.1h-.2c-.3 0-.3-.1-.3 0m-.9.6c.6.2.3-.1 0 0M2.2 9.7c.5 0 1.1-.1 1.5-.1 0 0 .1 0 0 0-.4 0-.8 0-1.2.1-.4 0-.8 0-1.1.1.3 0 .6-.1.8-.1m-.4 3.4c-.3 0-.7 0-.8.1.3 0 .7 0 .8-.1m191.8 33.4c-.5-.1-.9 0-1.3 0 .3 0 .6.1.9.1.1 0 .1-.1.4-.1m-16.5-.3c0-.1.5-.1.6-.1.1-.1-.1-.2 0-.3 0 0 .2 0 .3-.1.2-.1.2-.1.3-.1-.5-.1-.9 0-1.5 0h-1.6.7s.6-.1.7 0l-.3.1h-.9c-.4 0-.7.1-.9.1h-3.1c.3 0 .9 0 .9.1-.1.1-.5 0-.7.1.3.1.2.1.5.1.2 0 .3-.1.5-.1.1 0 .1.1.2.1.2.1.5.1.8.1-.1-.1-.3-.1-.2-.2.1-.1.7-.1 1.1-.1.2 0 .3.1.4.1.2 0 .4-.1.5-.1.2 0 .5 0 .6.1.1 0 0 .1.2.1.2.1.7 0 1 0h1c-.4.1-1.1.2-1.1.1m2 .4s.1-.1 0 0c0-.2-.5-.1-.6-.1h-.6c.3.1.9 0 1 .1 0 .1-.4 0-.5.1.1.1 1.6.1 1.6 0-.1-.1-.7-.1-.9-.1"/><path class="st0" d="M174.2 45.7c0-.1-.3 0-.6 0h-1.3 1.9M2 16.1h-.4.4m173.8 30.5c-.1 0-.1-.1-.2-.1-.7-.2-1.1-.1-1.5.1h-.5c-.5 0-.2 0 .1.1.1 0 .1.1.2.1.3.1.5 0 .6 0 .1.1-.2.1-.2.1-.1.1 0 .1-.1.2-.1 0-.2 0-.3.1.4 0 .6.1.9.2.4.1.9.1 1.3 0-.4-.1-.6 0-.6-.1s.6-.1.2-.2c-.5.2-1-.1-.5-.2h.4c.2-.1.1-.1.3-.2.2-.1.5 0 .6-.1-.2.1-.5.1-.7 0m1.8.4h-.4l.3.1c.1 0 .3 0 .3-.1h-.2m-4.3-.2h-.4c-.6.1.4.1.5.1.1 0 0-.1-.1-.1m-6.5-1.1h-.2c-.3 0 .3.1.2 0m-1.9.3c.1 0 .3.1 0 .2h.8c.3 0 .9-.1.9 0s-.5 0-.5.1c.2.1.4 0 .6.1.1 0 .2 0 .3.1h1.1c.1 0 0-.1-.1-.1 0-.1.1-.2 0-.3-.2-.1-.5-.1-.6-.1h-1.3c-.6-.1-1-.1-1.2 0m4.1.9c-.2.1.5.1.7.1h.8c.6 0 1.3 0 1.6-.1-.3-.1-.6 0-.8-.1-.1 0-.1-.1-.2-.1h-.5c-.2 0-.2.1-.4.1-.3 0-.1 0-.3-.1h-.2c-.2 0 0-.1-.2-.1h-.6c-.1 0 .1.1.1.1s.1 0 .1.1c.1 0-.1 0-.1.1M.8 17.3c.1 0 1.1-.1 1.1-.2h-.6c-.3 0-1.1 0-1.2.1-.1.1.4.1.7.1m170.3 30.2c0-.1.1-.1 0 0 0-.1-.3-.1-.4-.1-.3 0-.5-.1-.7-.1-.2 0-.6.1-.7.1-.1 0-.1.1-.2.1h-1.6c-.2-.1.2-.1.3-.1.4-.2.1-.1-.3-.1-.3 0-.4-.1-.6 0-.2 0-.2.2-.4.2-.4.1-.9-.1-1.2 0 .5.1.8 0 1.2.1.1 0 .2.1.4.1h5.3c0-.2-.9-.2-1.1-.2m-11.5-2h-1s.3.1.5.1c.1 0 .5-.1.5-.1M1.7 18c-.3 0-.7 0-.9.1h.7c0-.1.4-.1.2-.1m151.4 26.5c.1-.1-1-.1-1 0 .2.1 1 .1 1 0m.9.4c-.1-.1.1-.1-.2-.1h-1.7c-.1 0-.1 0 0 0 .2.1 1.5.1 1.5.2s-.5 0-.4 0h-.4c.2.2 1 .1 1.1 0l.2-.2c.1.1 0 .2-.1.1m2.7.7h1.3c-.6-.2-1-.1-1.3 0m.6.4c-.2 0-.4 0-.5.1h1.3c.1 0 .3 0 .4.1.1.1-.1.1.1.1h1.2c.1 0 .5-.2.4-.2 0 0-.4-.1-.7-.1-.2 0-.4 0-.5-.1 0 0 .2-.1.1-.1h-.4c.1 0 .2.1.1.1l-.8.1h-.7m-5.8-1.5c.1 0 0-.1-.2-.1h-.2c-.4.1.3.2.4.1m-5.8-.2c.7.2 2 .2 2.4.2h.3l.1-.2c0-.1 0-.2-.1-.2l-.5-.1h-3.3c-.1 0-.4 0-.3.1.4 0 .7 0 1.1.1.2-.1.1 0 .3.1M9.6 20c-.2 0-.4.1-.6.1H7.9c-.8 0-1.5-.1-2.1.1.6.1 1 .1 1.6 0h3.4s.9-.2.5-.2H9.6m153.8 26.8c-.2 0 .1 0 0 0 .2.1.2.2.5.3.2-.2-.1-.4-.5-.3m-3.8-.4c.6.1.3-.1 0 0m-5.9-1.1h-.3c-.1 0-.9 0-.6.1.2 0 .1 0 0 .1s.8.1 1 .1c.2 0 .4-.2.3-.2-.1-.1-.2-.1-.4-.1m10.9 2.3c.2 0 .6.1.8.1.1 0 .2-.1.2-.1-.1-.1-1 0-1 0m-3.2-.5c.2-.1-.2-.3-.5-.3s0 .2 0 .2l-.1.1c.3.1.6 0 .6 0m-10.7-1.7c-.1 0-.1.1-.2.1-.2 0-.2-.1-.4-.1-.1 0-.5.1-.4.1h.3c.3 0 .5-.1.7 0 .7.1.2.3.8.3 0-.1.1-.1.4-.1.1-.1-.2-.1-.1-.2.1 0 .3 0 .4-.1.3-.1.1-.2-.3-.2-.3.2-1.1.2-1.2.2m-7.3-.8c-.1.1-.3 0-.5 0h-.4c-.3-.1-.1-.1 0-.2.2 0 .3 0 .4.1.1 0 0 .1.1.1.1-.1.5-.1.4 0m.9-.4h-2.9c-.1 0-.5 0-.5.1s.3 0 .5.1c.1 0 .2.1.2.1.3.1.5 0 .5.1-.1.1-.7 0-.9.1.3.1.5 0 .9 0 .2 0 .9 0 .9.1s-.7.1-.9.1c-.1 0-.2.1-.3.1-.3 0-.7 0-.8.1.4.1.8 0 1.1 0h1.9c.2 0 0-.2-.1-.2h-.2c-.2 0-.4 0-.3-.1 0 0 .3 0 .4-.1.1 0-.1 0 0-.1.2-.2 1-.3.5-.4m17 3.1c-.2 0-.3-.1-.4-.1-.3 0-.4.1-.8.2h1.8c0-.1-.3-.1-.6-.1m-10.7-.6c-.2 0-.6-.1-.5-.2.1-.1.3-.1.6-.1h.2c.1.2-.1.3-.3.3m1.3-.6c-.2 0 0 .1-.1.2s-.6 0-.8.1c-.1 0-.1.1-.1.1-.5.1-1.1 0-1.7.1.6.1.5.2.3.3.4 0 .5-.1.7 0 .3 0 .4.2.6.3h.5c.1 0-.3-.1-.1-.1h.7s.1-.1.2-.1c.1-.1.1-.3.1-.3l-.4-.1c.1-.1.8 0 .9 0 .1 0 .1-.1.2-.1s.4-.1.4-.1c0-.3-1.3-.4-1.4-.3m8.9 1.5c-.2 0-1.1 0-1.1.1h.6c.2 0 1.2-.1.5-.1M11.2 21.4h-.4.4m-2.2 0h1.4c-.5 0-1-.1-1.4 0m136.6 24c-.1 0-.2.1-.3.1h-.5c.3.1.7 0 .7.1h-.2c-.4 0-.4.1-.4.2v.1c-.1.1-.7.2-.1.2.1 0 .4-.1.5-.2.1-.1-.1-.1.1-.2.1 0 .6-.1.7-.1.2 0 .2.1.4 0 .1 0 0-.1.1-.1.1-.1.3 0 .3-.1-.6-.1-1.1-.1-1.3 0m13 2.2h-1.4c-.4 0-.6 0-1 .1-.2 0-.4 0-.4.1.6.1 1.1.1 1.7.1.5 0 1.3 0 1.6-.1.1 0 .2-.2 0-.2h-.5m-18.8-3h.4-.4M4.4 20.8h-.6c.2.1.4.1.6 0 0 .1.1.1 0 0M140 44.9h.9c-.1-.1-.9-.1-.9 0M3.9 21h.5-.5m144.6 25.4c-.2 0-.9 0-.9.1.1.1 1.3.2 1.3 0 0-.1-.1-.1-.4-.1m-11.8-2c-.3 0-.6 0-1 .1.1 0 .4 0 .4.1-.1.1-.4 0-.3.1h1.2c-.4-.1.1-.3-.3-.3m-3.5-.1h1.2c.1 0 .9 0 .9-.1 0 0-.2-.1-.5-.1h-1.4c-.2 0-.4 0-.7.1h-.6c.5.1.7.1 1.1.1m9.9 1.4c-.2-.1-.8-.1-1.3-.1-.2 0-.3 0-.4-.1h-1.1c.3.1.7 0 1.1.1-.1.1-.3 0-.3.1.3.1.5 0 .7.1.2.1-.1.2 0 .2.1.1 1 .1 1 .1.3-.1.1-.2.2-.3l.1-.1m-11-1.9c-.1 0-.4-.1-.6-.1h-.5c-.1 0-.5.1-.5.1.1.1.5.1.6.1.2 0 .4.1.6.1.1 0 .4-.2.4-.2M2.2 21c0-.1-.6-.1-.7 0h.7m134.7 23.8c-.2 0-.8 0-.9.1.3 0 .7.2 1 .1.1 0 .1-.1.1-.1.1-.1.2-.1-.2-.1M.7 21.1c.1.1.6-.1.3-.1-.1 0-.4 0-.3.1m130.1 23.1c-.8.2 1 .1.5 0h-.5m20.6 3.6h.5-.5m-3-.4h-.2c-.5.2.4.3.6.1.1 0-.1-.1-.4-.1m-15-2.5c.4-.2-.7-.2-1.1-.2-.3 0-.6-.1-.9-.2-.3 0-.8-.1-1.2-.1-.4 0-.9-.1-1.2 0-.1 0 0 .1-.1.1-.2 0-.5-.1-.5.1 0 .1.9.1 1 .1.1 0-.2.1-.1.1.1.1.2 0 .3.1-.3.1-.7 0-1 0-.1 0-.7.1-.7.1-.1.1.1.2.3.2.1 0 .8.1 1.1.1h1.4c.3 0 .4-.1.6-.1.2 0 .7-.1 1.1-.1h.6c.2-.1.4-.1.4-.2m4.1.6c-.2-.2-1.2 0-1.1.1 0 0 .4 0 .6.1.2 0 .1.1.3.1.1-.1-.1-.1 0-.1 0-.1.2-.1.2-.2m4 .8c-.1 0-.1-.1-.2-.1h-1.1c-.2 0 0 .1 0 .1 0 .1-.2.2-.1.2h.6c.3 0 1.1.2 1.2.2.1 0 .2-.2.2-.2-.2-.1-.4-.1-.6-.2m-16.7-2.6c-.2 0-1 0-1 .1.5 0 1 .1 1.3 0 0-.1-.1-.1-.3-.1M1.9 22.3c.4-.1 0-.3-.7-.2H.5c-.3 0-.6.2-.6.3 0 .1.5 0 .8.1-.1.1-.3 0-.3.1.4 0 .7 0 1.1-.1-.6-.1.2-.1.4-.2m132.9 23.3s-.1 0-.2-.1c-.1 0-.5-.1-.7 0-.1 0-.2.1-.2.1s1 .1 1.1 0m9.7 1.9c.1.1.5.1.7 0-.1 0-.5-.1-.7 0M123 43.8h.4c-.2 0-.3-.1-.4 0m3.8.7h-.4c.2.1.5.1.4 0m13.3 2.4h-.5c-.1 0 .2.1.1.1s-.1 0-.3.1c.2.1.9.2 1.1.1.1 0 .3-.2.3-.2-.2 0-.6-.1-.7-.1m-16-2.6c.3.1.9.1.9 0 0 0-.3-.1-.5-.1s-.3.1-.4.1m-.9-.2h-1c0 .1 1.2.1 1.2 0h-.2m8.4 1.5c-.2 0-.5 0-.7-.1-.2 0-.2-.1-.4-.1h-.7c-.2 0-.5 0-.5.1.4 0 .4.1.6.1.1 0 .4.1.6.1.1 0 .1.1.2.1.3.1.4.1.7 0 .1 0 .4-.1.4-.1.4 0 .2 0-.2-.1m3.7.8h-.2c-.2 0-.5 0-.6.1.4 0 .8.1 1 .1.1 0 0-.1-.2-.2m-12.2-1.8h-1.5c-.1.1 1.3.1 1.3.1.1 0 .3-.1.3-.1h-.1m13.8 2.5c0-.1-.6-.1-.6-.1-.2 0-.3-.1-.5-.1-.4.1.3.1.4.1.2.1-.1.1.1.1.2.1.6.1.6 0m-7.6-1.4h-.5c.2.1.4.1.5 0m8.1 1.6c-.3 0-1 0-1 .1s.6 0 .7 0c.3 0 .5-.1.8-.1h-.5m-9.6-1.7h-.6.6M1.3 23.6s.4.1.6.1c.3 0 .5-.1.7-.1-.3 0-1.3-.2-1.3 0M133 47.5c.3 0 .5.1.7 0-.3 0-.6-.1-.7 0m-5.4-.8c.3.1.6.2.8.1.3-.1-.5-.2-.8-.1m-5.6-1.1c-.6-.1-1.2 0-1.8 0-.3 0-.5-.1-.7 0 .2.1.4 0 .6 0h.9c.4.1.8.1 1 0m.7.4c-.1 0-.2-.1-.2-.1 0-.1.2-.1.2-.1s-.2-.1-.3-.1c-.2 0-.2 0-.4.1h-.6c.3.1 1 .2.9.2 0 .1-.6 0-.5.1 0 0 .5.1.6.1.2 0 .5 0 .5-.1.1 0-.2 0-.2-.1m8.3 1.5h.5c-.1 0-.3-.1-.5 0m-1.6 0c-.3 0-.4.2-.1.2.2 0 .5-.2.1-.2m-31.1-5.4c-.3 0-.2.1-.2.1l.3-.1h-.1M124 47c.2.1.4 0 .5.1.1.1-.1.1 0 .1.4.2.7-.1.4-.2-.3-.1-.6-.1-.9 0m4.9.8c-.3 0-.1.2 0 0 .3.1.1 0 0 0m-2.6-.4h-1.1c-.1 0-.2.2-.1.2h1.3c.2 0 .4.1.5.1.1 0 .2-.1.2-.1 0-.1-.8-.2-.8-.2m-26.2-4.5c-.2-.1-.4 0-.6 0 .3.1.5.1.6 0M5.3 26.5h.4c.2 0 .3.1.5 0-.2 0-.2-.1-.5-.1-.1 0-.7 0-.7.1 0-.1.1 0 .3 0m115.6 20.7h-.2c.2 0 .4.1.6.1.3 0 .6-.1.6-.1-.2-.1-.8 0-1 0m-1.4.2h-.9c-.2 0-.6.1-.7.1-.1 0 0 .1 0 .1-.2.1 0 0 .4.1.2 0 .3.1.4.1.3 0 1.2-.1 1.3-.1.1-.1-.6-.1-.5-.3M4 27.1c-.4-.1-.3 0 0 0M81.8 41c-.1 0-.4 0-.4.1 0 0 .6.1.8 0-.2 0-.2-.1-.4-.1M2 27.1h.7H2m86.8 16.1c-.3 0-.1-.1-.3-.2h-.7s-.3.1-.2.1c.1.2 1.1.1 1.2.1m26.2 4.6h-.4c-.1 0-.2.1-.4.1-.3 0-.4-.1-.6 0 .1.1.5.1.6.1.1 0 .2 0 .4-.1h.5c.2 0 .4-.1.4-.1h-.5m-41.9-7h.3-.3m13.7 2.6c-.5.1-.1.2.2.2h.7c.1 0 0 0 0-.1l.1-.1h-1m4.8 1.6c.2 0 .3.1.5 0 .1 0 .3 0 .4-.1h1.2c-.3-.1-.6 0-.8 0h-.8c-.5 0-1.1 0-1.6.1h1.1m15.9 2.9c.4.1 1.1.1 1.2 0 .2-.1-1-.1-1.2 0m-24-4.3c.1 0 .8 0 .6-.1h-.8c-.4 0-.9.1-1.2.1.4.1 1 0 1.4 0m-13.2-2.5c-.7-.1-.5.1 0 0M9.7 30.3h-.6c0 .1.6.1.6 0m1.7.4h-.7s.4.1.3.1c.2 0 .4-.1.4-.1m89.4 16.5c0 .1-.2.1-.5.2.1 0 .4.1.4.1.1 0 .5-.1.5-.1.3-.1-.2-.2-.4-.2m1.4.4h-.3c-.1.1.9.1.3 0M73.3 43h-.9c-.6 0-1.3 0-1.8.1h3.7c.3 0 .6 0 .7-.1h-1.7m1.3.3h-.4c-.4 0-.7 0-1 .1h1.3c.1 0 .2 0 .3.1h1c.1 0 .3-.1.3-.1 0-.1-.4-.1-.6-.1h-.4c-.2 0-.3-.1-.5-.1 0 0 .1.1 0 .1m-7.4.9s.1.1.4.1h1.7c.3 0 .6 0 .9-.1h2.2c.4 0 .9.1 1.3.1h1.2c.1 0 .1-.1.1-.2 0 0 .2-.2.3-.2 0 0 .5 0 .5-.1s-.1-.1-.3-.1h-1.1c-.4 0-.7.1-1.1.1h-.9c-.2 0-.3.1-.5.1H71c-.1 0-.4 0-.6.1h-.6c-.3.1.1 0-.2.1l-.5.1h-1.9m25 2.6c-.8-.1 0 .2.3.1.2-.1-.2-.1-.3-.1m-.8-.1c-.4 0 .2.1.2 0h-.2m4.1.9c-.1 0 0-.1 0-.1-.1 0-.2-.1-.3-.1-.1 0-.4.1-.4.2h.1c.1 0-.1.1-.1.1.1 0 .4.1.6.1.4 0 .5-.1.4-.2h-.3m-24.3-4.1h.9s-.1 0-.2-.1c-.1 0-.7.1-.7.1m-3 .1c.1-.1 0-.1-.2-.1h-.3c-.8 0 .4.1.5.1m22.2 4.2c-.1-.1.1-.1-.1-.1-.3.1-.8.3-1.3.4h1.1c.1 0 .1-.1.1-.1h.5c.1 0 .1-.1.1-.1-.1 0-.4 0-.4-.1m-19.3-2.6c-.5 0 0-.1.3-.1h.8c-.1.1-.8.2-1.1.1m5.6 1.1c.4 0 1.2.1 1.4 0 .1 0 0-.1 0-.1 0-.1.2-.1.1-.1 0 0-.6-.1-.8-.1h-.8c0-.1.6 0 .6-.1-.3-.1-.5 0-.7-.1-.2 0-.1-.2-.5-.3h-.6c-.2 0-1.1.1-1.2 0l.2-.1c.1 0 .2-.1.2-.1s-.4-.2-.5-.2h-1.9c-.2 0-.3-.1-.5-.1-.1 0-.3 0-.5.1-.2 0-.3.1-.5.1h-5.5c-.2 0-.3 0-.5.1h-.5 4.5s-.1 0-.1.1c-.1.1.9.1 1 .1h1c.5 0 .5-.1 1.1-.1.3 0 1.4 0 1.3.1 0 0-.9.1-1.1.1h-1.6c-.6 0-1.2.1-1.6.1-.5 0-1.1 0-1.6-.1-.7 0-.8 0-1.5.1h-1c-.2 0-.3.1-.5.1H61c-.2 0-.5-.1-.7 0-.3 0-.4.1-.6.1h-1.2c-.4 0-.8.1-1.2.1h-1.6 4.6c.4 0 1.3-.1 1.7 0 .1 0 .2.1.3.1.2-.1.1-.1.2-.1.5-.1 1.7 0 1.7.1s-.2.1-.4.2-.3.2-.7.2h-.5c-.4 0-.9.1-1.3.1h-3.1c-.3 0-.2.1 0 .1.3 0 .5-.1.6-.1h1.9c.1 0 .3.1.4.1h1.2c.1 0 .2.1.3.1h.6c.2 0 .3-.1.5-.1h.8c.3 0 .6-.1.7-.1.2 0 .8 0 1 .1h.6c.4 0 .9-.1 1.2-.1.1 0 .3 0 .4.1h.6c.2 0 .3.2.5.2.1 0 .5-.1.5-.1.2-.1-.1-.2-.4-.2h-1.3c-.6 0-.9.1-1.2.1-.1 0-.5-.1-.6-.1-.2-.1.3-.2.5-.3.1 0 0-.1 0-.1-.1-.1.1-.1.5-.2.2 0 .2-.1.3-.1.3-.1.6 0 1 0h4.5c.3 0 1 0 1 .1-.1.1-.6 0-.7.1.3.1.5.1.7.2.1 0 .1.1.2.1H76c.2.1-.3.1 0 .1.6-.2.7-.2.7-.2m9.8.9h-.6c-.1 0 0 0 .1.1v.1h.3c.4.1-.3.1-.3.1 0 .1.6.2.7.2.2 0 .1-.1.1-.2s.2-.2-.3-.3m-33.7-5.9h-.5c-.1.2 1.1.1.5 0m10.1 2.6c.2.1.4 0 .6.1.1 0 .2.1.3.1.2 0 .2 0 .4-.1.2 0 .4 0 .5-.1.1 0 0-.1.1-.2 0 0 .1 0 .1-.1 0 0-.3-.1-.4-.1-.2 0-.4.1-.6.1-.2 0-.7 0-.8.1l.2.1c0 .1-.2.1-.4.1m5.8.6h-1.3 1.3m-6.2-.2s.3.1.5.1h.7c.4 0 2 .1 2.1-.1.1-.1-.1-.1-.3-.1h-1.4c-.1 0-.1.1-.3.1-.3 0-.3-.1-.6-.1-.2 0-.7.1-.7.1m-3.1.2c.4 0 .8.1 1.2.1-.1 0-.3 0-.3.1.2 0 .5.1.7.1h2.1c.4 0 .8-.1 1.1 0 .1 0 0 0 .1.1h.2c.1 0-.1.1.1.1h1.6c.5 0 .3-.1.3-.2-.1-.1.1-.1.3-.2h-1.9c-.1 0-.2.1-.4.1h-.2c-.4 0-.7.1-1.1.1h-2.4c-.1 0-.4-.1-.4-.1s.2-.1.2-.2c-.1 0-.4-.1-.5 0-.1 0-.3 0-.5.1 0-.1-.2-.1-.2-.1m22.7 2.8c-.1 0-.7 0-.7.1 0 0 .3.1.4.1.1 0 .4-.1.4-.1 0-.1-.1-.1-.1-.1m-14.6-2.5c-.3 0 .2.1.2 0h-.2m-6.7-.8h.7c.2 0 1-.1.4-.1h-.8c-.5 0-1.2.1-1.5.1.4.1.7 0 1.2 0"/><path class="st0" d="M73.4 46.3h1c-.2 0-.4 0-.5-.1-.1 0-.1-.1-.2-.1-.2 0-.4 0-.6.1-.1 0-.5.1-.4.1 0 .1.6 0 .7 0m3.2.6h1.2c-.5-.1-.8 0-1.2 0m4.5.8c.2 0 .8 0 .7-.1-.2 0-.7 0-.7.1m-1.6-.3h.6c-.2-.1-.4-.1-.6 0m-1 0h-.2c-.6 0 .3.1.3 0h-.1"/><path class="st0" d="M71.4 47c.5.1.9.1 1.4.1h.8c.1 0 .2-.1.3-.2.1-.1.3-.1.3-.2 0 0-.2 0-.4-.1s-.4-.1-.5-.2c-.3 0-.4 0-.5-.1-.1 0-.6 0-.7.1.2.1.5 0 .7.1.3.1.2.2-.1.2-.2 0-.4 0-.7-.1-.1.1.3.1.2.2-.3.2-.6.2-.8.2m-33.2-6.5h-.3c.1.1.5 0 .3 0M2.8 34.3c-.4 0-1.4-.1-1.5 0-.1.1.5.1.8.1.2 0 .3 0 .4-.1H3c0-.1-.2 0-.2 0m52 9.5s.3.1.5.1c0 0 0-.1-.1-.1 0-.1-.3-.1-.4 0m19.3 3.7c-.4-.1-.3.1 0 0M43.5 43c.1.1 1.1 0 1.2 0l-.1-.1c-.3-.1-.9 0-1.1.1m29.7 5.3c-.3 0-.4-.1-.6-.1h-.8c-.2 0-.4.1-.6.1h-.3c-.3 0-.6.1-.9.1h-1.2c.2 0 .5 0 .8.1.3 0 .4.1.7.1.3 0 .2-.2.6-.2.4 0 .4.1.6.1h2.2c.4 0 .7 0 .8-.1 0 0 .1-.1 0-.1-.2-.2-1 0-1.3 0m-6.8-1c-.2 0-.7 0-.7.1 0 0 .4.1.6.1.1 0 .5-.1.5-.1.1 0-.3-.1-.4-.1m-1.6-.2c-.7-.1-1.7 0-2.5 0 .5.1.8.1 1.3.1h.4c.2 0 .3 0 .5-.1.1.1.7.1.3 0m-12.2-1.6h1.7c.1 0 .6 0 .6-.1h-1.3c-.4 0-.9 0-1 .1m-3.2.6c.5.1 1.3 0 1.8 0h1.9c.1 0 .2 0 .3.1h.9c.4 0 .9-.2.5-.3-.3 0-.7-.1-1-.1-.5 0-1 .1-1.6.1h-.7c-.2 0-.4 0-.7.1-.5 0-1 0-1.4.1m19 2.4c-.1-.1 0-.1 0-.1h-.1c-.2 0-1.4 0-1.4.1 0 0 .3.1.5.1s1.2 0 1.3-.1h-.3m-23-4.1c.2 0 .5 0 .6.1.3-.1-.5-.2-.6-.1M58.1 47s.1-.1 0-.1c-.1-.1-.3-.1-.3-.1-.1-.1.2-.2.1-.2-.2-.2-.8-.1-1.2-.1h-2.2c-.2 0-.5.1-.7.1-.4 0-.7 0-.9.1.5.1 1.1 0 1.6.1h1.1c.2 0 .5 0 .5.1.1.1-.2.1-.1.1 0 0 .5.1.7.1.2 0 .5 0 .7.1.6-.1.7-.1.7-.2m-13.9-2.6c.3 0 .5.1.7 0 .1 0 .1-.1-.1-.1s-.7.1-.6.1m16 2.8c-.5-.1-.9.1-1.4.1-.4 0-.5-.1-.8 0-.7.1.6.1.8.1h.7c.3.1 0 .1.4.1.2 0 .7-.1.8-.2 0 0-.4-.1-.5-.1m-49.9-8.8c.4-.1 0-.1 0 0-.1-.1-.3-.1-.5-.1-.3 0-.4-.1-.6 0 0 0-.1.1-.2.1-.2 0-.7 0-.8.1 0 0 .3.1.5.1h.7c.1 0 0 0 0-.1.2-.2.6-.1.9-.1M63.4 48c-.2 0-.1 0-.5.1-.2 0-.6 0-.6.1 0 0 .4.1.6 0 .2 0 .9-.1.9-.1.2-.1-.4-.1-.4-.1m1.5.5h.4-.4m-8.3-1.1l.1-.1c-.1 0-.5-.1-.7-.1-.1 0-.5.2-.5.2s.4.1.6.1c.1 0 .3 0 .5-.1.1.1-.1.1 0 0m-9.3-1.8H47c.1 0 .4.1.3 0"/><path class="st0" d="M52.2 47.6c.2 0 .4-.1.6-.2.4-.1.6-.1.3-.2s0-.1.1-.1v-.2s0-.1-.1-.2h-.5c-.1 0-.3 0-.5-.1h-.5c-.2 0 0-.1-.1-.1-.2-.1-.8-.1-.9-.1h-1c-.1 0-.2.1-.4.1-.3 0-.7 0-.9.1.2 0 .4.1.6.1h.7c.2 0 .5.1.7.1h.5c.1 0 .8 0 .8.1s-.7.1-.8.1c-.2 0-.3.1-.5.1h-1.1c-.2 0-.5 0-.5.1.3-.1.8 0 1.2 0h1.5c.2 0 .6.2.5.2-.1 0-.4 0-.6.1-.2 0-.5.1-.6.1h-.8.9c.5 0 1 .1 1.4 0m-6.6-1.4h1.1c.6 0 1 0 1.2-.1.1-.1.2 0 .1-.1h-1.4c-.4.1-.9.1-1 .2m-3.7-.4c.2.1.5 0 .7 0 .1 0 .2 0 .3.1h1c.1 0 .5-.1.5-.1.1-.1-.4-.2-.3-.3 0 0 .2 0 .2-.1-.3 0-.6-.1-.8-.2 0 0-.3 0-.5.1h-.3c-.1 0-.5.1-.5.1l.1.1c.1.1-.8.1-1 .1-.2 0-.3-.1-.5-.1.3.1.1.2-.3.1-.1 0-.1-.1-.1-.1-.3-.1-.6.1-.4.1h.8c-.4 0-.8 0-1.2.1h1.1c.3 0 .7 0 .9-.1h-.1c-.1-.1.7-.1.8-.1-.1.3-.6.3-.4.3m14.4 2.1l.2.1c.3.1.3 0 .3-.1.1-.1.2-.1-.1-.1l-.4.1m2.9.8h-.5c-.4 0-.6 0-.9.1.4.1.8 0 1.4-.1.1.1.3.1.6.1h.7s-.2-.1-.3-.1c-.2-.2-.9 0-1 0m-11.5-2s-.2-.1-.3-.1c-.1 0 0-.1 0-.1-.1-.1-.5-.1-.8-.1-.2 0-.3.2-.4.2h-.4c-.4 0-.7.1-1 .1h.7c.1 0 .1 0 .2.1h1.8c0 .1.2-.1.2-.1m8.3 1.9c.1 0 .1.1.2.1.2-.1-.1-.2-.2-.1m-4.5-.6c-.1.1.6 0 0 0m2.7.7h-.9c-.1 0-.3-.1-.4-.1h-1.4c-.3 0-.7.1-.8.1h.7c.2 0 .4.1.7.1h.9c.5.1.8-.1 1.2-.1.1 0 .1 0 0 0m-6.6-1h.5-.5m-2.8-.5c.2.1.4 0 .5 0h-.5m2.6.9c.2.1.5.1.7.1.1 0 .1.1.2.1.4 0 .3-.3.3-.3-.3-.1-.9 0-1.2.1m-3.6-.6c.1 0 .4-.1.4-.1s-.2-.1-.5-.2h-1.5c-.6 0-1.3-.1-1.6.1-.1 0 0 .1-.1.1-.3.1-.5 0-.7.1h2.1c.2 0 .2.1.3.1h.8c.5 0 .6-.1.8-.1m2.2.2h-.6c-.6 0-1.4 0-1.9.1.6.1 1.2 0 1.7 0h.4c.2 0 .7 0 .7-.1H46m-8.1-.8c-.1 0-.4-.1-.5-.1-.1 0 .2-.1.1-.2-.2-.1-.4 0-.5 0-.3.1-.1.1-.2.2l-.2.1h-.5c-.3 0-.6 0-.8.1h.4c.1 0 .1 0 .2.1h.8c.1 0 .1-.1.2-.1H39c.1 0 .1-.1.1-.1-.2-.1-.9.1-1.2 0m3.7.9h-1.7c.8.1 1.3 0 2.1 0h.5c.1 0 .3 0 .4-.1h-.5c-.4.1-.6.1-.8.1m-22.4-3.6h.3-.3m-3.1 1.5c-.3-.1-.8-.1-1 0 .2.1.5.1.8.2.1 0 .1.1.2.1.3.1.7.1.9.2.1 0 .3.1.3.2.1 0 .2 0 .2.1.1 0 .1.1.2.1s.3.1.4.1c.4.1.7.2 1 .1.1 0 0 0 0-.1 0-.2.3-.1.7-.3.1 0 .2-.2.3-.2.2 0 .4.1.7.1.3 0 1.4.2 1.5.1.1-.1-.7-.1-.8-.2-.2 0-.5-.2-.2-.3.4-.1.4.2.5.2.3.1 1.3.1 2 .2.2 0 .4.1.5.1h.8c.3 0 .6 0 .7-.1-.3-.1-.6 0-.7-.1-.2-.1.3-.1.5-.2l.1-.1c.1-.2-.4-.2-1.1-.2-.3 0-.7 0-1-.1-.2 0-.3-.1-.4-.1h-1.4c.1.1 1.2.1.9.3h-.4c-.1 0-.3.1-.4.1h-.7c-.2 0-.1 0-.4-.1-.1 0-1-.1-1.1-.1-.2 0-.1.2-.1.2.1.1 1.2.2 1 .2h-1c-.4 0-.6-.1-.9-.1h-1.4c-.3 0-.4-.1-.5-.1h-.6c.1-.2 0-.2-.1-.2m1.3-1.4c-.1-.1-.4-.1-.6 0 .1 0 .5.1.6 0m-2.7-.2c.3.1 1 .2 1.4.1-.5 0-1-.1-1.4-.1m23.2 4.4c.1 0 0 0 0 0 .2-.1.3-.1.4-.2-.1-.1-.7 0-.8 0-.1 0 .1.1 0 .1h-.3s0-.1-.1-.1h-.7c.3.1.3 0 .5.1.1 0-.1.1-.1.1.2.2.9.2 1.1 0"/><path class="st0" d="M20.7 45.5c-.2.1.4.1.6.2 0-.1-.3-.2-.6-.2m19.5 3.6H40c-.1 0-.5.1-.4.2 0 0 1 0 1-.1 0 0-.1 0-.4-.1m-2-.3c-.2 0-.8 0-1 .1.1 0 1.2 0 1.2-.1 0 .1-.1 0-.2 0m-3-.3c.3.1.6 0 .9 0-.2-.1-.8-.1-.9 0m-.8 0h.5-.5m-29-5.2c-.1.1.8.1.8 0-.2.1-.7 0-.8 0m24.3 5.3c-.2 0-1 0-1 .1l.4.1c.1 0 .7-.1.7-.2h-.1m-4.6.2c.2 0 .4.1.6.1.1 0 .4 0 .4-.1l-.5-.1c-.1 0-1.1 0-1 .1h.5m.7.3s.1-.1 0 0c-.2-.1-.4-.1-.6 0H25c-.1 0-.2.1-.4.1h-1.7c-.3 0-.5.1-.8.1h-2.2c-.6 0-1.3 0-1.8-.1-.4 0-.7-.1-1-.1-.3 0-.5-.1-.8-.1-.2 0-.5 0-.8-.1-.3 0-.6-.1-.8 0 .3.2 1.1.3 1.8.4.1 0 .2.1.3.1.4.1 1 .1 1.4.2.7.1 1.4.3 1.8.1.1 0 0-.1.1-.2.3-.1.5.1.7.1.2 0 .6.1 1 .1h1c.3 0 .6-.1 1-.1h1c.1 0 .2 0 .3-.1h.2c.2 0 .2-.2.2-.2-.1-.1-.4 0-.4-.1.1-.1.6-.1.8-.1.4 0 .7 0 .7-.1 0 .1-.6.2-.8.1m2.6.4c-.3 0 .2.1.1 0 0-.1-.1 0-.1 0M94.5 2.1h.1-.1m66.2 2"/><path class="st0" d="M221.5 13.5h-2.3c-.3 0-.5.1-.8.1h-1c-.1 0-.3-.1-.4-.1h-.9c-.2 0-.3-.1-.4-.1-.2 0-.9 0-.9-.1s.7 0 .9 0h.8c.1 0 .1-.1.1-.1.1-.1.3-.1.4-.2h.8c.3 0 .4-.1.6-.1h1.3c.4 0 .4 0 .8.1.2 0 .6 0 .6.1s-1.2 0-1.4 0h-.4s.3.1.5.1c.3 0 .7.1 1.1.1h1c.1.2-.2.1-.4.2m-3.6 3.5h.9c.2 0 .2.1.2.1.5.1 1.1 0 1.6.1.2 0 .2.1.4.1h.5c.1 0 .3 0 .3.1s-1.5.1-1.6.1h-1.7c-.2 0 0-.1-.1-.1-.1-.1-.4-.1-.6-.1 0-.2 0-.3.1-.3m-3.3-3.8c-.2.1-.4-.1 0 0-.1 0 .2 0 0 0m-.4 5.3h1.9s.5 0 .4.1c-.1.1-.6 0-.7 0-.3 0-.4-.1-.5-.1-.2 0 .1 0-.1.1h-1.6c-.4 0 .3-.1.6-.1m.5 0c0 .1-.8.1-.9 0 0-.1.6-.1.9 0m.5 1.5h.6c-.2.2-1.7 0-.6 0m-2.4 2.8c-.2.1-.7 0-.6-.1.1 0 .4 0 .6.1m-.5 3.3c-.1 0 .2-.1.3-.1.5.1-.2.2-.3.1m1.5 3.9h1.7s.5 0 .5.1c.1 0-.5.1-.3.1h-2.2c-.3 0-.6-.1-.6-.1-.1-.1.8-.1.9-.1m-.1-3.9h.9c.1 0-.1.1-.3.1-.2 0-1.3 0-1.2-.1 0-.1.4 0 .6 0m1-1.2c.4 0 .6.1.6.1 0 .1-.5.1-.8.1-.4 0-1-.2-1-.2h1.2m1.6 1c.3 0 .2.1.3.2h.5c.4 0 .7.1 1.2.1h3.9c.1 0 .4.1 0 .1h-4.6c-.2 0-.5-.1-.9-.2s-.3 0-.6 0c0 0-.3-.1-.2-.1 0 0 .3-.1.4-.1m4 .8H218c-.3 0-1.1.1-1.2 0-.1-.1.9-.1 1-.1h3.8c.2.1-.8.1-1.3.1m-8.2 19.1c.3 0 .2.1 0 0-.2.1-.2 0 0 0m1.6-12.3h.2c.1.1-.4.1-.5 0h.3m1.1 7.2c.5 0-.2.1-.3 0 0-.1.2 0 .3 0m-.1 2.8c.1 0 .3 0 .2.1-.1 0-.5-.1-.2-.1M208.1 7c-.2 0-.5-.1-.2-.1.2.1.3.1.2.1m-4.4-.4c-.2 0-.5-.1-.5-.1 0-.1.2-.1.1-.2h-.4c-.1-.1.2 0 .2-.1.1 0 0-.1.3-.2s.6 0 .5.1c-.1 0-.3.1-.3.1-.1.2.5.3.1.4m-.9-1.9c.2 0 .3.1.2.1-.1 0-.4-.1-.2-.1m-1.4 0c.4 0-.2 0 0 0m-1.5.1c-.1 0-.4.1-.5.1-.1 0-.2 0-.4-.1h-1.2c-.2 0-1 0-1.1-.1 0-.1.4-.1.8-.1h.7c.1 0 .3-.1.3-.1.2 0 .3 0 .5.1h.7c.1 0 .5 0 .6.1-.1 0-.3.1-.4.1m-1.8.9h-.4c-.1 0 .1.1 0 .2l-.3.1c-.2.1.1.1-.1.2-.2 0-.8 0-1.1-.1-.3 0-.9-.1-.4-.1h.2c.1 0 0-.1.1-.2h.5c.4 0 .6 0 .7-.1v-.1c.1 0 .2-.1.4-.1h.1c.4-.1.7.1.3.2m-.1 39.5c-.1.1-.4-.1 0 0 0 0 .2 0 0 0m-9.1 2c0-.1.4 0 .6 0h.6c.1 0 .3 0 .3.1 0 0-1.6 0-1.5-.1m5.3-42.4h-.8l.4-.2c.6-.1.7.1.4.2M192.7 45h.5c-.1.2-1.3 0-.5 0m-.6.4s.1 0 .1-.1h.2c.1.1-.3.1-.3.1m-1.4 0h-1.3c-.1 0-.9 0-.9-.1s.6 0 .8 0h1.3c.1 0 .6.1.1.1m-2.6-.4h-.8c-.2 0-.1.1-.3.1-.4-.1.1-.2-.6-.2h-.3c-.1 0-.2-.1-.3-.1h-1.2l.2-.1s-.5-.1-.5-.2 1.2-.2 1.4-.1c.1.1-.1.1-.3.1.3.1.8 0 1.1 0h1.1c.3 0 .2.1.3.1h.4c.3.3.2.4-.2.4m-4.6-.1h-.4c-.3 0-.6-.1-.8-.1-.5-.1-.9 0-1.1-.1.3-.1.6 0 1 0h.7c.4 0 .6.1.9.1.2 0 .4-.1.5 0l.4.1c-.2-.1-1.1 0-1.2 0m-1.2-41.1c-.1.1-.6 0-.6 0s.3-.1.4-.1c.2 0 .2.1.2.1m-1.4-.3c.1-.1 1 0 1.3 0h.4c.1 0 .1.1-.2.1-.2 0 0 0-.2-.1h-.8c-.4.1-.6.1-.5 0m.3-.2c.2 0 .5 0 .5.1s-.6 0-.6-.1h.1m.4-.2c.2 0 .2-.1.4-.1 0 .1-.5.1-.7.1h-.3.6m2.6-.4c.2 0 .3.1.1.1-.1 0-.4-.1-.1-.1m3.2.4h1.1c.3 0 .6.1.6.1s-.2.1-.3.1h-.9c-.4 0-.8-.1-.5-.2m-.4 43.3c-.2 0-.6-.1-.1-.1.2 0 .3.1.1.1m-.9-.5c.1-.1.3-.2.7-.1h.1s-.1.1-.2.1c0 0-.5.1-.6.1-.2.1 0 0 0-.1m-.3.6c-.1 0-.3 0-.1-.1s.2.1.1.1m-6.7-2c-.1.1-.4 0-.8 0h-.8c-.3 0-.6-.1-.8-.1-.1 0-.1.1-.3.1h-.8c-.3 0-.6-.1-.7-.1-.1 0-.1.1-.2.1h-1.2c-.1 0-.2-.1-.4-.1h-.8c-.5 0-1.1 0-1.6-.1-.4 0-.8 0-.8-.1s.8 0 1.1-.1c.1 0 .1-.1.2-.1.3-.1 1.5-.1 2-.1h1c.3 0 .6 0 1 .1.1.1-.7 0-.7.1h.9c.4 0 .7-.1 1.2-.1h.5c.5 0 1.1.1 1.2 0 0 0-.1 0-.1-.1.1 0 .6-.1.7-.1 0 0 .3 0 .3.1.1 0-.1.1-.1.1 0 .4.2.4 0 .5m-.3.6c-.2.1-.2 0-.5 0-.2 0-1.6.1-1.8 0-.2-.1.6-.2 1-.2.2 0 .1.1.3.1.4 0 .5 0 .6-.1h.2c.2.1.4.2.2.2m-2.6-.3c.1-.1.4 0 .6 0 .2 0 .3 0 .3.1 0 0-1.2 0-.9-.1m-1.8 0c0-.1.7-.1.7 0 .1.1-.5.1-.7 0m-5.8-39.3c-.2 0-.4 0-.6-.1h-.7c-.3 0-1.5 0-1.4-.1 0-.1.5 0 .8 0 .1 0 .3-.1.4-.1h2.8c.3 0 .4 0 .4.1 0 0-.1.2-.3.2h-1.4m-1.9 38.2c0-.1.8-.1 1 0h.2c0 .1-1.2.1-1.2 0M166 6.4c-.2 0-.4-.1-.3-.2.2-.1 1.1-.1 1.5 0h.1c.3.1-.2.2-.5.2h-.8m-.8 38.2c-.1 0-.1-.1.1-.1.6.1.2.2-.1.1m1.6-40h2c.2 0 .8.1 1 0 .1-.1-.3-.1-.6-.2-.1 0-.8 0-.8-.1s1.1-.1 1.3-.1h1.2c.1 0 0 .1 0 .3 0 .1 0 .2-.1.3-.1 0-.2 0-.3.1-.5.1-.4.1-.6.1-.1 0-.2-.1-.4-.1h-.6c-.1 0-.3-.1-.4-.1h-1.1c-.3 0-1.5-.1-.6-.2m.2-.4c.3 0 .3.1.2.1-.3.3-.8-.1-.2-.1m.7-.3c-.2.1-.6-.1-.2-.1 0 0 .3 0 .2.1m-.8-.3c0-.1 1-.1 1.3 0h.2c0 .1-.4 0-.6 0-.4.1-.9.1-.9 0m-2-.5c-.1 0-.1 0-.2-.1-.2 0-.7-.1-1-.1h-.8c-.2 0-.4-.1-.4-.1.1 0 .7-.1 1 0h1.4c.1 0 .7 0 .6-.1 0-.1-1.3-.1-1.6-.1h-2.1c-.1 0-.2-.1-.1-.1s.4 0 .7-.1h1.5c.5.1.5.2 1 .2h1.3c.2 0 .3-.1.5-.1h1.6c.5 0 1.4.1 1.8.1.3 0 .4-.1.8-.1.2 0 .5.1.5.1s-.1.1-.2.1c-.2 0-.5 0-.6.1-.2.1 0 .1-.2.1s-.6-.1-.6 0c0 0 .4.1.5.1h1s-.1.1 0 .1c.2.1.4.1.4.1l-.5.1c0 .1 1 .1 1.3 0-.1-.1-.3 0-.5-.1-.1 0 .1 0 .1-.1l-.2-.1c0-.1.2 0 .1-.1-.1 0-.4 0-.4-.1s.4-.1.5-.2v-.1c.1 0 .3-.1.4-.1.1-.1 0-.1.1-.1.3-.1.9 0 1.3 0h1.1c.2 0 .9-.1.7 0h-.1l.2.1-.1.1s.1 0 .1.1c.1 0 .1.1.1.1 0 .1 0 .1-.1.1-.2.1-.2.2-.6.3-.4.1-1.3.3-1.9.3h-1.7c-.1 0-.2.1-.4.1h-1.4c-.2 0-.1-.1-.2-.1s-.3 0-.5-.1c-.3 0-.5-.1-.6-.2-.2-.1 0-.1-.3-.1h-.6c-.1 0 0 .2-.2.2H166c-.4 0-.6-.1-1-.1 0 0 .1-.1.2-.1-.5 0-.4-.1-.6-.2.6.3.4.3.3.3m-3-.1c.1 0 .3-.1.5 0 .2 0 .2.1.4.1s.2-.1.4 0c-.1.1-1 .2-1.2.1.1-.2-.1-.2-.1-.2m1.7.7h-.2c-.1 0 0 .1-.1.1h-.5c-.1 0-.1 0-.1.1h-.2c-.1 0 .1.1 0 .1h-.6.5c-.2.1-.3.1-.5.1-.1 0 0 0-.1.1 0 0-.1 0-.1.1 0 0 .1.1 0 .1h-1c-.4-.1-.2-.2-.5-.2-.3-.1-.8-.1-1.1-.1h-.5c0-.1.6 0 .7 0h1.9c.1 0-.3-.1-.3-.1 0-.1.3 0 .5-.1.1 0 .2-.1.3-.1.2 0 .5 0 .5-.1 0-.2-1.5-.1-1.6-.2 0 0 .1 0 0-.1h-.7c-.3 0-.7-.1-.7-.1s.4 0 .6-.1h1.1c.1-.1-.5 0-.7-.1-.1-.1.2-.1.3-.1.2 0 .3 0 .5-.1 0 0-.4 0-.4-.1.1-.1.6 0 .6 0h-.1.6c-.6.1.2.2.3.3.1 0 0 .1.1.1.3.1.6 0 .9 0 .1 0 1.3 0 1.3.1-.1.4-.5.4-.7.4M159.9 44h-1.7s.2-.1.3-.1c0-.1-.2-.1-.2-.1.1-.1 1.2-.1 1.5 0 .5 0 .4.1.1.2m1.5-41.5c.2 0 .5.1.2.1-.2 0-.6-.1-.2-.1m2.9 42.7c0 .1-.5.1-.8 0 .1 0 .8-.1.8 0m-.4.4c-.1 0 .1-.1.2-.1.4.1 0 .2-.2.1m.9-.3c.2 0 .3.1.3.1-.2.1-.7-.1-.3-.1m-8.1-41.8c-.1.1-.9 0-1.1 0-.2 0-.1.1-.2.1 0 0-.5 0-.6-.1-.1 0 .1 0 .2-.1-.2 0-1 0-1-.1s.8 0 1 0c.5 0 1.1 0 1.5.1.1.1.2.1.2.1m-.2.2c-.1 0-.5-.1 0 0-.1 0 .2 0 0 0m-1.2 40.1h.2c0 .1-.5 0-.2 0m-1.2-39.7c-.1 0-.6 0-.7-.1 0 0 .1-.1.2-.1h.9c.1 0 .4 0 .4.1.1.1-.6.1-.8.1m-1.3 38.8h-1.6c-.3 0-.2.1-.4.1-.1 0-.2 0-.4-.1-.3-.1-.5-.1-.5-.1 0-.1 1.3 0 1.4 0h.7c.2 0 .5 0 .8.1.1 0 .4 0 0 0m-1.4.9c.1-.1.3-.1.4 0 .2 0 .1.1.2.1h.6c-.5.1-1.5 0-1.2-.1m-4.5-40h-1c-.4 0-.7 0-1-.1h.5c.1 0 .4.1.5 0 .1-.1-.8-.1-.8-.1 0-.1.5 0 .7 0h1.3c.1 0 .4.1.3.1 0 0-.4.1-.5.1m-4.8 39.6h-1.4c-.2 0-.8 0-1-.1-.1 0-.3-.1-.3-.2l-.2-.1c.2-.1 1.1-.1 1.5-.1h1.6c.5.1-1.1.1-1.5.1l-.7.1s.3.1.5.1h.7c.4 0 1.9.1.8.2m-6.9-.3h-1.8c-.6 0-.6.1-1.4 0-.3 0-.7 0-.6-.1 0-.1.3 0 .4 0h2.8s.4 0 .6.1c.1-.1.3-.1.2 0h-.2m-8-1c-.1 0 .1-.1.2-.1h.2c.7 0-.2.1-.4.1m-.2.4h-.3c-.2 0-1.5 0-1.6-.1 0-.1.9-.1 1.1-.1h.5c.4.1.8.2.3.2m-1.8.8c-.4 0-.8.1-1.2.1h-.4c-.4 0-1.2.1-1.4 0-.1 0-.1-.1.1-.2h2.8l.6.1h-.5m-9.5-1.2h-1.9c-.4 0-1.1.1-1.6 0-.7 0-.1-.1.4-.1h1.3c.4 0 .4-.1.9-.1.3 0 .5 0 .9.1.1 0 .4 0 .4.1h-.4m-.9.1c0-.1.5-.1.7 0 .5.1-.7.1-.7 0m-.1.7c0-.1.4 0 .6 0-.2.1-.7 0-.6 0m-1.6 1.8c.1.1.3.1.4.1 0 .1-.5.2-.6.2-.2 0-.2-.1-.4-.1h-2.6c.2.1.9 0 1 .1 0 .1-1 0-1.2 0-.2 0-.4-.1-.7-.1h-.7c-.3 0-.6-.1-.7-.1-.4 0-.6.1-1 .1h-.3c-.2 0-.4.1-.5.1-.1 0-.2 0-.3-.1-.1 0-1 .1-1-.1 0-.1 1-.1 1.1-.1h1.7c.1 0 .5-.1.6-.1h1.4c.3 0 .5.1.8.1h.8c.4 0 1.1 0 1.4-.1.2-.1-.2-.1-.4-.1-.1 0-.2-.1 0-.1.2-.1.6 0 .9 0 .1 0 .9 0 .9.1 0 .2-.4.2-.6.2m-6.3.5c-.2 0-.2-.1 0 0 .2-.1.1 0 0 0m-.5.2c-.2 0-.9 0-.9-.1-.1-.1.4-.1.6-.1.2 0 .5.1.3.2m-.7 0h.2c0 .2-.6 0-.2 0m-1.1.4c-.1-.1.1-.1.2-.1.5 0 0 .2-.2.1m-.3-.5c-.2 0-1.2 0-1.2-.1s.9 0 1.1 0h.4c.2.1.2.1-.3.1m-1.7-.3c-.2 0-.3-.1-.5-.1h-.6c-.2 0-.3.1-.5.1-.1 0-1.2 0-1.2-.1 0 0 .6-.1.7-.1h3.7-.7c-.5.2-.7.2-.9.2m-1.6 1.5c-.1 0-.7 0-1-.1-.1 0-.2-.1-.2-.2 0 0 .2 0 .2-.1.1 0-.2-.1-.1-.1.3-.1.7 0 1.1.1h.2c.1.2 0 .4-.2.4m4.3-1.8c.3 0-.1.1-.1 0h.1m1.1 0h.3c.1 0 .2-.1.2-.1h.2c.2 0 .4 0 .3.1-.1.1-.8.1-1 0-.5 0-.4 0 0 0m.5-2.5h-1c-.4 0-.6-.1-.9-.2-.2 0-.5 0-.5-.1-.1-.1 1.3-.1 1.6-.1h2.1c.1 0 .2-.1.4 0 .4 0 0 .2-.4.1 0 .1.3.1.1.2h-.7c-.2.1-.5.1-.7.1m-4.1-1.1h-4.6c-.9 0-1.6 0-2.5.1H94c-.1 0-1.4 0-1.3-.2 0 0 .3-.1.4-.1h.4c.1 0 .3.1.4.1.3 0 .6-.1.7-.2.2-.1.2-.2.3-.2h.8c.1 0-.2.1-.2.1h1c.2 0 .4.1.5.1h.9c.1 0 .3-.3.6-.3.2 0 .4.1.7.1h1.7c.5 0 1.1.1 1.4.1.2 0 .3 0 .5-.1h1.6c.1 0 .4 0 .4.1 0 0-.4.2-.5.2-.3.3-1 .2-1.6.2m.3 1.1h-2.2c-.4 0-.7.1-1.2.1h-2.3c.1 0 .2 0 .2-.1-.4 0-.7-.2-.6-.2 0 0 .3-.1.4-.1.2 0 .5.1.7.1.2 0 .1-.1.3-.1.2 0 .8.1 1 .1.1 0 .7 0 .9-.1.1 0 .1-.1.3-.1.2 0 .2.1.4.1h1.4c.5 0 1-.1 1.4 0 0 .1-.2 0-.3.1.3 0 .5 0 .8.1-.4.1-.8.1-1.2.1m-8.7-.5c-.1 0-.2.1-.3.1-.3 0-1 .1-1.3 0-.3-.1.3-.2.6-.2h1.3s.2 0 .2.1h-.5M91 39.3c0 .1-.8 0-.3-.1.1 0 .3 0 .3.1m.3 1.7c-.2.1-.4 0-.8.1 0 .1.5 0 .5.1s-1 0-1.6.1h-.8c-.6 0-1.2.1-1.3-.2 0 0 0-.1.1-.1.3-.1.7 0 1.1 0h1.2c.1 0 .2-.1.3-.1h.4c.4 0 .4-.1.7-.1.3 0 0 .1 0 .1.1.1.4.1.2.1m-4.5-1.5h-1.6c-.3 0-.5-.1-.8-.1.4-.1.9-.1 1.4-.1.2 0 .4-.1.5-.1.1 0 .2 0 .4.1h.6c.2 0 .5.1.5.1.2.2-.8.1-1 .1m0 1.5c-.3.1-1-.1-1.4 0-.1 0-.1.1-.2.1h-.3c-.2 0-.3 0-.5.1-.2 0-.4.1-.7 0h-2.3c-.2 0-.3.1-.5.1h-.5c-.3 0-.5.1-.8.1.2.1 1.3 0 1.3.1 0 0-.2 0-.5.1h-.5c-.6 0-1.1-.2-.3-.2-.4 0-.4-.1-.5-.1-.1 0-.2-.1-.2-.1s-.1-.1 0-.1c0 0 .2-.1.1-.1h-.8c-.3 0-.6.1-1 .1-.8 0-1.6-.1-2.3 0-.2 0-.3.1-.5.1h-2c0 .1.9 0 1.3.1.2 0 .1.1.3.1h1.4c.1 0-.3.1-.4.1h-5.3c-.2 0-.4.1-.7.1-.3 0-.4 0-.1-.1.1 0 .3-.1.3-.1h-.8c-.1 0 .2.1.2.1s-.2 0-.3.1l-.1.1c-.4.1-1.4.1-1.9 0 .2-.1.4 0 .6-.1h-.7c-.1 0 0-.1-.2-.1-.2-.1-.5 0-.8 0 0 .1.4 0 .4.1-.2.1-.5 0-.7 0h-.7c-.2 0 0-.1-.3-.2s-.6 0-1 0c.1-.1.8 0 1-.1.2-.1-.5-.2-.9-.2s-1.3.1-1.8 0c.5-.2 1.5-.1 2.5-.2h2.4c.3 0 .6-.1 1-.1h.5c.5 0 1-.1 1.6-.1h.7c.1 0-.1.1 0 .1h2.3c.1 0 .1-.1.2-.1.3-.1.7 0 1.2 0h1.6c.2 0 .1-.1.2-.1 0 0 .6-.1.7-.1h2.5c.2 0 .7 0 .9.1l.1.1h6.3c.2 0 .7-.1 1 0 0 .3-.1.3-.1.3m-2.1.4c-.1.1-.4 0-.8 0 .3-.1.9-.1.8 0m-19.1.8h-1.1c-.1 0 .2-.2.5-.2.1 0 .2 0 .4.1.3 0 .8 0 1 .1h-.8m-1.7-.5c0-.1.9-.1 1-.1H66c-.3.1-.6.1-1.1.1 0 0-1 .1-1 0m-1.7-.6c.5 0-.1.1-.2.1s-.1-.1.2-.1m1.3 1.3c-.2 0-.3 0-.6.1-.6.1-1.4 0-1.6.1-.3 0-.3.1-.4.1h-.5c-.1 0 .1-.1 0-.1-.1-.1-.5-.1-.2-.2h3.3m-4.5-.8c-.1 0-.2-.1-.3-.1h-.9c-.5 0-.7-.1-1.2-.1 0-.1.4 0 .5-.1l-.3-.1c-.2 0 0 0-.2.1-.2 0-.3 0-.5.1-.1 0-.2.1-.3.2-.1 0-.9.1-1.2.1h-.5c-.1 0-.1.1-.1.1-.2.1-.7 0-1 0-.4 0-.7 0-1.1.1-.1 0-.3.1-.3.1-.2 0-.7-.1-.7-.1s.1 0 0 0l-.1-.1.2-.1-.1-.1c-.2 0-.6.1-.8 0-.6 0-.7-.2-.3-.3.2-.1.9-.1 1.3-.1h1.4c.3 0 .7-.1 1.1-.1h3.1c.2 0 .2.1.3.1.4 0 .4 0 .8-.1h.7c.1.1-.5.1-.6.1-.1 0 .1.1 0 .1-.1.1-.3 0-.4.1h.8c.2 0 .7 0 .7-.1.1-.1-.3-.1 0-.2s.4.1.7.1c.3 0 1.5-.1 1.6.1 0 0-.1.1-.3.2h-.6c-.4.1-1.1.1-1.4.1m-2.6.3c.5 0 .3.2-.1.1-.2 0-.2-.1.1-.1m1.5.7h-1.5c-.4 0-.8.1-1.2 0-.2 0-.2-.1-.3-.2-.3-.1-.7 0-1-.1.2-.1.5-.1.8-.1h.2c.2 0 .5.1.7.1h.7c.3 0 .2-.1.7-.1.2 0 .5 0 .7.1.1 0 0 .1.1.1s.5 0 .5.1c.1.1-.3.1-.4.1m-2.2.2h-1.1c-.5 0-1.5.1-1.9 0l-.6-.1c-.1 0-.2-.1-.4-.2-.1 0-.4-.1-.5-.1 0 0 0-.1.1-.2.3-.1 1.1 0 1.6 0h.9c-.3.1-.4.1-.8.1h-.3s.1.1.2.1c.3.1.7.1 1.2.1s1.3-.1 1.8 0c.1.2.3.3-.2.3m-1.3.4h.2c-.1.1-.6 0-.2 0M49.1 42h-.7c-.1 0 .1 0 0 .1-.1 0-.8.1-1 .1-.1 0-.1-.1-.2-.1h-.6c-.2 0-1.6 0-1.4-.1.1 0 .6 0 .6-.1 0 0-1 0-.4-.2h1.7c.3 0 .6-.1.9-.1h.9c.3 0 .8-.1.9 0 0 0-.1.1-.3.2.2.1.5 0 .6.1-.1.1-.5 0-1 .1m-3.1.6c0-.1.4-.1.5 0 .8 0-.5.1-.5 0m-.3.3s.6 0 .6.1-.2 0-.4 0c-.8 0-1.7.1-2.5.1H43c-.1 0-.4.1-.4.1h-.4c-.3 0-.8.1-1.1 0-.3-.1-.1-.1-.3-.1-.3-.1-.6 0-.9 0-.3 0-.5 0-.8.1-.2 0-.3.1-.4.1h-.6c-.4 0-.9.1-1.2.1h-2.1c-.2 0-.9 0-.9-.1s.8-.1 1-.1c.2 0 .4-.1.5-.1h.6c.2 0 .2-.1.4-.1s.3.1.6.1h1.4c.2 0 .4-.1.6-.1.1 0 .3 0 .4.1h.4c.3 0 .5 0 .7-.1h2.6c.1 0 .3 0 .4.1h2.2c.1 0 .7 0 .7.1 0-.3-.5-.4-.7-.3m-5.7.7c-.1 0-.3.1-.5.1-.1 0-.5 0-.5.1s.5.1.6.1l-.6.1c-.2 0-.2.1-.4.1h-2.4c-.2 0-.4.1-.6.1H34c-.1 0-.2-.1-.3-.1-.4-.1-.9-.1-.8-.2 0 0 .5-.1.7-.1.1 0 .5 0 .6-.1.4-.1.2-.2.6-.3.1 0 .5-.1.8-.1.4 0 .6-.1.8 0 .2 0 .2.1.4.1.4.1.7 0 1.1-.1.1 0 .2-.1.3-.1.2 0 .3.1.5.1.4 0 .6-.1 1-.1h.1c.2.3.3.4.2.4M32.4 2.7c-.1 0-.1.1-.3.1-.2 0-.5.1-.8.1h-.8c-.1 0-.1-.2 0-.2.2-.1.8-.1.9-.1h.5c.5 0 .8-.1 1.4-.1.2 0-.1.1 0 .1.4 0 1-.1 1.5-.1.3 0 .7.1.2.1h-.4c-.4 0-.7.1-1.1.1h-1.1m-.6.9c-.1.1-.9-.1-.2-.1.2 0 .3 0 .2.1m-1.1.2c0-.1.5-.1.7-.1.8.1-.7.2-.7.1m-.4-.8s.5-.1.6-.1c.7.1-.6.2-.6.1m0 .4c-.2 0-1.2-.1-1-.3.1-.1.3-.1.5-.1s.1 0 .3.1c.1 0 .3.1.3.1.1.1 0 .2-.1.2M29.1 20h.5c0 .1-.6.1-.5 0m6.5-17.2c.3 0 .3.1.1.1-.3.1-.9 0-.9-.1h.8m-2 39c.3-.1.6 0 1 0 .2 0 .3-.1.4-.1h.6c.1 0 .5.1.6.1.1 0 .3.2.2.2 0 0-.5.1-.6.1h-1.1c-.3 0-.9.1-1.1 0-.1-.1.7-.2 0-.3M37 4h.2c.2 0 .4.1.2.1-.1.1-.4 0-.7 0h-.8c-.2-.1.9-.1 1.1-.1m1.3-.6h.3c.4 0 .7 0 1-.1h-2s.2-.1.3-.1c.1 0-.2 0-.2-.1.2-.1.5-.1.8-.1h.3c.4.1.8 0 1.2 0 .1 0 .3.1.4.1.1 0 .1-.1.3-.1.1 0 .5 0 .8-.1h2.8c.2 0 .4-.1.5-.1.1 0 .6 0 .7.1 0 0-.1.2-.2.2-.3.1-1.1.1-1.6.1h-.4c.1-.1.2-.1.4-.1h-2c-.3 0-.3.1-.6.1-.2 0-.1 0-.3-.1-.2 0-.2.1-.3.1-.1 0-.5.1-.5.1s.6.1.5.2c-.1.1-.6.1-.8.1-.1 0-.1-.1-.2-.1h-2.4c-.1 0 .9 0 1.2-.1m7.6 0c.1 0 .4.1.4.1 0 .1-.9.1-1.2.1h-.2c-.4 0-1.1.1-1.4.1h-1.2c-.3-.1 1-.2 1.3-.2h.6c.2 0 .3-.1.5-.1h1.2m.7.3h.2c-.1.1-.6 0-.8.1-.2 0-1 .1-1 0s.3-.1.6-.1c.3-.1.6-.1 1 0m1.2-.9c-.3-.1.3-.1.6-.1h1.4c.5 0 .7-.1 1 0 0 .1-.2 0-.3.1-.1 0 0 .1 0 .1-.2.1-.5.1-.9.1s-.7.1-1.2.1h-.9c-.1 0-.4-.1-.4-.1.3-.2.7-.1.7-.2m1.7-.5c.1 0 .7.1.7.2 0 0-.5.1-.7.1-.3 0-.6-.3 0-.3m-.4 1.3s-.1.1-.2.1h-.3c-.3 0-.6.1-.7 0-.1-.1.7-.1 1-.1h.2m-.6-.5c-.1-.1.7-.1 1-.1h.3c.1.1-1.2.2-1.3.1m.2.1H50s-.6.1-.7.1h-.8c-.1 0-.8.1-.8 0 0 0 .8-.1 1-.1m-3.9 38.2c.3-.1 1.2-.1 1 0-.2.1-.8 0-1 0m.1.1c.4 0 .3.2-.1.2s-.5-.3.1-.2m-.7-.9h-1.4c-.1-.1.2 0 .4-.1.1 0 .1-.1.3-.2h.6c0 .1 0 0-.3.1.3.1.9 0 1.3.1.8.1-.1.1-.4.1h-.5m-5.3-.2h1.2c-.1.1-.3.1.1.1h.5s.4 0 .3.1c-.1 0-.7 0-1.3.1-.4 0-1 0-1.2.1-.2 0-.2.1-.5.1-.2 0-.7-.1-.7-.1 0-.1.4-.1.4-.1 0-.1-.5-.1-.8-.1.6-.3 1.3-.3 2-.2M38 4h.5c.6 0-.5.1-.5 0m5.9 37.5c-.3.1-.4 0-.6.1-.3.1.3.1.2.2-.1.1-1 .1-1.2.1H42c-.3 0-1 .1-1.3.1h-2.3c-.1 0-.2.1-.3.1h-.8c-.3 0-.9 0-.7-.1.1-.1.2 0 .4-.1h.4c.1 0 .3 0 .4.1h1.1c.3 0 .8 0 .9-.1.3-.1.2-.1.4-.2h1.6c.1 0-.2-.1.1-.2h.2c.1 0-.1-.1 0-.1h2.1c-.3.1-.7.1-1 .1h.7m2.9-1.4c-.2 0-.5.1-.8 0 .3-.1.5-.1.8 0m-.5-.9c.5 0 .3.2-.1.2-.2-.1-.3-.2.1-.2m5-.1c.5 0 .2.1-.2.1-.2 0-.4 0-.6-.1h.8m-4 1.2c.3-.1.3.1.7.1.1 0 .1-.1.3-.1h.8c.3 0 .4.1 0 .2-.2 0-.5.1-.7.1-.1 0-.6 0-.8-.1-.1 0-.5-.2-.3-.2m.2-.3c.6 0-.2.1-.3 0h.3m2.1 0h.3c.6 0-.2.1-.3 0m-.1-.8h-.7c-.4 0-.8-.2-.1-.2.2 0 .4 0 .5.1.2.1.4 0 .8 0 .4.1-.1.1-.5.1m4.3-35.8c0 .1-.9-.1-.3 0h.3m-.2-.3c.5 0 .7 0 1.2-.1H56c.3 0 .4-.1.7 0-.1 0-.3 0-.4.1-.1 0-.3.1-.4.1H55c-.1 0-.2 0-.4.1-.4 0-1.5.1-1.5 0-.1-.2.3-.2.5-.2m1.3-.4c-.1.1-.7.1-1 .1-.2 0-.3.1-.4.1-.4 0-.6-.1-.2-.2-.7-.2 1-.2 1.6 0m5.8 0s0-.1.1-.1h.9s-.1 0 0 0h.3s-.5.1-.4.1h-.8l-.3-.1c-.1.2 0 .2.2.1m1.8.5s-.3.1-.5.1h-.9c.1-.1.3-.1.6-.1.2-.1.8-.1.8 0m2.3-.9c.5 0-.1.1-.2 0h.2m.6.3c-.2.1-.5 0-.8 0 .1-.1.5-.1.8 0m.2-.3s.1 0 0 0c.1-.1 0-.1.1-.2.1 0 .3 0 .3-.1 0 0-.2-.1-.2-.2.1-.1 1.2-.1 1.5-.1h.6c.1 0-.1-.1-.1-.2.2-.2.9-.2 1.5-.2h.4c.3 0 .7.1.2.1-.2 0-.8 0-.9.1-.1 0 0 0 .1.1l-.1.1.2.1s-.2.1-.2.2h.6c.3 0 .4.1.7 0h1c.2 0 .1 0 .1.1 0 0 .2.1.1.1-.1.1-.2 0-.4.1-.2 0-.3.1-.4.1h-1.1c-.1 0 0 0-.1-.1h-.3c-.3 0-.5-.1-.7 0-.1 0-.2.1-.5.2-.4.1-1 0-1.6 0H66c.1-.1-.5-.1-.4-.2m4.9.1h.2c.6 0-.3.1-.2 0m-2.2.6h-1.8 1.4c.1 0 .4-.1.4 0m-.3-.3h-.2c-.1 0-.1.1-.2.1-.3.1-.9.1-1 0-.2 0 .2-.1.1-.2 0 0-.6 0-.6-.1l1.1-.1h1.2c0 .1 0 .2-.4.3M55.6 40.1h2c.2 0 .3 0 .5-.1h2.7c.1 0 .1-.1.3-.1.1 0 .2.1.4.1.1 0 .4-.1.6-.1h2.7c.3 0 .6.1.9.1h.3s-.3 0-.4.1h-9.1c-.1 0-1.1.1-1.1 0h.2m-1.2-.3H56c.7.1-.3.1-.7.1h-.5c-.3 0-1.1.1-1-.1 0 .1.4 0 .6 0m3.9-.9c-.2.1-.8 0-1.1-.1.3 0 1.6 0 1.1.1m3.7.7h1.8c.1 0 .3 0 0 .1h-.3c-.2 0-.2.1-.3.1h-1.4c-.2 0-.7-.1-.7-.1-.1 0 .6-.1.9-.1m3 0c.7.1-.6.2-.6 0h.6m2.9.4c0 .1-1.4 0-.6-.1h.3c.2.1.2.1.3.1m.1-.3c-.2 0-.1-.1-.1-.1.1 0 .2.1.1.1m-.4-.9c-.2 0-.7 0-.9-.1-.3 0-1.2 0-1.3-.1-.1-.1.8-.1 1-.1h1.2c.1 0 .2 0 .2.1.3 0 .6 0 .7.1-.2.1-.5.1-.9.1M69 40c-.3 0-.2-.1 0 0 .3-.1.2 0 0 0m-.3-1.4c.2-.1.6-.1.8 0-.3 0-.7.1-.8 0m3-.1h1.7c.2 0 .5.1.7.1h.9c0 .1-.2 0-.4.1-.5 0-.7 0-1.3.1h-.8c-.2 0-.2-.1-.5-.1h-.7c-.7-.1-.1-.2.4-.2m3.3 2c0 .1-.5 0-.2 0h.2m-.4-.7h-1.1c0-.1 1.2 0 1.4 0 .2 0 .4-.1.7-.1h.5c.4 0 .7-.1 1 0h.2c.1.1-.8.1-1.1.1h-.6c-.5.1-.7 0-1 0M72 2.1c.2 0 .2 0 .1.1-.1-.1-.3-.1-.1-.1m.6-.1h.4c0 .1-1 0-.4 0m2.2.9c.2 0 .7-.1 1 0h.1c0 .1-.3.1-.6.1-.1 0-1 0-1-.1-.1 0 .5.1.5 0m.5-.6h2.8c.4.1.1.2.6.1-.1 0-.3-.1-.3-.1 0-.1.8-.1 1-.1.3 0 .9-.1 1.1 0 .1.1-.4.1-.3.2.1 0 .6 0 .8.1h1.7c-.2 0-.4.1-.6.1h-2.6c-.5 0-1.2-.1-1.5-.1-.1 0-.1.1-.2.1s-1 .1-1.2.1h-.2c-.1 0-.2-.1-.4-.1h-.4c-.1 0-.1-.1-.2-.1.1-.1-.8-.1-.1-.2m7.4-.3c.3 0 .3 0 .3.1-.1.1-.7 0-.6 0 0-.1.2-.1.3-.1m.9.2h.2c0 .1-1.4.1-1.4 0h1.2m.5.3c-.1.1-.9.1-1.1 0v-.1c.1-.1.5-.1.7 0 .2 0 .4 0 .4.1m.4.3h3.4c.1 0 .4-.1.5-.1.2 0 .4.1.4.1.2.1-.3.1.1.2.2 0 .8.1 1.1 0 .1 0 .5-.1.5-.1 0-.1-.4 0-.5-.1h.8s.1-.1.2-.1h1.2s.4 0 .3-.1h-1c-.2 0-.4.1-.7.1-.1 0-1.2 0-.8-.1h3.3c.2 0 .1 0 .1.1l.1.1h-.3c-.1 0-.1.1-.1.1-.4.1-1.1 0-1.3.1.1-.1.3 0 .4 0 .1 0 .5.1.8.1 0 0 .8-.1.7 0 0 .1-.3 0-.6 0h-.8c-.2 0-.3 0-.5-.1h-.6c-.2 0-.2.1-.4.1h-4c-.2 0-.3.1-.5.1h-3.4c.1-.1.4-.1.7-.1.3 0 .3-.1-.1-.1h-.4c-.1 0-.5-.1-.6 0-.3 0 .2.1-.2.1h-.4s.1-.1-.1-.1h-.5c-.3 0-.3-.1-.5-.1-.3 0-.3.1-.7.1-.3 0-.8 0-.9-.1 0-.1.4-.1.5-.1h4.8m6.2-1.1h.4c0 .2-.8 0-.4 0m.7.4h.3c.1 0-.4.1-.7.1-.2 0-.6-.1-.6-.1-.1-.1.8 0 1 0m-1.3-.7h2.1c.2 0 .4 0 .5.1 0 0 .2 0 .2.1l-.5.1h-1.2c-.2 0-.3.1-.6.1h-.7c0-.2.1-.2.2-.4 0 .1 0 0 0 0m4.6 3.1h.2c0 .1-.7 0-.2 0m-4.2 1c.2 0 .3-.1.4-.1.3 0 0 .2-.4.1m1.2-2h-.5c-.1 0-.6-.1-.2-.1h1.1c0 .1-.2.1-.4.1M78.5 5.4c0-.1.6 0 .8 0 .1 0 .5.1.4.1-.1 0-1.2 0-1.2-.1m-2-2.6c.1-.1.3 0 .5 0s.4-.1.6 0h-1.1m1.5.1c.2 0 .9 0 .8.1-.1.1-1.3 0-1.5 0h-1c.3-.1 1.1-.1 1.7-.1m2.9 36.5H80c-.1 0-.5 0-.5-.1s.5 0 .8 0c.3.1.5.1.6.1m3.2-2.1h-.8c0-.1.3 0 .5 0h.6c.1 0 .4.1.2.1s-.3-.1-.5-.1m-.7 2.1c-.2.1-.7.1-.7 0h.7m0-.8c-.2 0-.5 0-.7-.1-.5 0-.9 0-1.3-.1 0-.1.3-.1.4-.1h1.9c.2 0 .6 0 .7.1 0 .1-.9.2-1 .2m5.2-.2c-.2.1-.7-.1-.2-.1 0 0 .3.1.2.1m7.8-36c.3 0-.1.1-.2 0h.2m-2.9 36.2h.8c.1 0 .4-.1.4-.1.1 0 .2 0 .3.1.2 0 .5 0 .5.1-.2.1-.4 0-.7 0h-.7c-.2 0-1.2 0-.6-.1M97 5.1h.2c0 .1-.7 0-.2 0m1-2.8h.7c.1 0 .3 0 .3.1s-1.5 0-1.5 0c.1-.1.3-.1.5-.1m2.3.4c.1 0 .1-.1.2-.1h.7c.1 0 .2.1.3.1.3 0 .4 0 .7-.1h.3c.3 0 .7-.1 1-.1.1 0 .1 0 .2.1h.6c.2 0 .2 0 0 .1-.1 0 .1.1-.1.1h-1.4c-.2 0-.3 0-.4-.1h-1.6s.1.1 0 .1c-.2.1-.8.1-1.1 0-.1 0 0-.1-.1-.1-.2-.1-.3 0-.2-.1 0 .1.7.2.9.1m.5-.4c.1 0 .2 0 .3-.1h.8c.2 0 .4.1.7.1h1.5c0 .1-.3 0-.4 0h-2c-.4 0-.9 0-1.5-.1.1.1.4.2.6.1m2.8 1.3l.6-.1c1.1 0-.6.2-.6.1m-.1.6h1.2s-.6.1-.8.1c-.2-.1-.4-.1-.4-.1m-3.9-.9h.2c.1.1-.6 0-.2 0m-1 .1c.5.1-.3.1-.4 0h.4m-.5-.4h.3c0 .1-.6.1-.3 0m10.4 37.2c-.2.1-.6-.1-.1-.1.1-.1.3 0 .1.1m.2 1.8s.1 0 .2-.1h1.1c.2 0 .4-.1.6-.1.1 0 .4.1 0 .1h-.3c-.4 0-.6.1-1.1.1-.4.1-.8.1-.5 0m-.5 1h-.7c0-.1.7-.1.9-.1h.5c.1 0 .2 0 .2.1h-.9m.5 1.1c.1 0 .4 0 .4.1s-.9.1-.8 0c0-.1.1-.1.4-.1m3.6-1.2c.1 0 0 .1.1.1h.4c0 .2-1.4.2-1.2 0 .1 0 .4-.2.7-.1m.7-.6h-1c.1-.1.4 0 .7 0h.7c.4 0 .1.1-.2.1 0 0-.1-.1-.2-.1m-1.2 2c-.3-.1 0-.1.2-.1.4 0 0 .2-.2.1m0-.8h-.4c-.1 0-.2-.1-.1-.1.1-.1.4-.1.8-.1.3 0 .7-.1.9 0 .1 0 .3 0-.1.1-.1.1-.6.1-1.1.1m-6.6-39.8c.1 0 .7.1.7.2s-.9 0-1.1 0h-.4c-.4 0-.5-.1-.9-.1h1.2c.1-.1.3-.1.5-.1m.6-1h.5-1 .5m-.3.9s.2-.1.3-.1c.4 0-.2.2-.3.1m.1 1.4h.5c.6.1-.6.1-.5 0m2.5-1.4c.2 0 .3.1.2.1-.2 0-.5-.1-.2-.1m.5-.4h.2c0 .1-.6 0-.7 0 0 .1.3 0 .5 0m1.2.5c.2 0 .4.1.3.1-.1.1-1.3.1-1.3 0 .1 0 .8-.1 1-.1m2.8 1.3h.2c0 .1-.7 0-.6 0h.4m.2-3.2c-.4 0-.6 0-.8-.1-.2-.1 0-.2.4-.1.1 0 .1.1.2.1h.7c.4 0 .6-.1 1.1 0 .2 0 .3.1.1.1-.1 0-.4.1-.6.1-.2 0-.7 0-1.1-.1m2.7 1.9h1.4c-.3.1-.8.1-1.2 0h-.7.5m1.2-.3c.1 0 .3-.1.4-.1h.5c.1 0 .1.1.2.1h.5c-.2.1-.4 0-.8 0-.2.1-.9.1-.8 0m-1.4 2.4h.8c0 .1-.8.1-.8 0m3.5-2.1c.1 0 .1-.1.2-.1.3 0 .2.2-.2.2.4 0 .6.1.4.2h-.6c-.2 0-.5.1-.6.1-.1 0-.5 0-.8-.1h-2c-.2-.1.5-.2 1-.1.2 0 .3.1.4.1h1.8c0-.1-.6 0-.8 0-.1 0-.2 0-.3-.1-.1 0-.3 0-.1-.1h1.1c.2-.1.4-.1.5-.1m0-.5s.1 0 0 0c.1 0 .2.1 0 0 0 .1-.3 0 0 0m2.1 2.6h.5c0 .1-1.4.1-.5 0m-.4-1.8c.1-.1.8 0 .9 0h.3l-.5.1c-.2 0-.8 0-.7-.1m1.5-.3h.2c.2 0 .8 0 .7.1-.1.1-1.1 0-1.3 0-.1-.1.2-.1.4-.1m3 .5h-.5c-.1 0 0-.1.3-.1.1 0 .2 0 .2.1m.9 1.1h-.8c0-.1.5 0 .6 0h.2m-1-1.6h1.1c0 .1-.7 0-1 0-.3 0-1 0-1-.1.1 0 .8.1.9.1m1.5 1.6s.2 0 0 0c-.1.1-.3 0 0 0m1-1.6h.8c.2 0 .4.1.2.1h-1.6c-.2 0-.4 0-.4-.1h1m.7-.1h.2c-.1.1-.9 0-.9 0 0-.1.6-.1.7 0m.6 1.8c0 .1-1.8-.1-.6-.1h.4c0 .1.2.1.2.1m-.3-1.1h-.2c-.1 0-.2.1-.3.1h-.5c-.3 0-.5 0-.5-.1-.1-.1-.2 0-.2-.1l.3-.1s-.3 0-.2-.1c.5 0 1 0 1.5.1-.2.1-.7-.1-.9 0h1.2c.1 0 .5 0 .5.1-.1.1-.5.1-.7.1m.1-1.2h1c.1 0 .3 0 .3.1s-.8.1-1 .1h-.4c-.2 0-.9-.1-.9-.1.1-.1.8-.1 1-.1m1.7 2.3c0 .1-.8.1-.9 0 .2 0 .9-.1.9 0m.1 1.4h-.9c0-.1.6 0 .8 0h.1m.9-3s0-.1 0 0c.2-.1.9-.2 1.1-.1 0 0-.2.1-.1.1h.3c.1 0 .1.1.4.1.1 0-.1-.1-.1-.1.1-.1.9 0 1 .1 0 .1.2 0 .1.1s-.4 0-.6 0h-1.2c-.3 0-.8 0-1.2-.1-.1-.1.1-.1.3-.1m.8-.6c.1 0 .4-.1.7 0 .4 0 .5.1.1.2l-.3.1c-.2 0-.6 0-.6-.1-.1 0 .1-.2.1-.2m2.3 2.3h.3c.2 0 .4 0 .3.1-.2.1-1.4-.1-.6-.1m.2.6c.1 0 .2 0 .1.1-.2-.1 0-.1-.1-.1m1-3.6c-.3 0-.5-.1 0 0m1 2.6c0 .1-.6.1-.9 0 .2 0 .9-.1.9 0m.7-2.1c.8.1-.4.1-.4 0h.4m1.5 3.3s-.6 0-.6-.1.3 0 .5 0 .4.1.1.1m-.8-3.9h1.6c.2 0 .3.1.1.1h-.2c-.1.1.4.1.2.2-.1 0-.9 0-1.1-.1-.2 0-.7-.1-.6-.2m3.9.7h.2c0 .2-.5.1-.2 0m1 1.4c.3 0 .4.1.2.1s-.5-.1-.2-.1m.7 1.4c.1.1-.9 0-.3 0h.3m2.7-.3h.3c.1.1-.4 0-.7 0h-1.4c-.3 0-.6 0-.6-.1h1c.2 0 .3.1.4.1h1m-.6-.2h.2c.3-.1-.3 0-.2 0m-.2-.8c0-.1 1 0 .9 0 0 .1-.8.1-.9 0m-1.3.6c.1 0 .5.1.7.1.1 0 .4 0 .4.1s-.5.1-.7.1c-.2 0-.2-.1-.4-.1h-.8c-.3 0-.4-.1-.4-.1 0-.1.9-.1 1.2-.1m-.2-.7h.3c0 .1-.7 0-.7 0h.4m5.4.2c0 .1-.5 0-.7 0 .1-.1.7 0 .7 0m2.3-1.3h.2c-.1.1-.8-.1-.2 0m.9 1.4c.2 0 .3.1.1.1-.1 0-.3-.1-.1-.1M98.3 45.6h.3c.6 0-.3.1-.3 0m0 .7h-.4c-.2 0-.2.1-.3.1-.1 0-.5.1-.7.1h-1.1c-.4-.1-.3-.3 0-.4.3-.1.7-.1 1.2-.1h.3c.2.1 0 .1.3.2h.5s.4 0 .4.1h-.2m-14.8 0c-.3.1 0 .1-.7.1H82c-.1 0-.6-.1-.6-.1 0-.1.5-.1.8-.1.5 0 .9 0 1.5.1h-.2m-1.2.4c-.1-.1.3-.1.5-.1.7.1-.4.2-.5.1m-.7-.2c-.1 0-.5-.1-.2-.1s.4.1.2.1m.6-.9c-.1-.1.3-.1.4-.1.7 0-.3.2-.4.1m.5-.2h.2c0 .1-.6 0-.2 0m6.8-1.3h.4c.5 0-.5.1-.4 0m.6.3h.4c.1 0 .3.1 0 .1-.2.1-.5 0-.4-.1m7.6-1.1h-.3c-.1 0-.3 0-.5.1h-.7c-.1 0 .2-.1.1-.1-.1-.1-.5 0-.4-.1h1.4s-.2.1-.1.1c.1-.1 1.3 0 .5 0m-6.1 0h.6c-.2.1-.4.1-.6 0m-1.3-.3c-.1 0 .2-.1.4-.2h.3c.2 0 .6 0 .6.1 0 0-1.2.1-1.3.1m-47.1 1c.1 0 .4 0 .3.1-.2 0-.6-.1-.3-.1M27.6 29.8c.1-.1 1-.1 1 0-.1.1-.6.1-1 0m.6 1.8h-.4c-.1 0 0-.1 0-.1h-.6c-.1 0-.3-.1-.4-.1-.2 0-.2.1-.4.1H26c-.2 0-.2-.1-.5-.1-.2 0-.3 0-.4.1h-.6c-.1 0-.2-.1-.3-.1-.4 0-.6 0-.5.1h.1c-.3.1-.5-.1-.9 0-.1.1.1 0 .1.1-.2.1-1.1 0-1-.1 0-.1.5-.1.5-.1.2 0 1.1-.1 1.4-.1h.9c.1 0 0 0 .1.1h2.9c.3 0 .2.1.5.1-.2 0 .1.1-.1.1m-3.7 9c0-.1 1.1-.1 1.2 0 .3 0 .5.1.4.1 0 0-.5.1-.8 0-.2 0-.8-.1-.8-.1m-1.3-.2h.2c0 .2-.5.1-.2 0m3.7 1.6h-.7c-.2 0-.6-.1-.9-.1-.2 0-.3.1-.4.1h-.8c-.3 0-.7-.1-.8-.2 0 0-.1-.1-.2-.1h-.6c-.2.1.1.1 0 .1-.3.1-1.1 0-1.8-.2-.1 0-.5-.1-.4-.2.2-.1 1.7 0 2.1 0h.9c.3 0 .7.1 1.1.1.4 0 .8 0 1.2.1.2 0 .1.1.2.1.3.1.8 0 1.2.1.2.1.4.1.9.2-.3.1-.7 0-1 0m-.7 1.9c-.3 0-1.2-.2-.3-.2h.4c.1.1.2.1-.1.2m-1.1.1c-.3.1-.3-.1-.4-.1h-1.1c-.7-.1.2-.1.5-.1h.8s.5.1.2.2m-2.3 0c-.2.1-1.4-.1-1.4-.2s.5 0 .7 0c.2.1.9.1.7.2m-2.3-2.2c0 .1.2.1 0 .1-.1 0-.9-.2-1.4-.3-.2 0-.4 0-.4-.1.2 0 .6 0 .9-.1.2 0 .2-.1.4-.1.3 0 .4.1.6.1.2 0 .5.1.5.1-.2.3-.4.3-.6.3m-2.1-5c-.1-.1.9 0 1.4 0 .3 0 .5-.1.8 0-.1.1-.5 0-.7.1-.1 0-.1.1-.2.1-.3 0-.5-.1-.8-.1-.2-.1-.5-.1-.5-.1m-.1-1.5h-.2c-.2 0-.7-.1-.9-.1-.6-.1-1-.2-.6-.3.1 0 .6-.1.7-.1h4.2c.1 0 .6-.1.7 0 .1.1-.3.1-.5 0-.2 0 0 .1 0 .1s-.3.1-.4.1H20c-.1 0 .2.1.2.1h-.6c.1.1.8.2.6.3h-.8c-.5 0-.9-.1-1.1-.1m-2 .3c-.2.1-1.1 0-.7-.1h.3c.1 0 .5.1.4.1m-1.2 5.8c.1 0 .4 0 .3.1-.1 0-.6-.1-.3-.1m0 .2c-.2-.1-.4 0-.7 0-.2 0-.7-.1-.9-.1-.1 0-.2-.1-.3-.1-.1 0-.7 0-1-.1-.1 0-.1-.1.1-.1h.2c.1 0 .1 0 .2-.1H14c.2 0 .1.1.2.1s.2 0 .3.1c.1 0 .1.1.2.1.2.1.6.1.4.2m-3.8-3.7c.3-.1.9-.1 1.1-.2.1-.1-.2-.1-.2-.1s.2-.1.3-.1c.2 0 .5.1.5.1s-.1 0-.2.1c-.1 0 0 .1 0 .1-.1 0-.2 0-.3.1-.2 0-.2.1-.3.1-.3 0-.6 0-.9-.1m1.1-2.1c.3 0 0 .1-.1.1 0-.1.1-.1.1-.1m.7 4.7c-.2 0-.5-.1 0 0-.1-.1.1-.1 0 0m1.4-5h-.4.4m2.2-4.8c-.3.1-.6.1-1 0h1m.2 4c-.1 0-.1 0 0 0 .2-.1.3 0 0 0m1-2.9c-.1 0 0-.1 0 0 .4-.1.1 0 0 0m-.2-.9h1.2c.1 0 .3.1.3.1h-.3c-.3 0-.6-.1-.9 0-.2 0-.1.1-.4.1-.2 0-.2-.2-.6-.2-.2 0 0 .1 0 .1-.2.1-.6-.1-.5-.1h.4c.5.1.6 0 .8 0m.5-.2h2.6c.1 0 .5.1 0 .1h-2.2c-.3 0-.9.1-.9 0s.3-.1.5-.1m.1-1.6h-.4c-.1 0-.5-.1-.5-.1 0-.1.5-.1.7-.1.1 0 .2 0 .3.1h.5s.3 0 .3.1c0 0-.2.1-.4.1-.2-.1-.4-.1-.5-.1M17 27.4c-.1-.1.6-.1.7-.1h.3c.1 0 .5.1.2.1H17m-.4.8h-.4c-.3 0-.5.1-.8.1h-.5c-.3 0-.2.1-.4.1h-2.9c-.1 0-1.4.1-.8-.1-.1-.1-1.1.1-1.2 0-.1 0 .2-.1.4-.1h1.4c.2 0 .4-.1.5-.1h5.3c.1 0-.5.1-.6.1m-1.6.9c-.2 0-.3-.1-.3-.1h-1.8c-.3 0-1.5.1-1.5 0-.1-.1.8-.1 1.1-.1H16c.1 0 .4.1.4.1-.2 0-1.2.1-1.4.1m-3.9.3c-.1 0-.1.1-.2.1s-1.5.1-1.6 0c-.1-.1.8 0 .8-.1.3-.1.8 0 1.4 0h.9c-.2.1-1 0-1.3 0m1.1-2c.2 0 .4-.1.7-.1H14c.1 0 .5.1 0 .1h-.9c-.1 0-.3 0-.5.1h-1.2c-.2 0-.4 0-.4-.1s1 0 1.2 0m4.6-.6h.6c-.1.1-.5.1-.8.1-.2 0-.8 0-.8-.1.2-.1.9 0 1 0m2.3.6s.3.1.1.1c-.3.1-.5-.1-.1-.1m.2 2.7c-.1 0-.3-.1 0 0 .1-.1.1 0 0 0m.5-3h.9c.2 0 .2-.1.5 0 .2 0 .2 0-.1.1h-.6c-.1 0-.2 0-.3.1-.2 0-.9 0-.9-.1 0 0 .3 0 .5-.1m.3-.4c.7.1-.6.2-.5 0h.5m.4-5.3c.1-.1.6-.1.9-.1h.9c0 .1-.2 0-.4.1-.1 0-.1.1-.2.1-.3 0-1.4 0-1.2-.1m-1.1 0s.3-.1.4-.1c.7.1-.3.2-.4.1m3.2 3.1c.4 0-.2.1-.3.1-.2 0 .2-.1.3-.1m.6 5.6c0 .2-1.6-.1-.5-.1.1.1.5.1.5.1m-1.4-3.4c.6.1-.6.2-.6 0h.6m.2 4c0 .1-1.4 0-.7-.1h.2c.4 0 .5.1.5.1m-.8-4.3c-.1-.1.7-.1 1-.1h.2c0 .2-1.1.2-1.2.1m-.3 2.6c0-.1.1-.1.4 0 .2 0 .4 0 .4.1-.1 0-.9-.1-.8-.1m-1.1 1.1c0 .1-.7 0-.2 0h.2m-.3-.7c0-.1.6-.1.8 0 .4 0 .6.1.5.1-.1.1-1.3 0-1.3-.1m.7 3.9c-.2.1-.7-.1-.3-.1.2 0 .4.1.3.1m-.1-1.6c-.2 0-.6-.1-.5-.1.1-.1.3 0 .6 0h.8c.1 0 .3 0 .4.1.1 0 .1 0 .2.1.2.1.8.1.7.2-.1.1-.2 0-.5 0h-.7c-.1 0 0-.1-.1-.1s-.6-.1-.6-.1c-.2-.1-.1-.1-.3-.1m3.7-.5h-1.2c-.1 0-.1 0-.3-.1H22c-.1 0-.2-.1-.3-.1-.3-.1-.6 0-.5-.1.1-.1.4 0 .6 0h.5c.1 0-.1 0 0-.1.4 0 .4.1.7.1.4.1.9 0 1.2.1-.1.1-.4 0-.5 0-.1.1.1.2.1.2m.2-1.3c.1 0 .2.1.3.1.1 0 .4.1.2.1s-.4 0-.6-.1c-.2 0-.2-.1-.4-.1s-.5 0-.6-.1c.4.1.8 0 1.1.1m-.8-3.2h.2c0 .1-.6 0-.2 0m.8-4.5h.4c.2 0 .3 0 .4.1 0 0-.4.2-.7.2-.2 0-.5-.1-.5-.1-.1-.1.3-.2.4-.2m.7 7.7c-.3 0-.5-.1-.4-.2.1.1.5.1.4.2m.3.7h1.2c.1 0 .4 0 .4.1-.1.1-.2 0-.5 0h-.8c-.3 0-.7 0-.9-.1.2-.1.3 0 .6 0m-.1-8.4c.1-.1.6 0 .7 0 .1 0 .2 0 .2.1 0 0 .3.1.2.2-.2.1-.3 0-.5-.1-.3-.1-.7-.2-.6-.2m.9-1.7h-2.2c-.2-.1 1-.1 1.2-.1h.7c.5 0 .9-.1 1.5 0h.2s-.1.1-.3.1h-.4c-.2-.1-.5 0-.7 0m1.1 3.3c.1 0 .1 0 0 0-.1.1-.2 0 0 0m-.1 7.2h-1c-.2 0-.3.1-.3.1h-.9c.3-.1.8-.1 1.2-.1.3 0 .7-.1.8-.1.1 0 .8.1.2.1m-.3-.9c-.3 0-.4-.1-.6-.1-.3 0-.7 0-.8-.1.5-.1 1.2-.1 1.9 0 .2 0 1.1.2 1 .3h-.7c-.4-.1-.6-.1-.8-.1m1.2-8.1h.3c.2.1.3.3-.1.3-.3 0-.5-.1-.8-.1-.1 0-.5-.1-.5-.1s1-.1 1.1-.1m1.9 23.4c0 .1-1.2.1-1.2 0s1-.1 1.2 0m2-.1c.3 0 1.1 0 .7.1-.2.1-.9.1-1.2.1-.2 0-.3-.1-.4-.1-.2 0-.5 0-.6-.1.4-.1 1 0 1.5 0m-.5.4c0-.1.5 0 .8 0h.4c0 .1-1.2.1-1.2 0m1.4.1h.8c.3 0 .4.1.7 0 .2 0 .2-.1.3-.1h.2c.2 0 .4.1.3.1-.1.1-1.1.2-1.3.1h-.4c-.2 0-.4 0-.7.1h-1.7c-.1-.1.1 0 .2-.1s0-.1.2-.1h1.4m9.7-1.1c.1-.1.7 0 .9 0-.3.2-1.1.1-.9 0M11 37.6c-.1.1-.4 0-.7 0-.1 0-.6 0-.6-.1s.9-.1 1.1-.1c.1.1.3.2.2.2m.2-5.5c-.2-.1.5-.2.7-.1h.2c.1.1-.7.2-.9.1m-4.9-4.7h.2c-.1.1-.4 0-.2 0m10.3-1.2c-.2.1-.7.1-1.1.1-.2 0-.8 0-.7-.1.1 0 .3 0 .3-.1.1 0-.1 0 0-.1s.3 0 .2-.1c-.1 0 0-.1.2-.1h1.1c-.1 0-.3 0-.4.1 0 .3.4.2.4.3m-3.4.2c-.2 0-.5 0-.5-.1s.7-.1.9-.1c.1 0 .5 0 .6.1h.1s-.9.1-1.1.1m.1-4.2h-.5c-.2 0-.9-.1-.9-.1 0-.1.9-.2 1.1-.2.3 0 .7-.1.8 0 .2 0 .2.1 0 .1.2.1.4 0 .6.1-.3 0-.5.1-1.1.1m-.5.2h.3c0 .1-.8 0-.3 0M25.3 2.8c-.3 0-.2-.2.2-.1.3.1 0 .2-.2.1m-1.6.7h-3.1s.3-.1.5-.1h.7s-.2.1-.1.1h.9c.1-.1-.1-.1-.1-.1.1 0 .4 0 .7-.1.5 0 .7-.1 1.1-.1.1 0 .5.1.5.1.2.2-.8.2-1.1.2m.3.3h-1.2c-.1 0 .3-.1.5-.1.3 0 .6-.1.8-.1h.2c0 .2-.2.2-.3.2m-.6-1h1.4c-.1.1-1 .1-1.2.1-.3 0-.4-.1-.6 0-.1 0-.1.1-.3.1-.2 0-.6-.1-.6-.1.1 0 1.1 0 1.3-.1m-5.4.7c-.7-.1 0-.2.3-.1h.2c0 .1-.3.1-.5.1m-2 .7c-.1.1-.4 0 0 0 .1 0 .1 0 0 0m-.6-.6s-.7.2-.8.2h-.5c-.1 0-.1.1-.2.1h-1.1c-.4 0-.9-.1-.9-.1s.5-.1.9-.2h.5c.2 0 .4 0 .5-.1h.5c.3 0 .7-.1 1-.1.1.1.2.2.1.2m-2.8.8h.4c.6 0-.5.1-.4 0m136.9-1.6h.3c.1 0 .5 0 .5.1.1.1-1 0-.8-.1m68 8.1c.2 0 .4 0 .3.1-.2 0-.8-.1-.3-.1m7 1.9c-.2 0-.2-.1-.4-.2-.1-.1-.3-.1-.3-.1s.2 0 .3-.1c0 0-.2-.1-.1-.1h.1c.4-.1-1.1-.2-1.4-.2-.2 0-.3 0-.3-.1h-.7c-.1 0-.4.1-.5.1h-3c-.1 0-.1-.1-.3-.1h-.3c-.3 0-.8-.1-1-.1h-1.3c-.1 0-.1 0-.3-.1h-.2c-.1 0-.3 0-.3-.1l.2-.2c.1 0 .4.1.6.1h.2c.4 0 .5 0 .8-.1-.1-.1-.5 0-.5-.1h1.5c.3 0 .5.1.8.1.2 0 1.4.1 1.4 0s-.5-.1-.7-.1c-.2 0-.6-.2-.7-.2-.1-.1-.4-.1-.5-.1-.1 0 0-.1.1-.1s.4 0 .5-.1h.9c.1 0-.1-.1-.1-.1 0-.1.1-.1.1-.2l-.1-.1-.1-.1c-.2-.1-.5-.1-.4-.1l.3-.1s-.4-.1-.5-.1V10c-.3-.1-.8-.1-.6-.2h.4c.2 0 .2-.1.2-.1 0-.1-.5 0-.4-.1 0-.1.6 0 .6-.1-.1-.1-.5-.1-.7-.1-.2-.1-.5-.3-.4-.3h.6c-.3-.1-.2-.1-.3-.2l-.2-.1c0-.2.4-.1.6-.2.1 0 .2-.1.2-.1-.1-.1-.4-.1-.6-.1-.3-.1-.3-.2-.4-.3-.3-.1-.7-.1-1-.1-.1 0 0-.1-.1-.1s-.3-.1-.4-.2v-.1c-.1 0-.4-.1-.5-.1h-.8c-.3 0-.7-.1-.8-.2-.1-.1.1-.1-.1-.1-.4-.1-.8 0-1.1-.1-.2 0-.4-.3-.4-.3 0-.1.1-.1 0-.2s-.6-.2-.2-.3h.6c0-.1-.8-.1-1-.1-.5-.1-.8-.2-1.3-.2h-1.4c-.1 0-.1 0-.3-.1-.3 0-.8 0-.6-.1h.9c.3 0 .7.1.9 0 .1 0 .3-.1.3-.1l-.5-.1c-.2-.1 0-.1-.2-.2s-.4 0-.7 0c-.1 0-.3 0-.5-.1-.4 0-.8-.1-1-.1-.1 0 0-.1-.1-.1 0 0-.2 0-.3-.1-.1 0-.2-.1-.3-.1-.2 0-.3.2-.7.1-.1 0 0-.1-.1-.2 0-.1-.1-.1-.1-.2l.1-.1c0-.1-.2-.2-.5-.2h-1.2c-.5 0-.6-.1-.5-.1h1.6c.1 0 .1-.1 0-.2-.1 0-.4-.1-.6-.2-.2-.1-.4-.1-.6-.2-.4-.1-1-.1-1.3 0-.1 0-.1.1-.3.2-.1 0-.4.1-.4.1 0 .1.9.2.5.3h-.6c-.2 0-.2-.1-.3-.1-.1 0-.2 0-.3-.1-.1 0-.2 0-.2-.1l.1-.1-.2-.1-.1-.1c-.2-.1-.4 0-.2-.1.1 0 0-.1-.1-.1-.4-.1-.7-.1-1 0-.2 0-.5.1-.6.2 0 0 .1 0-.1.1-.1 0-.5 0-.7.1l-.9.3h-.8c-.2 0-.4-.1-.7-.2-.3-.1-.6-.1-.7-.2-.2-.1.3-.2.3-.3 0-.1-.6-.2-.7-.2-.1 0-.2-.2-.3-.2-.1 0-.3-.1-.4-.1-.5-.1-1.1-.1-1.7-.1h-3.6c-.5-.1-1-.1-1.5-.1h-1.3c-.2 0-.3.1-.5.1-.1 0-.2-.1-.4-.1-.3-.1-.8-.1-1.1-.2-.2 0-.3-.1-.4-.1-.1 0-.3 0-.4-.1-.1 0-.1-.1-.3-.1h-.2c-.3 0-.5 0-.8-.1h-1c-.3-.1-.6-.1-.8-.1h-.3c-.2 0-.4.1-.6.1h-.6c-.2 0-.3-.1-.5-.1h-.2c-.3 0-.2.1-.3.2-.1 0-.2 0-.3.1-.1.1 0 .1-.2.1h-14.6c-.3 0-.5-.1-.7-.1h-5c-.2 0-.5-.1-.7-.1-.8-.1-1.5 0-1 .2.1 0 .4.1.5.1.5.1 1.2.1 1.6 0 .2 0 .3-.1.5-.1h1.3c.3 0 .3-.1.5-.1.5 0 .2.1-.1.1-.4 0-.5 0-.4.1.1.1.2.1.5.2 0 0-.1.1-.2.1.3 0 .4.1.3.1h-.7c-.1 0-.1-.1-.3-.1-.4-.1-.8-.1-.9.1 0 0-.1 0-.1.1 0 0 .2 0 0 .1 0 0-1.1-.1-1.2-.2 0-.1.1-.1.2-.1-.2 0-.4-.1-.1-.1-.3 0-.5-.1-.8 0-.1 0-.2 0-.4.1-.2 0-.3 0-.4.1-.1 0-.2.1-.3.1h-.5c-.1 0-.4 0-.4.1.1.1.5 0 .7 0 .1 0-.2.1-.1.1.1.1 1.5.2 1.3.3-.1 0-.9 0-1-.1-.5-.1-.7-.2-1.1-.2-.1 0-.2.1-.3.1-.1 0-.6 0-.8-.1-.2 0-.4-.1-.7-.1-.3 0-.5-.1-.6-.1-.1 0 0-.1 0-.1-.1-.1-.5-.1-.4-.2.1 0 .3-.1.4-.1-.4-.1-1-.1-1.5-.1-.3 0-.5-.1-.7 0 .1.1.4 0 .6.1.1 0 .1.1.1.1 0 .1.1.1 0 .1-.2 0-.2 0-.5-.1h-.4c-.2 0-.3-.1-.4-.1h-.8c-.2 0-.2.1-.3.1-.1 0-.2.1-.2.1-.3.1-1.4 0-1.9 0h-.5c.4.1.9.1 1.4.1.5 0 1 .1 1.4.1.4 0 .7.1.9.1h.9c.1 0 .2.1.3.1.2 0 .4-.1.6-.1.2 0 .6 0 .6.1 0 0-.2.1-.3.1H149c-.1 0-.4 0-.5-.1-.2 0-.4-.1-.6-.1h-.4c-.3 0-.5-.1-.6-.1-.1 0-.6.1-.6.1 0 .1 1.3.2 1.5.2h1.4c.3.1-.6.2-.9.2h-.8c-.4 0-.1.1-.4.1h-.6c-.2 0-1.5 0-1.5-.1.1-.1.5 0 .7 0-.5-.1-1-.1-1.4-.1h-.6c-.1 0 0 0-.1.1s-.4 0-.6 0c-.1 0-.1 0-.3-.1-.4-.3-2.7-.4-2.8-.4-.2 0-.5-.1-.4-.1h1.2c.5 0 .9.1 1.1 0 .2-.1-.1-.1-.1-.2 0 0 .2-.1.3-.1.2 0 .8-.1.9-.1 0-.1-.5-.1-.5-.1-.1-.1.6-.1.8-.2.1 0 .1-.1.2-.1.1-.1.4-.1.4-.1h-.3c-.1 0-.3-.1-.4-.1h-.3c-.4 0-.2-.1-.3 0-.1 0-.4.1-.5.1-.1 0 0 .1-.1.1s-.2.1-.2.1c0 .1.2.1.1.1 0 0-.4.1-.5.1h-1.2c-.1 0-.2 0-.3-.1h-.6c-.1 0-.1-.1 0-.1.1-.1.4 0 .3-.1-.1-.1-.6 0-1-.1-.4 0-.9-.1-1.1-.1-.2 0-.2.1-.4.1-.3 0-.8.1-1 .1h-.4c-.1.1-.1.1-.3.1-.1 0-.3-.1-.2-.1h.3s0-.2.1-.1c-.1 0-.4-.1-.5-.1-.1 0-.2.1-.2.1h-.5c-.5 0-1.2-.2-1.5-.1-.1 0 0 .1-.1.1h-.1v.1l-.1.1.1.1c.1 0 .5.1.5.1s-.3 0-.6.1c-.2 0-.5 0-.6.1h-.3s.2 0 .3.1c.1.1 0 .1.1.2.1 0 .4 0 .3.1-.1.1-.4 0-.6.1.1 0 .2.1.2.1-.1.1-.4 0-.8 0-.5 0-1 0-1.3-.1-.2 0 .1.1-.1.1-.1 0-.8 0-1.2-.1-.1 0-.3-.1-.4-.1h-.4c-.2 0-.4-.1-.5-.1-.2 0-.4 0-.4-.1s.2 0 .3 0h2c.2 0 .3-.1.5-.1h.7c.1 0 0-.1-.2-.1h-.6c-.1 0 .1-.1.1-.1s-.1-.1-.1-.2l.1-.1c-.1 0-.6-.1-.6-.1-.1-.1.2-.1.4-.2-.4-.1-.6 0-.6-.1 0 0 .1 0 0-.1-.1 0-.4 0-.4-.1h-.4c-.3.1.1.2 0 .3 0 0-.5.1-.7.2-.2 0-1.1 0-1.1.1s1 .1 1.2.1c.1 0 0 0 0 0v.1s.5.1.7.2c.2 0 .7 0 .7.1h-2.1c-.2 0-.6-.1-.6-.1.1-.1.4 0 .5 0h.5c-.4 0-.8-.1-1.1 0-.3 0-.3.1-.6.1-.1 0-.2-.1-.3-.1h-.6c-.3 0-.4-.1-.7-.1-.1 0 .1.1.2.1v.1s.1 0 .2.1c.1 0 .1.3 0 .3h-.6c-.1 0 0 .1-.1.1-.1.1-.5.1-.5.1-.1 0 .1.1.1.1 0 .1-.2.1-.3.1-.4 0-.9-.1-1.4-.1h-2.6c-.1 0-.1-.1-.2-.1-.2 0-.6 0-.5-.1 0 0 .5 0 .6-.1 0-.1-1.1-.1-1.1-.1 0-.1.7 0 .9-.1h-.1c-.2-.1.3-.1.5-.1s.4-.1.4-.2c-.1-.1-.5 0-.8 0-.1 0-.8 0-.8-.1s.6 0 .7 0c.4 0 .7 0 .7-.1-.4-.1-1.2 0-1.8-.1-.2 0-.9-.2-.8-.2.1-.1.5 0 .4-.1 0 0-.8-.1-1-.1h-1.1c0-.1.4 0 .6 0h1.8c-.4 0-.8-.1-1.2-.1h-3.2c-.3 0-.6-.1-1-.1h-1.1c-.3 0-.9 0-1.1-.1-.3-.1.7-.1.8-.1h.9c.2 0 .4.1.5.1h1.9c.1 0 .5 0 .5-.1h-6.1c-.1 0-.1.1-.1.1h-.4c-.2 0 0-.1-.2-.1h-.2c-.2 0 0 0-.2.1h-.2c-.3.1 0 .1.1.2.3.1.4.1.9.1h.5c.1 0 .2.1.3.1.4.1 1 .1 1.4.1h1.7c.2 0 .4-.1.6-.1h1.1c.4 0 1 0 .9.1-.1.1-1 0-1.3 0h-.6c-.3 0-.6-.1-.8-.1-.4.1-.1.1-.1.2s-.5.2-.5.2c0 .1.3.1.4.1.2.1.1.1.3.1h2.6c.9 0-.1.2-.2.3l.1.1v.2c-.2.1-.6.2-.7.2-.1 0-.1.1-.3.1-.2 0-.6 0-.8-.1h-.4c-.2 0-.5-.1-.8-.1H109c-.3 0-.1 0-.3-.1-.2 0-.6-.1-.4-.1.2-.1.2 0 .5 0 .1 0 0 0 .2-.1.1 0 .3 0 .4-.1-.4-.1-.7-.1-.6-.2 0-.1.4 0 .5-.1.1 0 .1-.1.2-.1.2 0 .7 0 .8-.1 0 0-.2-.1-.4-.1h-.6c-.1 0-.2-.1-.3-.1h-.7c-.6 0-1.2 0-1.4-.1-.1 0-.2 0-.2-.1-.1 0-.1-.1-.2-.1-.4-.1-.7 0-1.1 0h-.4c-.4.1-.4.2-.6.2-.3.1-.6 0-1.1.1 1.4.1-.9.2-.8.1h.4c.1 0 .3 0 .3-.1h-.8c-.1 0-.3 0-.4.1-.1 0-.5 0-.4-.1.1-.1.6 0 .7 0 .1 0 .2 0 .4-.1h.8c-.3-.1-.6 0-.9-.1H101l.2-.1h.5s-.5-.1-.7-.1c-.1 0-.8.1-.8.1-.1.1.4.1.2.2-.1.1-1.1 0-1.2 0 0 0-.1.1 0 .1.1.1.3 0 .4.1 0 0 0 .1-.2.2-.2 0-.3 0-.7-.1h-3.8c-.9-.4-.2-.3-.2-.4-.2 0-.4 0-.7-.1-.3 0-.4-.1-.6-.1-.2 0-.7 0-.6-.1h.5c.1 0 .7-.2.7-.2s-.1 0-.2-.1c-.2-.1.4-.1.7-.1.4 0 .8.1.8.2s-.3 0-.4.1c-.1.1.2.1.1.2-.1 0-.3 0-.4.1h1.3c.1 0 .2-.1.4-.1h.2c.3 0 .2-.1.4-.1s.7 0 .8-.1c0 0-.2 0-.3-.1l-.1-.1c-.1-.1-.4-.2-.2-.2h2c.1 0 .2-.1.5-.1.1 0 .7 0 .6-.1 0 0-.3-.1-.5-.1H96c-.1 0-.2.1-.3.1-.1 0-.4 0-.5.1-.1 0-.6.1-.6.1-.1 0 0 .1-.1.1h-3.7c-.3 0-1 0-1.2-.1-.1 0 0-.1 0-.1h-.1l.1-.1c-.1 0-.9-.1-1.3 0-.1 0-.1.1-.3.1-.3.1-.7-.1-.9 0-.2 0 .1.1.2.2v.1l.1.1c0 .1-.2 0-.1.1s.7.1.6.2c-.1.1-.5.1-.6.1h-.2c-.3 0-.6.1-.9.2-.1 0-.2 0-.4.1-.1 0-.2.1-.3.1h-1.4c-.4 0-.7 0-.4-.1h-.6c-.1 0 .1-.1-.1-.1s-.6 0-.8-.1c-.1 0-.2-.1-.4-.1H81c-.3 0-.4.1-.5.1-.1.1.3.2.2.3l-.2.1c-.2.1-.5.1-1 0-.5-.3-.6-.4-.8-.4-.1 0 0 0-.1.1l-.1.1c-.3.1-.9 0-1.2 0-.2 0-.3.1-.6.1h-1.2c-.3 0-.6-.1-.9-.1.2-.1.4 0 .5-.1-.2 0-.6 0-.8-.1-.1 0 0 0 0 0 0-.1-.1 0-.4-.1-.4-.1-.3 0-.7 0h-.5c-.2 0 0 .1-.4.1.7-.2-1.1 0-1.2-.1 0 0 .9-.2 1-.2h.6c.1 0 .1-.1.2-.1s.5 0 .5-.1c-.4-.1-.6 0-1 0h-1.1c-.2-.1.6-.2 1-.2.3 0 .4.1.6.1.5 0 .8-.1 1.2-.2.1-.2-.3-.2-.5-.2-.1 0-.3.1-.5.1h-1c-.3 0-.6 0-.8-.1-.4 0-.4 0-.8.1h-3.7c-.1 0-.3-.1-.4-.1h-.6c-.2 0-.3.1-.5.1-.4.1-1.6.2-1.8.2-.1 0-.1.1 0 .2.1 0 .2.1.2.1s-.1 0-.2.1.1.1 0 .1-.8.1-.9.2l.1.1s-.1 0-.2.1h.1s-.3.1-.5.1h-1.6c0-.1.6-.1.6-.1s-.3 0-.4-.1c-.1 0 .1-.1-.1-.1h-.5c-.4 0-.6 0-.4.1.1 0 .1 0 0 .1 0 0-.2 0-.3.1h.1c.1.1-1.4.1-1.8.1h-1.4c-.5 0-.3-.1-.3-.1.1-.1.6 0 .7-.1 0 0-.2 0-.2-.1-.1 0 .2-.1 0-.1-.3-.1-.8 0-1.4 0-.2 0-.3-.1-.4-.1-.4 0-.7.1-1 .1-.4.1-.9 0-1.1.1h.1c.1.1-.9.1-1.1.1-.4 0 .3-.1.3-.1-.1-.1-.8-.1-.7-.1 0 0 .4 0 .6-.1.2 0 .5 0 .6-.1h1.1c.2 0 .4-.1.6-.1h.4c.2 0 .5 0 .6-.1h.3c.1 0 .2-.1.4-.1h.7c-.4-.1-.7 0-1.1 0-.5 0-.7-.1-1-.1-.4.6-.4.7-.7.7-.1 0-.4 0-.5-.1-.1 0 0-.1-.2-.1h-.5c-.1 0-.1-.1-.2-.1h-.4c-.1 0 .1-.1 0-.1h-3.2c-.1 0-.3.1-.4.1-.3 0-.5-.1-.8-.1-.1 0-.1 0-.4.1-.2 0-.5 0-.8.1-.2 0-.5 0-.6.1h-1.3c-.4 0-.6.1-.8.2-.2.1-.3.1-.2.1h1c.2 0 .4 0 .6-.1h.6c.5-.2.9-.2 1.3-.2h.7c.1 0 .2-.1.4-.1h1.1c.1 0 .2-.1.4-.1h1.4c0 .1-.5 0-.4.1h.7l-.1.1c-.2.2-.7.1-1.5.1h-1.2c-.3 0-.5.1-.7.1h-1.9c-.3 0-.3.1-.5.1h-.4c-.7.1-.1.1.2.1 1.2.1-.6.2-.9.2h-1.4c-.1 0-.2-.1-.3-.1-.2 0-.8 0-1.1.1-.3.1-.3.1-.2.1.2.1.5 0 .8 0h.5-2c-.1 0-.2.1-.2.1h-.4c.1.1 0 .2-.2.2h-.6c-.3 0-1.1-.1-1-.2.1-.1.3-.1.5-.1.1 0 .5-.1.5-.1l-.2-.1c-.1 0-.1-.1-.1-.1.2-.1.8-.1 1-.2h.7c.6 0 1.2 0 1.8-.1h-1.6c-.2 0-1.1 0-1.2-.1 0 0 .4-.1.4-.2h-.3c-.7 0-1.1.1-1.7.1h-.7c-.2 0-.3.1-.5.2s-.9.1-1.3.1h-2c-.2 0-.4.1-.7.1H32c-.2 0-.5 0-.7.1H31c-.4 0-1.1.1-1.4 0-.1-.1.1-.1 0-.1-.2-.1-.7 0-1 0-.2 0-.4 0-.5.1-.2 0-.2.1-.3.1-.4.1-.7 0-1.1 0-.2 0-.6.1-.8.1h-4.3c-.3 0-.7.1-1 .1h-.5c-.6 0-1.2.1-1.7.2h-1.8c-.2 0-.4 0-.6-.1h-1s.1.1.2.1c0 .1.2.1 0 .1-.1.1-.7 0-1 0h-2.7c-.3 0-.5.1-.7.1-.8.1-1.5.1-2.2.1-.2 0-.6 0-.6.1 1 0-.2.1-.5.1-.1 0-.9.1-1 0 0 0 .2 0 .3-.1.4 0 .8-.1 1-.1-.8.3-1.7.3-2.4.5.2.1.8 0 .9.1.1 0-.2.1-.3.1-.1 0-.1.1 0 .1h2.9c.3 0 .7 0 .9-.1.2 0 .9-.1 1 0 .2 0 0 .2-.3.2-.1 0-.6.1-.8.1-.5 0-.9-.1-1.4-.1h-.6c-.4 0-.8.1-1.1 0-.3 0-.5-.1-.8 0-.1 0 0 0-.1.1 0 0-.2.1-.1.1.2.1 1.6 0 1.7 0 .1 0 .4-.1.5 0 .5 0-.5.1-.5.1-.1 0-.2.1-.3.1-.2 0-.3 0-.5.1-.2 0-.4.1-.5.1h.8c.1 0 .2.1.4.1H8c.2 0 1.1 0 .4.1 0 0-.5 0-.9.1h-.4c-.2 0-.4 0-.5.1-.4 0-1.1 0-1.4.1-.1 0 0 .1.1.1.2 0 .7 0 .8-.1h.6c.4.2-.7.2-1.1.2-.4 0-1.1 0-1.3.1 0 0-.1.1 0 .1s.3 0 .5.1c.2 0 .2.1.3.1h.4c.2-.1-.2 0 0-.1.1 0 .7-.1.8 0 0 0-.3.1-.4.2-.2 0-.5.1-.7.1-.3 0-.5.2-.8.3-.2 0-.4.1-.4.1-.2.1 0 .2.1.3.1.1.2.1.4.2s.3.2.5.3c.3.1.8.1 1.2.2.3 0 .4.1.6.1h.9c.1 0 .2 0 .3.1h2.1c.1 0 .1.1-.2.2-.2.1-.6 0-.9 0-.2 0-.5.1-1 .1-.2.1-.3.1-.5.1H7c-.4 0-.5.1-.7.2-.1 0-.2 0-.3.1-.2 0-.3.1-.4.2 0 .1.2.1.1.2-.1 0-.2 0-.3.1h.4c.6 0 1.3 0 1.9-.1.2 0 .5-.1.8-.1.3 0 .6.1.6.1h-.7c-.5 0-.7 0-1.2.1-.4 0-1.2 0-1.5.1-.5 0-.4.1-.5.2l-.2.1c-.1 0-.1.1-.1.1.1.1.5.1.4.2-.2.1-.5 0-.7.1l.1.1v.2c0 .1-.1.1-.1.2l.2.2.2.2c.2.1.6.1.9.2.1 0 .1.1.3.1.1 0 .3 0 .5.1.6.1.9 0 1.4 0 .8 0 1.1 0 1.9-.1h.9s.1 0-.5.1H7.1c-.3 0-.4.1-.7.1h-.3c-.6.1-.6.2-.9.3-.3.1-.4.3-.8.3-.5.1 0 .1.2.2.1 0 .1.2 0 .2 0 0-.1.1-.2.1-.1.1 0 .2 0 .2v.1c0 .1.2.1.3.2l-.1.1v.1l-.1.1s.1 0 .1.1l-.1.1s.1.1 0 .1l-.1.1c-.1 0-.3.1-.3.1-.1.1 0 .1-.2.2-.1 0-.4.1-.5.1-.3 0-.7 0-.6.1.1.1.8-.1 1.1 0 .1 0 .1.1.1.1s-.1.1-.2.1c0 0-.1.1-.2.1l-.2.1c0 .1.2.2 0 .2-.1 0-.8.1-1.1.1H1.2c-.4 0-.5.1-.2.2h1c.1 0 .2-.1.4-.1s.8-.1 1 0c.1 0 .1.1.1.1.1.1.2.1.2.2s.1.2.1.2c0 .1-.1.2-.2.3l-.2.1v.1c0 .1-.2.1-.3.2-.2.2-.3.3-.1.4.1 0 .2.1.3.1v.1l.2.2c0 .1-.1.1-.2.2-.2.1-.1.3.1.4.1 0 .2.1.2.1.1 0 .4.1.4.1-.1.1-.6.1-.9.1-.1 0-.3.1-.4.1-.3 0-1.5 0-1.7.1-.1 0 0 0 .1.1.1 0 0 .1.1.1h.6c.4 0 .8-.1 1.2-.1h.6c.3 0 .5-.1.7 0 .1 0 .4 0 .4.1.3.1-.4.1-.5.2l.1.1h-.1l-.2.1v.4c0 .1-.1.2-.1.3l.2.1v.1c0 .1.1.1.1.1 0 .1-.7.3-.6.4 0 0 .3.1.4.1.1 0 .2.1.3.1.3.1.5.2.8.2.9.2 1.7 0 2.4 0h.2c.6 0 1.1-.1 1.6-.1.3 0 .5 0 .8-.1h.9c.5 0 1.3-.1 1.7-.1h1.2s.1.1 0 .1h-1.5c-.3 0-.5.1-.1.2h5.3c.4.1-.3.1-.5.1s-.5.1-.7.1h-1.6 2.3c.4 0 .8-.1 1.3-.1h.3c.4 0 .8 0 1.2-.1h4c.1 0 .3-.1.4-.1.1 0 .5.1.9.1.2 0 1.2-.1 1.3-.1.2.1-.4.1-.5.1h-3.6c-.4 0-.9 0-1.1.1h.9c.1 0 .9 0 .7.1h-4.3c-.4 0-.6 0-1 .1h-5.3c-.2 0-.4-.1-.5 0-.1.1.3 0 .3 0-.2.1-.4 0-.5.1.1 0 .4 0 .6.1.1 0 .1 0 .2.1.4.1.8 0 1.1.1h4.9c.3 0 .5-.1.8-.1h.3s.8-.1.8 0-.6 0-.8 0c-.1 0-.2.1-.2.1h-.2c.3.1.9 0 1.2 0h3.4c.1-.1-.4-.1-.3-.2h1.2c.2 0 .4 0 .3.1-.1.1-.6-.1-.7.1-.1.1.4.1.5 0h.8c.2 0 .4 0 .4.1s-.9 0-1.1.1c-.1 0-.1.1-.1.1h-6.5c-.1 0-.1-.1-.2-.1-.2 0-.6-.1-.8-.1h-3.8c-.5 0-1 0-1.4.1h2.9c.5 0 .6-.1.9-.1.2 0 .7.1.7.1h-.3c-.3 0-.7.1-.9.1h-3.1c-.4 0 .1.1-.1 0h2.3c.5 0 1.2-.1 1.7 0 .1 0 0 .1.1.1h.4c-.1.1-.3 0-.4 0 .3 0 0 .1.2.2s1.2 0 1.5 0c.3 0 1.5 0 1.3.1h-1.8c-.2 0-.1.1-.3.2h-.8c-.2 0-.3.1-.5 0 0 0 .1-.1 0-.1-.3-.1-.6 0-.9-.1.5-.2-.7-.1-.9-.1-.2 0-.3-.1-.5-.1s-.8-.1-.9 0c-.2 0 .1.1-.1.1s-.8-.1-1.1-.1h-.8c-.4 0-.7.1-1.2.1-.8.1-1.5.1-2.3.1h-1c-.1 0 .1.1 0 .1h-.6c-.2 0-.4.1-.5.1-.1.1 0 .2 0 .3l-.1.1.3.1v.1c.1 0 .2.1.3.1 0 0-.1 0-.1.1v.1l-.1.1c0 .1.3.1.3.2-.1.1-.7.2-.8.2h-.4c-.3 0-.7.1-.6.1h.4c.2 0 .3.1.4.1l-.3.1s.1 0 .1.1c-.1.1-.2.1-.2.1.1.1.5.1.6.2.1 0 .1.2.1.3 0 0-.1 0-.1.1 0 0 .1 0 0 .1 0 0-.2 0-.2.1 0 0 .1.1.2.1v.1c.2.1.7.1 1.2.1h.9c.1 0-.2.1-.2.1l.2.1h.3c.1 0-.1.1-.1.2s-.1.1.1.1h.9c.5 0 1.1.1 1.6 0 .1 0 .2 0 .4-.1h.5c.2 0 .3-.1.4-.1.2-.1.6-.1.9 0 .1 0 .2.1.3.1h1.2c.4 0 1 0 1.3.1.1 0 .2.1.3.1.3 0 .5 0 .7-.1-.7-.1.7-.1.9-.1-.1 0-.2 0-.3.1.4 0 .8.1 1.2 0-.7-.2.2-.2.5-.2.4 0 .8 0 .9-.1-.3-.1-.7 0-1-.1-.2 0-.2-.1-.4-.1-.1 0-.1.1-.3.1h-.8c-.1 0 .1-.2.3-.2.3-.1.8-.1 1.1-.1h2c.2.1-.1.1.1.1h.9s-.1.1-.2.1c-.2 0-.4 0-.5.1-.1 0 .1.1.1.1 0 .1-.3.1-.6.2-.6.1-1.1 0-1.5.1-.1 0 0 0-.1.1-.1 0-.5 0-.8.1-.3 0-.4.1-.6.1-.1 0-.2-.1-.3-.1-.1 0-.3 0-.6.1h-.5c-.3 0-.5.1-.7.1H11c-.1 0-.2-.1-.3-.1-.1 0-.7 0-.9.1-.1 0-.1 0-.2.1h-.3c-.1 0-.3.1-.5.1-.4 0-.9 0-1.2.1-.1 0-.3.1-.5.1s-.7 0-.7.1.4 0 .6 0h4.1c.6 0 1.3.1 1.7.1.2 0 .2-.1.3-.1h.5s.1-.1.2-.1h1c.3 0 1 0 .8.1-.1.1-.7.1-1 .1h-1.7c-.2 0-.4.1-.6.1h-.7c-.1 0 .3.1.2.2-.1.1-.7.1-.8 0-.2 0-.2-.1-.3-.1h-.4c-.3 0-.4 0-.4.1 0 .2-.6.2-.8.2-.2 0-.5 0-.4.1h1.1c.3 0 .6-.1 1-.1h.5c.2 0 .4 0 .6.1.5 0 1.1-.1 1.4-.1h.4c.4-.1.7 0 1.1.1h2.3c0 .1-.6.1-.7.1h-.8c-.6 0-1.1.1-1.5.1h-.8c-.2 0-.4.1-.6.1h-1.3c-.3 0-.7.1-1 .1H8c-.4 0-.7.1-1 .1h-.8c.5.1 1 0 1.4 0h2c.2 0 1.3-.1 1.4 0 .1 0-.5.1-.5.1-.2 0-1.1 0-2 .1h-1c-.6 0-1 0-1.1.1-.2.2-.9-.2-1.1.1-.1.1.1.2.4.2-.1.1-.3 0-.4.1.3.1.5 0 .6.1.1 0 0 .1 0 .1-.3-.2-.2-.2-.2-.2-.1.1-.5.1-.6.2v.1c0 .1.1.2.2.3.1.1.1.2.4.2.1 0 .8 0 .8.1 0 0-.5.1-.6.1-.1.1.2.1.3.2 0 0 0 .1.1.1s.3.1.3.1H6c-.2 0-.5 0-.6.1-.2.2.8.2 1 .1h1.1c.2 0 .1 0 .3.1h1c0 .1-.8 0-1 .1H10c.2 0 .4-.1.6-.1h.4c.2 0 .4-.1.6-.1h1.2c.1 0 0-.1.1-.1h.8c.1 0-.1 0-.1.1.4 0 1.3.1 1.5 0 0 0 0-.2-.1-.2-.2-.1-.5 0-.4-.1.1-.1.7 0 .8 0 .2 0 1-.1 1.4 0 .1 0 0 .2-.2.2-.1 0-.6 0-.6.1s.8.1.9.1c.2 0 0 .1.3.1h.4c.5 0 1.2.2 1.2.3 0 .1-.3 0-.4.1-.1.1.3.1 0 .1h-.5c-.3 0-.1.1-.4.1-.1 0-.2-.1-.3-.1-.5-.1-1 0-1.3 0H13c0-.1.6 0 .8-.1h.8-2.8c-.1 0 .3.1.2.2-.1 0-.2 0-.4.1.3 0 2.1-.1 1.2.2.2 0 .5 0 .5.1 0 0-.4.1-.5.1 0 0 .2 0 .1.1 0 0-.2.1-.1.1 0 .1.4.1 0 .2.5 0 0 .1-.1.2H8.2c-.4 0-.7.1-1 .1h-.8c-.2 0-.7.1-.8.1-.1 0-.2.1-.1.2h1c.2 0 1.2-.1 1.4 0 0 0-.2.1-.3.1-.1 0 .2.1 0 .1-.2.1-.6 0-.8 0H5.5c-.4 0-.6.2-.4.3.2.1.7.1.8.1h.5c.1 0-.2.2-.4.4-.2.1-.3.2-.4.2-.1.1 0 .3 0 .4 0 .1 0 .2-.1.2 0 .1-.1.2-.1.2l.1.1s-.1.1 0 .1l.1.1c.1.1.2.2.4.2s1.3.1 1.5.2c.3 0 .3.1.6.1h4.8c.1 0 .2.1.3.1.2 0 .3-.1.5-.1.3 0 .7 0 1 .1.1 0 .2.1.1.2-.1 0-.4 0-.4.1s.7.2.6.2c0 0-1.2 0-1.5.1-.3.1-.2.1-.3.1-.3 0-.5-.1-.7 0 0 0 .3.2.4.2.1 0 .3.1.2.1-.2 0-.6-.1-.7-.1-.5-.1-2.2 0-2.7-.1h-.4c-.1 0-.2.1-.3.1-.2 0-.8 0-.8.1s.4.1.3.1c-.1.1-.4 0-.7 0-.1 0-.4 0-.6.1-.3 0-.5 0-.6.1-.1.1.5.3.8.4.4.1 1.4.2 1.1.4-.1.1-.4.1-.5.2-.2.1 0 .1.1.2l-.2.1s.1 0 .2.1c.1 0 0 0 .1.1s.2.1.4.1c0 0 .8 0 .8.1h-.5c-.1 0-.4 0-.4.1-.3.1.8.1 1.2.1H11c.4.1.6.2.6.3 0 0 0 .1.1.1s.3.1.3.1c.1 0 .1.1.1.1s-.3.1-.2.1c0 .1.5.1.3.2s-.3 0-.6 0-.4.1-.7.1c-.5 0-.4-.1-.7-.1-.1 0-.3.1-.3.1-.2.1.6.2.8.3.1 0 .1.1 0 .2H9.4c-.2.1.3.2.4.2.1 0 .1.1.1.1 0 .1-.2.1-.2.1 0 .1.2.2.2.3l-.1.1c0 .1.2.1.1.2-.1 0-.4 0-.2.1h.9c.1 0 0 .1.1.1.1.1.9.2.9.3 0 0 .1.1-.1.1s-1-.3-1.2-.2c.1.1.3.1.4.2.1.1.2.1.4.2.1 0 .4 0 .6.1.4.1.6.2.8.3.2.1.9.2.7.2-.2.1-.4-.1-.7-.1H12c-.2 0-.1.1-.1.1-.1.1-1-.2-1.1-.1-.1 0-.1.1 0 .1.2.1.8.2.5.3-.2 0-.8-.1-.9-.1-.3 0 .2.1.2.2s-.2.2-.5.2c-.1 0-.2-.1-.4-.1s-.2.2-.5.2c-.1 0-.7-.1-.9 0-.4 0-.3.1-.6.1-.2 0-.3-.1-.4-.1-.2 0-.2.2-.2.2s.3.2.4.3c.1 0 .4.1.6.1.1 0 .1.1.2.2.2.1.6.2 1.1.3.2.1.4.1.6.2.6.1 1.3.1 2.1.2.3 0 .6 0 .9.1.4 0 .7.1.9.1h.9c.1 0 .2-.1.3-.1h.3c.3 0 .6-.1.9-.1h1.6c.2 0 .4-.1.6-.1h2.1c.5 0 .7 0 1.1.1.3.1.6.1.9.1.1 0 .2.1.3.1h1.7c.1 0 .6.1.4.2h-1c-.5-.1-.8-.2-1.2-.2h-.6c-.3 0-.4-.1-.6-.1h-.3c-.1 0-.3-.1-.4-.1-.6-.1-.7-.1-.9-.1-.3 0-.3-.1-.5 0 .1.1 1.1.1 1.5.1.5.1 1.2.2 1.6.3.3 0 2.3.2 1.9.3-.3.1-1-.2-1.2-.1.2.1.1.1.3.2.1 0 .3 0 .5.1.5.1.7.1 1.2.1h.9c.2 0 .3 0 .4.1.2 0 .6 0 1 .1s.1.1-.1.1h-3.7c-.2-.1 0-.1-.1-.2-.2-.1-.7-.1-1-.1-.4 0-.7-.1-1-.1.3.1.7.1.6.2-.1.1-.8-.1-.9 0 0 0 .2.1.3.1h.4c.3 0 .2 0 .3.1h.5c.1 0 .3 0 .4.1.4 0 .7 0 1.1.1.9 0 1.9 0 2.8.1.2 0 .4.1.7.1h.8c.1 0 0 .1 0 .1s0 .1.1.1c.1.1.5.1.4.2-.1 0-.4 0-.7.1-.3 0 0 0-.3.1h-1.7c.1.1.7.1 1 .1.2 0 .4-.1.7-.1.3 0 1.3 0 1.3.1s-.4 0-.5.1c.1.1 1.2 0 1.1.2 0 0-1.4.1-1.5.1H27c-.4.1-.6 0-1.1 0-.5 0-.9 0-1.4-.1-.3 0-.7-.1-.7-.1-.3 0-.3.2-.6.2h-.5c-.2 0-.3.1-.4.1h-.6c-.2 0-.4-.1-.6-.1-.3 0-.6 0-.7.1.5.1.9.1 1.3.1.3 0 .8.1 1 0 .2 0 .1-.1.2-.1H24c.2.1 0 .1.2.2.2 0 .4 0 .6.1.4 0 1.3 0 1.5-.1.3-.1-.4-.2-.2-.3h6.7c.5 0 1 0 1.5-.1h7.4c.1 0 .3-.1.4-.1h1c.2 0 1-.1 1.1-.1 0 0-.1-.1-.3-.1-.5-.1-1.2 0-1.7 0-.1 0-.2-.1-.3-.1-.3-.1-.8-.1-1.1-.1-.3 0-.7.1-.9.1.3 0 .5 0 .5.1s-1.3.2-2.1.2h-1c-.1 0-.1 0-.2-.1-.3 0-.4 0-.7.1-.4.1-.8.1-1.1.1h-.7c-.2 0-.3.1-.4.1h-.6c-.2 0-.5-.1-.8-.1-.2 0-.3.1-.4.1-.2 0 0-.1-.1-.1-.1-.1-.3-.1-.2-.1.1-.1.4-.1.5-.1.7 0 1.6 0 2.3-.1h1.4c.1 0 .3.1.4.1.2 0 .7-.1.8-.2l-.1-.2h-1c-.4 0-.5.1-.8.1-.1 0-.3-.1-.3-.1-.1-.1.1-.1-.1-.2s-.7 0-.6-.1l.5-.1h.5c.7 0 1 0 1.2-.2.1-.1 0-.1-.2-.1-.5-.2.6-.1.9-.1.3 0 1.1-.1 1 .1 0 .1-.5 0-.5.1h2.6c.2-.1-.1 0-.1-.1s.1-.1.1-.1-.2-.1-.3-.1c0 0 0-.1.1-.1.3-.1.4 0 .8 0H44c.2 0 .7-.1.8-.1h1.9c.2 0 1.1 0 1.2.1 0 0-.4.1-.6.1h-1c-.2 0-1 0-1 .1.1.1.9 0 1 .1-.1 0-.4 0-.5.1v.1l.7.1c.2 0 .3-.1.5-.1h.7s-1 0-.9-.1h2.1c.2 0 .7-.3.7-.3 0-.1-.2-.1-.1-.2 0 0 .2-.1.3-.1h1.4c.6 0 1.3.1 1.9.1.5 0 .8-.1 1.2-.1h1.2c.2 0 .2.2.4.2 0-.1-.3-.2 0-.3h.4c0 .1.4 0 .4.1.1.1-.5.2-.1.2.1 0 .2-.1.2-.1l.2-.1s-.3-.1-.4-.1c-.1 0-.1-.1-.1-.1-.2-.1-.6 0-.5-.1 0-.1.5 0 .5-.1-.7-.1-1.1 0-1.7.1.2 0 .6 0 .7.1.1.1-.7.1-.8.1-.2 0-.6 0-.9.1h-.7c-.4 0-1 .1-1.5.1s-1.1 0-1.6.1h-2.5c-.1 0-.3.1-.5.1h-.2c-.2 0-.7.1-.7 0-.1 0 .5-.2.1-.1-.2.1-.4.1-.7.1h-.6c-.3 0-.4.1-.7.1.5.1-.1.2-.5.1-.1 0-.1-.1-.2-.1-.2-.1-.4 0-.4-.1s.4 0 .6-.1c-.1-.1-.3 0-.5 0h-1c-.5 0-1 .1-1.4.1-.1 0-.2 0-.3-.1-.2 0-.3 0-.6.1-.6 0-1.3 0-1.5.1-.1 0 0 .1-.1.1s-.5.1-.6.1c-.2 0-.4 0-.7.1h-1.3c-.5 0-1.3.1-1.4.1-.3-.2 1.1-.1 1.2-.1.3 0 1-.1 1.1-.1.1-.1-.2-.1-.3-.1-.3 0-1.1 0-1.3.1-.2 0-.3.1-.4.1H34c-.1 0-.3-.1-.4-.1h-.5c-.1 0-.2.1-.4.1h-5.2c-.2 0-.4.1-.6 0-.2 0-.3-.1-.5-.1-.1.1.3.2-.1.3-.5.1-1.1-.2-1-.2 0 0 .6-.1.5-.1h.4c.1 0 .1-.1.1-.1.1-.1.1-.1-.1-.2-.1-.1-.4-.1-.6-.1h-.4c-.1 0-.1-.1 0-.1.2 0 1.8.1 2 .2.6.1 1 .1 1.5.1.2 0 .4 0 .5.1h2.4c.1 0 0-.1.2-.1h5.5c.2 0 .4-.1.6-.1h2.8c.1 0 .6-.1.6-.1.2 0 .2-.1.4-.1h1.4c.3 0 .4.1.7.1.1 0 .1-.1.3-.1.1 0 .5-.1.5-.1s-.8-.1-1-.1c-.3 0-.9.1-1.4.1-.4 0-.5 0-.9-.1-.3 0-.7 0-.6-.1h.4c.4-.1.4-.1.3-.2 0 0-.1-.1 0-.1 0 0 .1 0 .2-.1.1 0 0-.1.1-.1h.7c.5 0 1.1-.1 1.6 0 .1 0 .1 0 .2.1h.5c.2 0 .2.1.3.1.2 0 .2-.1.5-.1h.4c.1 0 .1 0 .2-.1h1.8c.2 0 .5-.1.9-.1h.5c.2 0 .2-.1.4-.1.1 0 .3 0 .5.1.3-.2.7 0 1.2 0h.8c.1 0 1.4-.1 1.4 0h-2.4c-.2 0-.4.1-.6.1h-.9c-.3 0-.3.1-.6.1-.1 0-.2 0-.3-.1H48c-.3 0-.9 0-1 .1l.1.1c-.1 0-.9 0-1.1.1h-.4c-.4 0-1.3.1-1.6 0-.1 0-.1-.1-.3-.1-.3 0-1.1.1-1.3.1-.2 0-.3.1-.4.1h4.5s.6 0 .6.1-.6 0-.6.1c-.1-.8.2-.8.5-.8s.6-.1.9-.1c.2 0 .3.1.4 0-.9-.2.7-.2 1-.2h4.1c.6 0 1.5-.1 2.2-.1.2 0 .5.1.7 0 .4 0 .9-.1 1.4-.1h1.5c.3 0 .8-.1.9-.1.1 0 0-.1 0-.1s.1 0 .1-.1c.1-.1.1-.1.3-.1.3-.1.4-.1.7-.1.1 0 .4-.1.5 0 .1.1-.1.1-.2.1.3.1.6.1.5.1 0 .1-.6.1-.7.1.2.1.5 0 .8 0h1.8c.4 0 .8.1 1 .1.3 0 .7-.1.8-.1.1-.1 0-.1.2-.2s.5 0 .6-.1c0 0-.3-.1-.2-.2.2-.1.7 0 .9 0 .6 0 1.2 0 1.6-.2.1 0 .1-.1.3-.2.2 0 .1 0 .4.1h.5c.2 0 .2.1.4.1s.4-.1.5-.2c.3-.1 0-.1-.1-.2v-.1c0-.1-.2-.2-.7-.2-.2 0-.3.1-.5.1h-1.1c-.4 0-.8-.1-.4-.2.1 0 .3-.1.3-.1h1.5c.3 0 .5-.1.8 0 .2 0 .2.1.3.1.3.1.7 0 1.1 0 .4 0 .8.1 1.1 0 .3 0 .7-.1 1-.1.1 0 .3.1.5.1h.4c.5 0 .7.1.3.2.5 0 .9.1 0 .1h-2.8c-.4 0-1 0-1.1.1 0 0 .3.1.4.1.1 0 .2 0 .3-.1.1 0 .2-.1.4 0 .4 0 .5.1.9.1.3 0 .6-.1.9-.1h6.3c.6 0 1.3-.1 1.8-.1.1 0 .2.1.3.1h1c.2 0 .1-.1.3-.1h.2c.3.1.5 0 1.1.1h1c0 .1-.2 0-.4.1-.2 0-.1.1-.2.1s-.4 0-.7.1c-.3 0-.2.1-.5.1s-.2-.2-.5-.2h-1c-.4 0-.7 0-1 .1h-2c-.2 0-.4.1-.5.1h-1 .2c-.7.1-1.4.1-2.1.2H80c.2 0 1.1 0 1 .1 0 0-.6 0-.7.1 0 0 0 .1.1.1h1.2c.1 0 .3 0 .5.1h1.5c.1 0 .4-.1.5-.2.1-.1-.2-.2 0-.2h2.2c.3 0 .6-.1.9-.1.2 0 .5.1.7 0-.1 0-.2-.1-.3-.1l.1-.1h-.2c-.2-.1.3 0 .4-.1.1 0-.1-.1-.2-.1l.1-.1c0-.1-.2 0-.5-.1-.1 0-.1-.1-.2-.1h-.4c-.2 0-.1.1-.2.1h-.8c-.3 0-.2-.2-.5-.2h-.9c-.8 0-1.1 0-1.8.1-.3 0-.7 0-.8.1.2 0 .3 0 .5.1.3 0 .7 0 .6.1H81c-.6 0-1.3.1-1.9-.1-.2 0-.1-.1-.3-.1h-1c-.1 0-.3.1-.4.1-.3 0-.6 0-.5-.1.2-.1.7 0 .9-.1-.2 0-.4-.1-.4-.1h1c.2 0 .3-.1.6-.2h.7c.2 0 .1.1.2.2h2.9c.3 0 .5.1.7 0 .2 0 .2-.1.4-.1h3.5c.3 0 .4 0 .7.1h1.5c1 .1-.3.2-.5.2h-.9c.4.1 1.3 0 1.7.1.1 0 .1.1.3.1.2.1.4 0 .3.1 0 0-.4 0-.5.1-.2 0-.4 0-.4.1h2.8c.1 0 0-.1.1-.1.2-.2.6-.1.8-.1h.5c.3 0 .5.1.8.1.2 0 .4-.1.6-.1h.8c-.1 0 .6-.1.5 0 0 0-.2.1-.4.1h-.4c-.5 0-.9-.1-1.1 0-.2 0-.3.1-.3.1.1.1.7.1.8.1.1 0 .1-.1.2-.1h.9c0 .1-.3.1-.2.1h1.4c.1 0 .2.1.3.1h.8c.2 0 .4-.1.7-.1.1 0 .3 0 .4.1h4.9c.1 0 1-.1.8 0h-3.1c-.2 0-.3.1-.5.1h-5.9c.6.1 1.2 0 1.9 0 .1 0 .3 0 .5.1h1.5c.2 0 .3-.1.4-.1h1.8c.1 0 .2.1.3.1h1.1c.2 0 .3-.1.5-.1.1 0 .3 0 .5.1h1.1c.1 0-.1.2.2.2.3-.1.3-.1.5-.1.3 0 .2.1.2.1-.2.1-.5 0-.7 0 0 0-.1 0-.2.1-.3 0-1.1 0-1.1-.1s.8 0 .7-.1h-1.6c.2 0 .6 0 .6.1s-1.6 0-1.6.1l.6.1h-1.6c-.1 0-.1-.1-.2-.1h-1.5c-.1 0 .1.1-.1.2h-.4c-.6 0-.5-.1-.7-.2 0 0-.1 0-.2-.1s0-.1-.1-.1h-1.8c-.4 0-.8.1-1 0-.3 0-.6-.1-.5-.2 0 0 .5 0 .3-.1-.4 0-.7 0-1-.1h-1.8c-.6 0-1.2.1-1.6.1-.1 0-.1 0-.3-.1h-1.4s-.1.1-.2.1h-.3c-.6 0-.3.2.4.2h.6c.1 0 .1.1.3.1.3 0 1 0 1 .1s-.8 0-1 0c-.5 0-.8 0-1 .1.2.1 1.4 0 1.4.1s-.7 0-.9.1c.3.1.6 0 .8 0 .1 0 .3.1.6.1H93c.2 0 .9 0 .8-.1h-.5c-.2 0-.8.1-.8 0s.5 0 .7 0c.4 0 .7-.1 1 0 0 0 0 .1.2.1s.6 0 1 .1h1c.2 0 .3-.1.4-.1h.7c.2 0 .3.1.5.1h1.4c.4 0 .7.1 1.1 0 .1 0 .3 0 .4-.1h.4c.1 0 .1-.1.3-.1h2.6c.3 0 .4 0 .6.1h1.6c.1 0 .6 0 .6.1 0 0-.4.1-.3.1h-.8c-.6 0-1.2.1-1.6.1H99c-.4 0-.8.1-1.2 0h-.5c-.2 0-.6.1-1 .1h-.5c-.3 0-.6.1-1 .1-.6 0-1.2-.1-1.7 0-.1 0-.6.1-.6.1.1.1 1.3.1 1.4.1.1 0 .2.1.4.1h1.9c0 .1-.9 0-1.2 0-.5 0-.9.1-1.2.1-.2 0-.4-.1-.4 0h3.9c.4 0 1.8.1 2 0 .1 0-.1-.1-.2-.1s-.1.1-.3 0c-.1 0-.2-.1-.3-.1-.2 0-1 0-.9-.1.1-.1.9 0 1 0 .2 0 .3-.1.6-.1h2.7c.3 0 .4-.1.6-.1h1.8c.2 0 .5.1.8.1.1 0 1.1-.1 1.1 0 0 0-.5 0-.7.1-.2 0-.8 0-.7.1h.7c.3 0 1 0 .7.1-.2.1-.6.1-.9.1-.2 0-.4-.1-.5-.1-.1 0 .1.1-.1.1h-5.4c-1.2 0-2.5 0-3.5.1h2.1c.1 0-.1.1-.3.1h-1c-.3 0-.4 0-.7.1h-2.1c-.1 0-.1.1-.1.1.1.1.7-.1 1.2-.1h.4c.9 0 .6.2-.1.2h-.8c-.1 0-.3-.2-.5-.1-.1 0 .2.1.1.1 0 0-.4 0-.4.1l.1.1-.1.1c-.2.1-.5 0-.7.1.5.1 1.1 0 1.6 0h1c.1 0 .3-.1.4-.1-.3 0-.2.1-.3.1h-1.2c-.5-.2.8-.1 1-.1h.6c.3 0 .6-.1.9 0-.1.1-.2 0-.3.1.3 0 .6 0 .4.1-.1 0-.2 0-.2.1 0 .2-.7.1-1 .1h-1.2c-.2 0-.5 0-.4.1h1c.1 0 1-.1.9 0 0 0-.8.1-1.1.1h-1.4c-.3 0-.5-.1-.7-.1-.4 0-.7.1-1.1.1l-.4-.1c-.3-.1.2-.3-.5-.3-.4 0-.7.1-1 .1.1 0 1.1 0 1 .1l-.6.1c-.3 0-1.1.1-1.2 0-.1 0 0-.2-.1-.2-.3-.1-1.1-.1-1.3-.2-.1 0 0-.1 0-.2 0 0-.2 0-.3-.1-.2-.1.2-.1.4-.1s.2.1.3.2h1.5c.2-.1-.2-.1-.1-.2.1 0 .1 0 .5-.1-.1 0-.4 0-.6-.1-.1 0-.1-.1-.3-.1-.2 0-.4-.1-.6-.1-.2 0-1 .1-1 0s.9 0 1 0c.4 0 .7-.1 1.3-.1h1.6c.2 0 .6-.3.6-.3s0-.2-.2-.2h-2c-.1 0-.3-.1-.5-.1h-1.1c-.2 0-.5-.1-.6-.1-.6-.1-.5-.1-1 0h-.5c-.1 0-.2.1-.3.1h-1.1s1-.1 1 .1h-.5c-.3 0-.3 0-.6.1h-1.8c-.3 0-.3 0-.4-.1-.2-.1-.8-.1-1.3 0h-2.7c-.7 0-.4.1 0 .1h.8c.7 0 .8 0 1.5.1-.1-.2.4-.2.9-.2.2 0 .5.1.7.1.1 0 .5 0 .7-.1h5.6c0 .1-.6 0-.9.1-.2 0-.1.1-.2.1h-2c-.6 0-1 .1-1.6.1-.3 0-.7.1-.9.1h-.7c-.3 0-.4 0-.3.1.1 0-.1.1-.3.1-.4-.1.1-.1-.1-.2-.1-.1-.2 0-.4 0s-.2 0-.4.1c-.2 0-.6 0-.7.1-.1 0 .2.1 0 .1-.2.1-1.1.1-1.5.1-.7 0-1.2 0-1.5.1h3.5l-.6.1h-2c.5 0 .8.1 1.1.1.4 0 .4-.1.8-.1h2.6c.2 0 .4-.1.5-.1h.7c.5 0 1 0 .8.1-.1.1-.7.1-1 .1h-1c-.5 0-.4-.1-.8 0h-.4c-.2 0-.3.1-.5.1-.7.1-1.5-.1-2 .1h1.3c.5 0 1.2-.1 1.6 0 .2 0 0 .1.2.1h.4c.1 0 .1.1.2.1.3.1.5 0 .4.1-.1.1-.5 0-.7 0h-.7c-.1 0 0-.1-.2-.1-.4-.1-.8-.1-1.2-.1h-.7c.2.1.7 0 .7.1s-.3.1-.5.1h1.2c.2 0 .6-.1.7 0 .1 0-.1.1-.2.1s-.7 0-.5.1c.2.1 1.1 0 1.1.1 0 0-.7.1-.8.1-.3 0-.6.1-.8.1h-.6c.3.1.5.1.5.1 0 .1-.6 0-.8 0-.2 0-.4.1-.5.1-.2 0-.4 0-.5.1.3.1.6 0 1 0s.8 0 .8.1-.2.1-.1.1c.2.1.8-.1 1.3-.1.2 0 .4.1.5.1h2.8c.1 0 .3-.1.4-.1.2 0 .5.1.6.1.2 0 .2-.1.4-.1s.4 0 .6.1c.3 0 1 0 1.2-.1.5-.1 1 0 1.4-.1.2 0 .5-.1.7-.2.1 0 .3-.1.5-.2.3-.1.6 0 .8-.1-.5-.1-1.5-.1-1.2-.3.1 0 .7-.1.9-.1h.3c.1 0 .3-.1.4-.1.1 0 .1 0 .4.1h.4c.2 0 .4.1.6.1h1c.4-.1.2-.2.6-.2.5 0 .5.3.4.3-.1 0-.3 0-.4.1-.1 0-.1 0-.2.1-.3.1-.6.1-.8.2.5 0 .8 0 1.3.1.2 0 .3.1.4.1.1.7.2.7.6.7.1 0 .2-.1.4-.1s.8.1 1 .1h.6c.5 0 1 0 1.3-.1.1 0 .1-.1.2-.1h1.3c.2 0 .3.1.5.1.5.1 1 .1 1.3 0 .2 0 .2-.1.3-.1.1 0 .5-.1.6 0 .3 0 .3.1.6.2h.6c.1 0 0-.1.1-.1.1-.1.4 0 .5-.1-.2 0-.5 0-.8-.1-.3 0-.6.1-.8 0-.2-.1.4-.2.5-.3.1 0 0-.1.2-.2h1.9c.2 0 .3 0 .5.1.4 0 .5.1.7.2.2.1.8.2.7.3-.1.1-.6.1-1 .1-.1 0-.1 0-.3-.1h-.9c-.1 0-.1.1-.1.1.1.1.5 0 .9 0 .2 0 .4.1.6.1.1 0 .1 0 .2-.1h1.9c.2 0 .9-.1 1-.2.1 0-.1-.1 0-.1h.9c.3 0 .5.1.7.1h1.4c.5 0 .9-.1 1.3-.2.1 0 .1-.1.2-.1s.2 0 .3-.1c.2 0 .3-.1.5-.1s.4-.1.6-.1c.2 0 .4-.1.6-.1.3-.1.6-.3.6-.4 0 0-.4-.1-.2-.2h.7c.1 0 .2.1.3.1.1 0 .1-.1.2-.1h.2c-.2-.1-.7 0-.7-.1 0 0 .5-.2.6-.2.3-.1.5-.3.8-.4.6-.2 1.1-.4 1.5-.6.1-.1.2-.2.4-.2.3-.1.7 0 1.2 0h.9c.2 0 .3-.1.5-.1.1 0 .3.1.4.1h1.7c.1 0 .1-.1.2-.1s.4 0 .4-.1c-.2-.1-.3-.1-.3-.1s.2 0 .3-.1c.1 0 .2-.1.3-.1h.7c.2 0 .3.1.5.1s.7-.1.8 0l-.7.1c-.3 0-.6 0-.6.1h1.7c0 .1-.4 0-.6.1-.1 0-.2.1-.3.1-.6.1-1.7 0-2.2.1.4 0 .9.1 1.3.1h.7c.3 0 .7 0 .9.1.3 0 .5.1.7.1.2 0 .2-.1.3-.1.2-.1.3-.1.1-.1-.2-.1.1-.1.3-.1-.8-.1.4-.1.7-.1h1.2c.1 0-.1-.1 0-.1.2-.1.9 0 1.1 0 .2 0 .5-.1.8-.1h.3c.3 0 .8 0 .8.1l-.4.1c-.1 0 0 .2.1.2s1.1.1 1.2.1c.3 0 .1-.1.4-.1.3 0 .3.1.3.2h-.3c-.4 0-.3 0-.6.1-.2.1-.4.1-.4.1s.1 0 .1.1c.1.1-.1.1.1.1h1.3c.5 0 1.3 0 1.6-.1.1 0 .1-.1.1-.1l-.1-.1.1-.1c.1-.1.2-.1.7-.1h6.3c.1 0 .1-.1.2-.1.2 0 .1.1.3.1.1 0 .4-.1.7-.1h1.5c.5 0 1.1 0 1.6.1h.7c.1.1-.7 0-.7.1.6.1 1.5.2.7.3.4 0 .9 0 1.4.1h2.7c.2 0 1.3 0 1.2.1-.1.1-.6 0-.7.1-.3 0-.5 0-.7.1.6.1 1.5 0 2.1 0h2.7c.4 0 .7.1 1 .1.3 0 .2-.1.5-.1.2 0 2.3 0 2.1.1-.1.1-.5 0-.8 0h-.8c-.6 0-1.2.1-1.6 0-.6 0-1.2-.1-1.7-.1.2.1.5 0 .6.1h.5c.3 0 .5 0 .8.1h.8c.3 0 1.3 0 1.2.2 0 .1-.6 0-.7.1-.3 0-.1.1-.4.1-.4 0-.4-.1-.8-.1-.2 0-.1.1-.3.1h-.5c-.1 0-.2-.1-.4-.1-.5-.1-1.1-.2-1.5-.2h-.1c.2.1.9 0 .8.1 0 .1-.9 0-1 0-.2 0-.3-.2-.5-.2h-.9c-.6.1.6 0 .8.1.1 0 .1.1.1.1.3.1.9 0 1.2 0 .1 0 .3 0 .5.1h1.5c.3 0 .2.1.5.1.2 0 0-.1.2-.1.1 0 .6-.1.7 0 .1 0-.1.1-.1.1 0 .1.3 0 .1.1-.2.1-.6 0-.6.1.5.1 1.4 0 2 .1.6 0 .3.2.6.2h.8c-.2-.1 1.1-.2 1.1-.3 0 0-.1-.1-.2-.1s-.2 0-.3-.1c-.1 0 0-.1-.1-.1h-.4c-.2 0-.1-.1-.2-.1h-.8c-.5 0-.8 0-1-.1-.2-.1-.1-.1.3-.1s1 .1 1.3 0c.2 0 0-.1.3-.1.2 0 .2 0 .3.1h1.9c.3 0 .5 0 .7.1.2 0 .3 0 .4.1.2 0 .9-.1.9 0s-1.2 0-1.1.1c.3.1 1.1 0 1 .1-.1.1-.5 0-.8.1-.1.1.2 0 .1.1 0 0-.4.1-.3.1.1.1.5 0 .7 0h1c.6 0 1.4.1.7.2.3 0 .9.1 1.3.1.1 0 .5-.1.5-.1.1 0-.1-.1 0-.1.2-.1.8-.1 1.1-.1.1 0 .7 0 .7-.1s-.7-.1-.8-.2c-.1-.1.2-.1.5-.2-.2 0-.3-.1-.3-.1l.1-.1h.4c.5 0 .7.1.6.2 0 0-.2 0-.3.1l.1.1v.1c.1 0 .6 0 .8.1.4 0 1.3.1 1.6.1.1 0 .1-.1.2-.1.4-.1.6.1.9.1h.6c.1 0 .1-.1.1-.1.2-.1.4 0 .6 0h1.7c.5.1 1.1.4 1.5.2-.2-.1-.2 0-.4 0 .2-.1-.1-.2.2-.2h2.7c.5.1.2.1.4.2h.5c.2 0 .3-.1.5-.1h.8c.3 0 .8.1.8.2s-.6.1-1.1.1c-.2 0-.3-.1-.5-.1h-4.1c.6 0 .7.1.4.2h.8c-.1.1-.4 0-.5.1-.1 0-.1.1-.2.1-.2.1-.4 0-.4.1h.8c.2 0 .2-.1.4-.1s.9.1 1.1.1c.2 0 .4.1.6.1h.8c0 .1-.9.1-1 .1-.1.1 1.2.2 1.5.2h1.2c.5 0 1.1.1 1.5.1.3 0 .7-.1.9-.1h.5c.1 0 1.1-.1 1.1-.1h-.1c-.1-.1-.4 0-.8-.1-.3 0-1.3-.1-1.5-.2-.1 0 .1-.1.1-.1 0-.1-.2-.3 0-.4.1 0 .3 0 .4-.1v-.1c0-.1.9-.1 1.1 0 .1 0-.2.1 0 .1.2.1 1.8 0 1.6.2-.1.1-1.2 0-1.3 0h-.2c-.2 0-.4 0-.6.1h1.4c.6 0 .8 0 1.5.1h.8c-.1.1-.3.1-.4.2.4 0 .8.2.3.2h2.1c.1 0-.1-.1 0-.1h.9s.4.1.5.1c.2 0 1.5 0 1.4.1 0 0-.5.1-.8.1h-.8c-.3 0-.6.1-.9.1h-1.3c-.6 0-1.1.1-1.6.1h-.8c-.1 0-.1.1-.3.1h-.8c-.5 0-1.1.1-1.6.1-.6 0-1-.1-1.5-.1h-.4c-.1 0-1 .1-1.1.1-.2 0-.1.1-.3.1h-.5c-.5 0-1-.1-1.4 0-.1 0-.2.1-.4.1h-.4c-.3 0-1.2 0-1.3.1 0 0 .1.1.3.2h2.5c.3 0 .5-.1.8-.1.3 0 .4 0 .7.1h1.7c.5 0 1-.1 1.6-.1.7 0 1.5.1 2.1.1h3.4c.2 0 .4-.1.6-.1.1 0 .3.1.4.1.2 0 .7.1 1 .1h2c.2 0 .2-.1.4-.1s.4.1.8.1c.1 0 .5 0 .7.1h2.1c.9 0 1.9-.1 2.8-.2.5 0 1.4 0 1.8-.2.2-.1.2-.2.5-.3h.3c.3 0 1-.1 1.2 0 .1 0 0 0 0 .1s.3.4.7.2c.2-.1 0-.2.2-.3h.8c.6-.1 0-.2.2-.3.2 0 .2 0 .5.1h.8c.4 0 .7 0 1 .1h.7c.1 0 0-.1.1-.1 0 0 .1-.1 0-.1s-.3-.1-.6-.1c-.1 0-.4.1-.6 0 0 0-.1-.1.1-.2.1 0 .3 0 .4-.1.2-.1.3-.2.4-.3l.2-.1c0-.1-.2-.1-.1-.1.2-.1.5 0 .6-.1 0 0 0-.1-.1-.2-.1 0-.6-.1-.8-.2-.1 0-.1-.1-.2-.1h-.5c-.2-.1 0-.2.1-.2.2-.1.7-.1.7-.2-.1-.1-.6 0-.7-.1-.1 0-.1-.2.1-.2.1 0 .3 0 .4-.1.1-.1-.2-.2-.2-.2s.1-.1.2-.1v-.1c0-.1.3-.2.6-.2.2 0 .4 0 .5-.1.2-.1-.2-.2-.3-.3-.1-.1-.2-.2-.1-.3.2-.1.7-.1.8-.1.3 0 .4.1.7.1.1 0 .1-.1-.2-.2-.1 0-.4-.1-.4-.1s-.1-.1 0-.2c0 0 .2 0 .2-.1v-.1c0-.1.2-.1.5-.2.2 0 .4-.1.4-.1l-.1-.1c-.1 0-.3-.1-.4-.1-.1-.1 0-.1-.2-.1s-.9 0-.9-.1c-.1-.1.4-.2.5-.2v-.1l.1-.1-.1-.1s.2-.1.3-.1c.1-.1.1-.1 0-.2-.2-.1-.8-.1-1.1-.1 0 0-.6 0-.7-.1-.1 0 .2-.1.1-.2-.2-.1-.6.1-1 0-.4 0-.5-.2-.4-.2h.4c.2 0 .2-.1.3-.1.3 0 .5 0 .7-.1.1-.1-.3-.1-.3-.1.1-.1.3-.1.4 0 .4 0 .1.1.3.2h.5c.1 0 .2-.1.4-.1.1 0 .4 0 .5-.1.1-.1-.1-.2-.1-.2h-1s.6-.1.7-.1c.1 0-.2-.2-.1-.3 0 0 .1-.1.2-.1s0-.1.1-.1h.5c.2 0 .3 0 .4-.1.1 0 0-.1 0-.1s.1-.1 0-.1c-.1-.1-.5-.1-.6-.1-.1 0 .1 0 0-.1 0-.1-.2-.1-.1-.1.1-.1.8-.1.9-.1.1 0-.1-.1-.1-.2 0 0 0-.1.1-.1l.1-.1c0-.1-.2-.1-.2-.2v-.1l.1-.1s-.1-.1-.2-.1l-.1-.1c0-.1.3-.1.3-.1s-.2 0-.4-.1c-.1 0-.1-.1-.2-.1-.2 0-.5 0-.6-.1-.2-.1-.3-.2-.4-.3-.1-.1-.4-.1-.4-.1s.3-.1.4-.2c0 0 0-.1.1-.1.3-.1.8-.1 1-.1.1 0 0-.1-.1-.2 0 0-.5 0-.7-.1-.1 0 .1-.1 0-.1 0 0-.2-.1-.3-.1 0 0 .1-.1 0-.1 0-.1-.3-.1-.4-.1-.2-.1-.1-.1-.1-.1h.8c.4 0 .3-.1.3-.2 0 0 .1-.1 0-.1-.3-.1-.6.1-1 0-.2-.1.1-.2 0-.2h-1.3c-.4-.1.3-.2.7-.2h1.9c.2 0 .3-.1.5-.1.1 0 .2 0 .4.1h1.7c.1 0 .3.1.4.1.2 0 .8 0 1 .1.1 0-.1 0-.1.1-.1.1.1.1.5.1h1.3c.1 0-.1-.1-.2-.1 0 0 0-.2.1-.2.2-.1.5 0 .4-.1l-.6-.1c0-.1.8 0 .8-.1-.2-.1-.7-.1-1-.2-.2 0 0-.1-.2-.1 0 0-.3 0-.4-.1h-6.7c-.6-.1-.3-.2-.4-.3-.2-.1-1.2-.1-1.1-.3.1-.1.7 0 .7-.1-.1 0-1-.1-.8-.1h2.3c.2-.1.4-.1.7-.1h1.3l-.1-.2c-.2-.1-.5-.1-.5-.1 0-.1.3-.1.6-.2-1-.2.4-.1.8-.1h3.4c.1 0 .2 0 .3.1.4 0 1.4.1 1.5.1.1-.1-.3-.2-.3-.3 0-.1.2-.1 0-.2s-1.2 0-1.4 0h-1.6c-.1 0 0 .1-.3.1-.3.1-1 0-1.3 0-.2 0-.3 0-.4.1h-1.2c-.1 0-.2-.1-.3-.1h-.5c-.4 0-.6-.1-.4-.1.1-.1 0-.1.2-.1.3-.1.6 0 .8 0 .2 0 .3-.1.6-.1h.3c.2 0 .5-.1.4-.2 0 0-.2 0-.3-.1 0 0-.1-.1-.2-.1h-.2c-.1 0 0-.1-.1-.1-.4-.1-.9-.2-1.3-.2h-2.3s-.3-.1-.1-.1h.6c.3 0 1.5 0 1.6-.1.1 0-.2-.1-.2-.1v-.1c0-.1-.9-.1-1.2-.1-.1 0-.4 0-.3-.1 0 0 .2-.1.4 0 .2 0 .2.1.4.1.1 0 .2-.1.4-.1h.8c.4 0 .7-.1.5-.1h-.7c-.4 0-.6-.1-.9-.1-.1 0-.3-.1-.4-.1h-.4c-.1 0-.2.1-.3.1h-.4c-.5.1-1 0-1.5-.1s-.6-.1-.5-.2c.1 0 .3 0 .4-.1.1 0 .2-.1.2-.1h.9c.2 0 .3.1.5 0 .2 0 .4-.1.6-.1h.5c-.3-.1-.2-.2-.1-.2.1-.1 0-.1.2-.1.1 0 .1 0 .1.1.1 0 .3.1.4.1.2 0 .1-.1.2-.1h1.7c.4 0 .7-.1 1.1-.1h1.7c.6 0 1.2 0 1.7.1.2 0 .3.1.5.1.1 0 .1 0 .3-.1h.5c.4-.1.5-.1.3-.2s-.8-.1-1.1-.1c-.3-.1-.3-.1-.6-.1-.1 0-.1.1-.2.1h-.4c-.2 0-.4 0-.6.1H218c-.2 0-.2.1-.3.1-.2 0-.5.1-.7.1h-1.7c-.2 0-.3.1-.4.1-.2 0-.3-.1-.2-.1.1-.1.8-.1 1.1-.1.1 0 .2-.1.3-.1h.6c.1 0 .1 0 .2-.1h.6c.1-.2-1.2-.1-1.5-.2-.1 0-.1-.1-.1-.1s.1 0-.1-.1c-.1 0-.5-.1-.5-.1s.7-.1 1-.1c.2 0 .2-.1.3-.1-.4 0-1.1-.1-.9-.2h.4c.5-.2-1-.1-.8-.3.1-.1.5 0 .6 0 .3 0 .9 0 1-.1.1 0 0 0 .1-.1h.1c.2-.1-1-.2-1-.2 0-.1.5-.1.7-.1.4 0 .6 0 .7-.1-.2-.1-.4 0-.6-.1-.4-.1-.3-.3-.5-.3-.2-.1-.6-.1-.6-.1 0-.1.5-.1.8-.1h.6c.1 0 0-.1-.1-.2s-.2-.2.3-.2c.4 0 1.1 0 1.8.1h1.8c.2 0 .4.1.6.1h1.1c.5 0 1 .1 1.4 0 .1 0 .4-.1.4-.1s-.2-.1-.3-.1c-.3-.1-.9-.2-1.1-.2.1 0 .3 0 .4-.1-.3 0-.1-.1-.1-.2s-.2-.1-.2-.2c0 0 0-.1.1-.2h.9c.1-.1-.9-.1-1-.2 0 0 .2-.1.3-.1.1 0 .2-.1.2-.2s-.3-.1-.3-.1c0-.1.3-.1.5-.1-.2 0-.3-.1-.2-.1.1-.1.5-.1.6-.1v-.1l-.3-.1s.4 0 .4-.1c0 0-.3-.1-.2-.2.1 0 .4 0 .4-.1s-.4-.1-.5-.2c-.1 0-.4-.2-.3-.3 0 0 .3-.1.4-.1v-.1c0-.1-.3-.2-.1-.3.1-.1.6-.1.6-.1l-.1-.1c-.1-.1-.2-.1-.4-.2-.2 0-.4-.1-.6-.1-.3 0-.9 0-.8-.1.1-.1 1 0 1 0 .2-.1-.4-.2-.2-.2.1-.1.3 0 .5-.1-.3-.1-1.1-.1-1.3 0-.1 0 .1.1 0 .2h-1.3c-.2 0-.3.1-.4.1h-.8s-.1.1-.2.1-.7.1-1.2.1c-.3 0-1.3 0-1.2-.1.1-.1 1 .1 1 0 0 0-.3-.1-.4-.1-.2 0-.5-.1-.7-.1-.5-.1-.8 0-1.1 0-.4-.1-.2-.1-.2-.1.2-.1-.5-.1-.7-.1h-.8c-.2 0-1.4 0-1.4-.1l.5-.1h3.3c.1 0 0-.1.2-.2.1 0 .3-.1.3-.1 0-.1-.3 0-.1-.1.2 0 .8 0 .9-.1 0 0-.1-.1-.2-.1-.4-.1-.5 0-.7 0h-.4c-.1 0 .1-.2.2-.2h1.5s-.1 0-.1-.1c0 0 .1-.1.2-.1.2-.1 1.5 0 1.8 0h1.3c1 0 .1.1-.2.2.4 0 .7 0 1.2.1s.3 0 .6-.1c.2-.1.5 0 .6-.1 0 0-.1 0-.2-.1-.1 0 0-.1-.1-.1s-.4-.1-.5-.1c-.3 0-.7-.1-.8-.1h-2.9c-.1 0-.2.1-.3.1h-.6c-.1 0-.2 0-.3-.1h-6c-.2-.1.8-.2 1-.2h1.3c1.1 0 2.7.1 3.6 0 .2 0 .3-.1.5-.1h.7c.4 0 .7-.2.3-.3h-.2c-.2 0-.8 0-1-.1-.1 0 0-.1 0-.1l-.1-.1c-.1 0-.4-.1-.5-.1-.3-.1-.3-.2-.6-.2h-.5c-.2 0-.5-.1-.7-.1 0-.1.2 0 .3-.1.1 0-.2-.1-.1-.1h.4-1.2c-.1 0 .1 0-.1.1h-.8c-.4 0-1.3-.1-1.1-.2.2-.1 1.1 0 1.3 0h2.9c.1.1-.4 0-.4.1.3 0 .6.1.8-.1.1-.1-.3-.1-.2-.2 0 0 .4-.1.6-.1.2 0 .9.1.9 0 0 0-.2-.1-.3-.1-.3-.1-.9-.1-.6-.2h1.9c.2 0 .1.1.1.1 0 .1 0 .1-.2.1.4 0 .7.1 1.1.2.2 0 .6 0 .9.1.4 0 .7.1 1 .1.2 0 1 0 1.1-.1.1 0 .1-.1.1-.1.1 0 .4 0 .5-.1.2-.1 0-.1.1-.2.1 0 .2 0 .3-.1 0 0-.3 0-.4-.1-.1 0 0-.1 0-.1-.1-.2-.8-.2-1.6-.2-.4 0-.9-.1-1.2-.2h-.5c-.3 0-.4.1-.7.2h-2.2c-.4 0-.6 0-.9-.1-.6-.1-1.2-.2-.7-.3.4-.1.8-.1 1.2 0-.3 0-.5-.1-.4-.1.2-.1.7.1 1 .1.1-.1-.8-.2-1.1-.3-.1 0-.1-.1-.1-.1.1-.1.2 0 .4-.1-.4-.1-.6-.2-1.3-.3-.1 0-.5.1-.8.1H213c-.7-.1.5-.1.4-.1.4 0 1.1.1 1.3 0 .1 0 0-.1 0-.1 0-.1.3-.1.8-.1h5.5c.2 0 .3.1.5.1h.4c.1 0 .2 0 .3.1.4 0 1 .1 1.2.1.1 0 .1-.1.3-.1h.2c.3 0 .2-.1.2-.2 0 0 0-.1-.1-.1s-.4 0-.5-.1v-.1c.1-.1.2 0 .5-.1-.5-.1-.2-.2.3-.1-.1-.1.2-.1.2-.2l-.1-.1s0-.1-.1-.1-.4-.1-.6-.1H221c-.1 0-.2.1-.3.1h-.3s.2.1.1.1h-.6c-.1 0 .1-.1 0-.1-.1-.1-.3 0-.3-.1 0 0 .2-.1.2-.2 0 0-.1-.1-.2-.1-.2-.1-.4-.1-.7-.2-.1 0-.4 0-.3-.1.1-.1.8 0 .9-.1h-.6c-.6 0-1.1-.1-.7-.2h1.2c.7 0 1.2 0 1.8.1.5 0 1.5 0 1.9.1.1 0 .3.1.4.1h1c.1 0 0-.1.1-.1.3-.1.7 0 1 0-.1-.1-1.3 0-1.2-.1.2-.1 0 0-.2-.1-.1 0 0-.1 0-.1-.1 0-.3-.1-.3-.1-.4-.1-.9-.1-1.3-.1h-.6c.1 0 .1.1.1.1l-.2.1H220c-.3 0-.3.1-.6.1-.2 0-.5 0-.7-.1-.1 0-.1-.1-.3-.1-.1 0-.3 0-.4-.1-.2-.1 0-.1-.2-.1-.1 0-.7-.1-.4-.2.1 0 .6.1.7.1.2 0 1.4.1 1.5.1.1 0 .1-.2.1-.2-.1-.1-.4-.1-.4-.2.1-.1.4-.1.5-.1.1 0 .1-.1.2-.1s.3 0 .5-.1c-.2 0-.6-.1-1-.1-.1 0-.6 0-.6-.1h.2c.1 0 .6 0 .5-.1-.1-.1-.4-.1-.6-.1-.2 0-.5-.1-.4-.2.1-.1.5 0 .8 0h2.6c.2 0 .3.1.5.1s.6.1.9.1c.2 0 .3 0 .5-.1h.7c0-.1-1.2-.1-1.7-.2-.8 0-1.3 0-1.7-.1h-2.5c-.1 0-.9 0-.9-.1s.3 0 .4-.1c-.1-.1-.4-.1-.4-.1l.1-.1c.1-.1 0-.1.1-.1h2.3c.1 0 .5.1.6.1h.9c.3 0 1 .1 1.6.1h1.5c.2-.1-.3-.1-.5-.2-.1 0-.7 0-.7-.1 0 0 .3-.1.4-.1.1-.1 0-.1-.1-.1-.2 0-.9 0-.9-.1 0 0 .8-.1.9-.1h1.7c-.3-.1-.8 0-.8-.1 0 0 .3-.1.5-.1.3 0 .9.1.9 0-.9.4-1.4.5-1.8.4"/><path class="st0" d="M135.4 1.8c.1 0 .5-.1.5-.1h1.2c.2 0 1.4 0 1.4.1s-.4 0-.6 0h.9c.2 0 .8 0 .7-.1-.1-.1-1.1-.1-1.1-.1-.3 0-.5-.1-.8-.1-.7-.1-1.7-.3-2.2-.2-.1 0-.1.1-.2.1-.2.1-.4 0-.5.1 0 .1.4.3.7.3M128.2 3h.3c-.1 0-.3-.1-.3 0m87.9 31.5h-1.3c.4 0 .9.1 1.3 0m-213.7-8h.1c.1.1-.2.1-.1.1H3c0-.1-.4-.2-.6-.1M16.9 30c-.3 0-.8 0-.9.1.3 0 1 0 .9-.1m53.6 11.3h-1 2.1c-.4-.1-.7 0-1.1 0M48 45.6h-.5c.3 0 .8 0 .9-.1-.1 0-.3.1-.4.1m3.5-.3h1.2c.3 0 .9 0 1.1-.1.3-.1-.3-.2-.6-.3-.1 0-.1-.1-.2-.1h-.4c-.3 0-.5 0-.7.1.2 0 .5 0 .4.1-.1.1-.6 0-.7.1-.1.1.3.1.2.2-.1 0-.2-.1-.3 0m-18.2 1.8h-3c-.2 0-.3 0-.5.1h-.6c-.4 0-.8.1-1.1.1h-1.3c-.4 0-.8.1-1.2.1h-.9c-.4 0-.7-.1-1-.1-.3 0-.4.1-.6 0-.2 0-.5-.1-.7-.1-.2 0-.4.1-.5.1-.1 0-.3 0-.5-.1-.5 0-.7 0-1.1-.1h-1.8c-.4 0-.7-.2-1.2-.1.3 0 .1.2.4.3.1 0 .4 0 .5.1.1 0 .5.1.7.1h.4c.6.1 1.4.3 1.3.3-.1.1-.6-.1-.8-.1h-.9c.1 0 .1.1.3.1.2 0 1.7.2 1.7.2 0 .1-.5 0-.7 0h-.5c.1 0 .1.1.2.2.2.1 1.1.1 1.2.2.1.1-.2.2-.2.2h-.3c-.4 0-.6-.1-.8 0 .1.1.2.1 0 .1-.2.1-1.1 0-1.2.1 0 .1.4.1.6.2.2 0 .2.1.4.1.3 0 .8.1 1 0 .3 0 .4-.1.6-.2.3 0 1 .1 1.3 0-.4-.1-.4-.1-.4-.2-.1-.1-.2-.1-.2-.1s.3-.1.4-.1c.3-.1.8 0 1.2 0 .4 0 1 0 1.2-.1.1 0-.2 0-.2-.1s1.4-.1 1.5 0c.3 0 .5.1.7.1h.6c.2 0 0-.1.2-.1.2-.1.5 0 .7-.1h-.5c-.1 0-.2-.1-.4-.1h-1.1c-.2 0-.2.1-.4.1h-.3c-.2 0-.3-.1-.5-.1s-.4-.1-.5-.1c-.4-.1-.1-.1.1-.2-.7-.1-1.1-.1-1.8-.1-.1 0-1.3 0-1.3-.1s.3 0 .3-.1H26c.1 0-.1.1-.4.1H25c.2 0 .4.1.2.2h.8c.1 0 .2-.1.3-.1.3 0 .7 0 .7-.1 0 0-.2-.1-.4-.1s-.4 0-.3-.1c0-.1.6 0 .9-.1.1 0 .3-.1.4-.1h.9c.5 0 1 0 1.4.1.1 0 .3.1.3.1.1.1 0 .1.1.1h1.6c.2 0 .3.1.5 0-.1-.1-.9-.1-.9-.2 0 0 .4-.1.5-.1h.8c.6.1.8-.1.5-.1"/></svg>