<svg width="24" height="23" viewBox="0 0 24 23" fill="none" xmlns="http://www.w3.org/2000/svg">
<path d="M2.08422 16.41L6.74228 18.1292C6.79226 18.1492 6.84723 18.1592 6.89721 18.1592C7.07714 18.1592 7.25206 18.0493 7.31704 17.8643C7.402 17.6344 7.28205 17.3746 7.05215 17.2896L2.39409 15.5703C2.16418 15.4853 1.90429 15.6053 1.81933 15.8352C1.73436 16.0651 1.85431 16.325 2.08422 16.41Z" fill="black"/>
<path d="M8.02219 18.5994L8.21711 18.6744C8.26709 18.6944 8.32206 18.7044 8.37204 18.7044C8.55197 18.7044 8.7269 18.5944 8.79187 18.4095C8.87683 18.1746 8.75688 17.9197 8.52698 17.8347L8.32706 17.7598C8.09716 17.6748 7.83727 17.7947 7.7523 18.0246C7.67234 18.2595 7.79229 18.5144 8.02219 18.5994Z" fill="black"/>
<path d="M2.08422 14.5849L5.76768 15.9443C5.81766 15.9643 5.87264 15.9743 5.92262 15.9743C6.10754 15.9743 6.27747 15.8643 6.34244 15.6794C6.42741 15.4495 6.30746 15.1896 6.07755 15.1047L2.39409 13.7402C2.16418 13.6553 1.90429 13.7752 1.81933 14.0051C1.73436 14.24 1.85431 14.4999 2.08422 14.5849Z" fill="black"/>
<path d="M2.08422 12.7752L5.76768 14.1346C5.81766 14.1546 5.87264 14.1646 5.92262 14.1646C6.10754 14.1646 6.27747 14.0547 6.34244 13.8697C6.42741 13.6398 6.30746 13.3799 6.07755 13.295L2.39409 11.9355C2.16418 11.8506 1.90429 11.9705 1.81933 12.2004C1.73436 12.4353 1.85431 12.6902 2.08422 12.7752Z" fill="black"/>
<path d="M22.5856 10.9167H22.4856V4.4294C22.4856 4.28446 22.4157 4.14452 22.2957 4.05956C22.2657 4.03957 22.2307 4.01958 22.1958 4.00458L11.3953 0.0262391C11.2953 -0.00874635 11.1853 -0.00874635 11.0854 0.0262391L0.294877 4.00458C0.114952 4.06955 0 4.23948 0 4.4294V17.2441C0 17.434 0.114952 17.5989 0.294877 17.6639L11.0904 21.6472C11.1404 21.6672 11.1903 21.6772 11.2453 21.6772C11.3003 21.6772 11.3503 21.6672 11.4002 21.6472L14.9538 20.3378V21.5323C14.9538 21.9021 15.0937 22.252 15.3586 22.5119C15.6185 22.7718 15.9683 22.9217 16.3382 22.9217H22.5906H22.6056C23.3653 22.9217 23.99 22.302 24 21.5323V12.3311C23.99 11.5564 23.3603 10.9217 22.5856 10.9167ZM20.3815 10.102H19.5718V5.81383L21.586 5.06914V10.9167H21.4761C21.3311 10.4419 20.8863 10.102 20.3815 10.102ZM20.8213 11.2366V11.2666C20.8213 11.5015 20.6314 11.6914 20.3965 11.6914H18.5473C18.3124 11.6914 18.1224 11.5015 18.1224 11.2666V11.2366C18.1224 11.0017 18.3124 10.8117 18.5473 10.8117H20.3965C20.6314 10.8117 20.8213 11.0017 20.8213 11.2366ZM10.7955 20.5827L0.894627 16.9292V5.06914L10.7955 8.72262V20.5827ZM11.2403 7.93295L1.73928 4.4294L11.2403 0.925864L20.7414 4.4294L19.127 5.02416L14.444 3.28988C14.344 3.25489 14.2341 3.25489 14.1341 3.28988L9.29613 5.07414C9.1212 5.13911 9.00125 5.30404 9.00125 5.49396C9.00125 5.68388 9.1162 5.84881 9.29613 5.91379L12.9996 7.27822L11.2403 7.93295ZM17.8326 5.49896L14.289 6.80841L10.7455 5.49896L14.289 4.1895L17.8326 5.49896ZM14.9488 19.3782L11.6901 20.5827V8.72262L13.8392 7.92795V13.0258C13.8392 13.1708 13.9092 13.3107 14.0292 13.3957C14.1041 13.4506 14.1941 13.4756 14.284 13.4756C14.334 13.4756 14.389 13.4656 14.439 13.4456L14.9438 13.2607V19.3782H14.9488ZM14.9488 12.3011L14.7339 12.3811V7.59808L18.6772 6.14369V10.102H18.5423C18.0375 10.107 17.5927 10.4419 17.4477 10.9217H16.3432C15.9683 10.9217 15.6185 11.0716 15.3536 11.3365C15.0987 11.5964 14.9538 11.9363 14.9488 12.3011ZM23.2803 21.5273C23.2803 21.9021 22.9754 22.207 22.5956 22.207H16.3332C15.9683 22.207 15.6685 21.9121 15.6585 21.5423C15.6585 21.5373 15.6585 21.5323 15.6585 21.5273V12.3311C15.6585 12.1462 15.7284 11.9713 15.8584 11.8413C15.9883 11.7114 16.1633 11.6364 16.3482 11.6314V11.5964V11.6314H17.4677C17.6227 12.0962 18.0475 12.4061 18.5373 12.4061H20.3865H20.3965C20.8863 12.4061 21.3161 12.0962 21.4661 11.6314H22.5856C22.9704 11.6364 23.2803 11.9463 23.2803 12.3311V21.5273Z" fill="black"/>
<path d="M16.6587 15.5296C16.6587 15.5296 16.6637 15.5296 16.6587 15.5296H16.9986C17.1785 15.5296 17.3235 15.3846 17.3235 15.2047C17.3235 15.0248 17.1785 14.8798 16.9986 14.8798H16.9836V14.0002H17.8782C17.9182 14.1351 18.0432 14.2251 18.1881 14.2201C18.368 14.2201 18.513 14.0752 18.513 13.8952V13.6803C18.513 13.5004 18.368 13.3555 18.1881 13.3555H16.6637C16.4838 13.3555 16.3439 13.5004 16.3439 13.6803V15.2047C16.3389 15.3846 16.4838 15.5296 16.6587 15.5296Z" fill="black"/>
<path d="M16.6628 18.4835H18.1871C18.367 18.4835 18.512 18.3386 18.512 18.1587V16.6393C18.512 16.4594 18.367 16.3145 18.1871 16.3145H16.6628C16.4828 16.3145 16.3379 16.4594 16.3379 16.6393V18.1637C16.3429 18.3386 16.4878 18.4835 16.6628 18.4835ZM16.9876 16.9592H17.8673V17.8388H16.9876V16.9592Z" fill="black"/>
<path d="M17.0036 20.7987H16.9886V19.919H17.8632C17.8682 20.099 18.0132 20.2389 18.1931 20.2389C18.368 20.2339 18.508 20.094 18.513 19.924V19.6142C18.513 19.4342 18.368 19.2843 18.1881 19.2793H16.6637C16.4838 19.2843 16.3389 19.4342 16.3439 19.6142V21.1385C16.3439 21.3084 16.4838 21.4484 16.6537 21.4484C16.6587 21.4484 16.6587 21.4484 16.6637 21.4484H17.0036C17.1835 21.4484 17.3285 21.3035 17.3285 21.1235C17.3235 20.9436 17.1785 20.7987 17.0036 20.7987Z" fill="black"/>
<path d="M18.9327 13.7557L17.983 14.7003L17.6932 14.4104C17.5682 14.2854 17.3633 14.2854 17.2334 14.4104C17.1084 14.5353 17.1084 14.7403 17.2334 14.8702L17.7531 15.385C17.8781 15.5099 18.083 15.5099 18.208 15.385L19.3825 14.2105C19.5074 14.0855 19.5074 13.8806 19.3825 13.7557C19.2625 13.6257 19.0576 13.6257 18.9327 13.7557Z" fill="black"/>
<path d="M18.9327 19.7277L17.983 20.6773L17.6932 20.3874C17.5682 20.2625 17.3633 20.2625 17.2334 20.3874C17.1084 20.5124 17.1084 20.7173 17.2334 20.8472L17.7531 21.362C17.8781 21.487 18.083 21.487 18.208 21.362L19.3825 20.1875C19.5074 20.0626 19.5074 19.8576 19.3825 19.7327C19.2625 19.5978 19.0576 19.5978 18.9327 19.7277Z" fill="black"/>
<path d="M22.2505 14.1406H20.2213C20.0414 14.1406 19.8965 14.2856 19.8965 14.4655C19.8965 14.6454 20.0414 14.7904 20.2213 14.7904H22.2505C22.4304 14.7904 22.5754 14.6454 22.5754 14.4655C22.5704 14.2856 22.4254 14.1406 22.2505 14.1406Z" fill="black"/>
<path d="M22.2505 17.0996H20.2213C20.0414 17.0996 19.8965 17.2445 19.8965 17.4245C19.8965 17.6044 20.0414 17.7493 20.2213 17.7493H22.2505C22.4304 17.7493 22.5754 17.6044 22.5754 17.4245C22.5704 17.2445 22.4254 17.0996 22.2505 17.0996Z" fill="black"/>
<path d="M22.2505 20.0586H20.2213C20.0414 20.0586 19.8965 20.2035 19.8965 20.3835C19.8965 20.5634 20.0414 20.7083 20.2213 20.7083H22.2505C22.4304 20.7083 22.5754 20.5634 22.5754 20.3835C22.5704 20.2035 22.4254 20.0586 22.2505 20.0586Z" fill="black"/>
</svg>
