<svg width="22" height="20" viewBox="0 0 22 20" fill="none" xmlns="http://www.w3.org/2000/svg">
<path d="M10.3975 11.804V7.80297C10.3975 7.6438 10.4607 7.49115 10.5733 7.37859C10.6858 7.26604 10.8385 7.20281 10.9976 7.20281C11.1568 7.20281 11.3095 7.26604 11.422 7.37859C11.5346 7.49115 11.5978 7.6438 11.5978 7.80297V11.804C11.5978 11.9632 11.5346 12.1158 11.422 12.2284C11.3095 12.3409 11.1568 12.4042 10.9976 12.4042C10.8385 12.4042 10.6858 12.3409 10.5733 12.2284C10.4607 12.1158 10.3975 11.9632 10.3975 11.804ZM21.7005 18.5058C21.5109 18.8423 21.2347 19.1219 20.9004 19.3154C20.5662 19.5089 20.1862 19.6093 19.8 19.6061H2.19533C1.80949 19.6052 1.43068 19.5028 1.09688 19.3093C0.763078 19.1158 0.486027 18.8379 0.293508 18.5035C0.100989 18.1691 -0.000230844 17.79 3.95317e-07 17.4042C0.000231634 17.0183 0.101905 16.6394 0.294825 16.3052L9.09714 1.10121C9.28894 0.766595 9.56569 0.488554 9.8994 0.295191C10.2331 0.101828 10.612 0 10.9976 0C11.3833 0 11.7622 0.101828 12.0959 0.295191C12.4296 0.488554 12.7063 0.766595 12.8981 1.10121L21.7005 16.3052C21.8966 16.6387 22 17.0186 22 17.4055C22 17.7924 21.8966 18.1723 21.7005 18.5058ZM20.6602 16.9054L11.8679 1.70137C11.7786 1.54997 11.6514 1.42448 11.4987 1.3373C11.3461 1.25012 11.1734 1.20426 10.9976 1.20426C10.8219 1.20426 10.6492 1.25012 10.4965 1.3373C10.3439 1.42448 10.2167 1.54997 10.1274 1.70137L1.3351 16.9054C1.24756 17.057 1.20135 17.2289 1.20108 17.404C1.20081 17.5791 1.2465 17.7511 1.33358 17.903C1.42066 18.0549 1.54608 18.1813 1.6973 18.2695C1.84853 18.3577 2.02025 18.4047 2.19533 18.4058H19.8C19.975 18.4047 20.1468 18.3577 20.298 18.2695C20.4492 18.1813 20.5746 18.0549 20.6617 17.903C20.7488 17.7511 20.7945 17.5791 20.7942 17.404C20.7939 17.2289 20.7477 17.057 20.6602 16.9054ZM10.9976 14.4047C10.7998 14.4047 10.6064 14.4634 10.4419 14.5733C10.2774 14.6832 10.1492 14.8394 10.0735 15.0222C9.99781 15.205 9.978 15.4061 10.0166 15.6001C10.0552 15.7941 10.1505 15.9724 10.2903 16.1123C10.4302 16.2522 10.6085 16.3474 10.8025 16.386C10.9965 16.4246 11.1976 16.4048 11.3804 16.3291C11.5632 16.2534 11.7194 16.1252 11.8293 15.9607C11.9392 15.7962 11.9979 15.6028 11.9979 15.405C11.9979 15.1397 11.8925 14.8853 11.7049 14.6977C11.5173 14.5101 11.2629 14.4047 10.9976 14.4047Z" fill="black"/>
</svg>
