<svg width="24" height="24" viewBox="0 0 24 24" fill="none" xmlns="http://www.w3.org/2000/svg">
<path d="M12.8728 7.20117H11.9679C11.7129 7.20117 11.5029 7.41115 11.5029 7.66612C11.5029 7.9211 11.7129 8.13108 11.9679 8.13108H12.8728C13.1278 8.13108 13.3377 7.9211 13.3377 7.66612C13.3377 7.40615 13.1278 7.20117 12.8728 7.20117Z" fill="black"/>
<path d="M4.43822 7.20117H3.53331C3.27834 7.20117 3.06836 7.41115 3.06836 7.66612C3.06836 7.9211 3.27834 8.13108 3.53331 8.13108H4.43822C4.69319 8.13108 4.90317 7.9211 4.90317 7.66612C4.90317 7.40615 4.69319 7.20117 4.43822 7.20117Z" fill="black"/>
<path d="M13.1085 12.3652H5.74425C5.48927 12.3652 5.2793 12.5752 5.2793 12.8302C5.2793 13.0852 5.48927 13.2951 5.74425 13.2951H13.1085C13.3635 13.2951 13.5734 13.0852 13.5734 12.8302C13.5734 12.5752 13.3635 12.3652 13.1085 12.3652Z" fill="black"/>
<path d="M3.62488 12.5002C3.53989 12.4152 3.4199 12.3652 3.29491 12.3652C3.16993 12.3652 3.05494 12.4152 2.96995 12.5002C2.88496 12.5852 2.83496 12.7052 2.83496 12.8302C2.83496 12.9502 2.88496 13.0702 2.96995 13.1602C3.05494 13.2451 3.17493 13.2951 3.29991 13.2951C3.4249 13.2951 3.53989 13.2451 3.62988 13.1602C3.71487 13.0752 3.76486 12.9552 3.76486 12.8302C3.76486 12.7102 3.71487 12.5902 3.62488 12.5002Z" fill="black"/>
<path d="M13.1085 15.4375H5.74425C5.48927 15.4375 5.2793 15.6475 5.2793 15.9025C5.2793 16.1574 5.48927 16.3674 5.74425 16.3674H13.1085C13.3635 16.3674 13.5734 16.1574 13.5734 15.9025C13.5734 15.6425 13.3635 15.4375 13.1085 15.4375Z" fill="black"/>
<path d="M3.625 15.5725C3.54 15.4875 3.42002 15.4375 3.29503 15.4375C3.17004 15.4375 3.05505 15.4875 2.96506 15.5725C2.88007 15.6575 2.83008 15.7775 2.83008 15.9025C2.83008 16.0274 2.88007 16.1474 2.96506 16.2324C3.05006 16.3174 3.17004 16.3674 3.29503 16.3674C3.42002 16.3674 3.535 16.3174 3.625 16.2324C3.70999 16.1474 3.75998 16.0274 3.75998 15.9025C3.76498 15.7775 3.71499 15.6575 3.625 15.5725Z" fill="black"/>
<path d="M13.1085 18.502H5.74425C5.48927 18.502 5.2793 18.7119 5.2793 18.9669C5.2793 19.2219 5.48927 19.4319 5.74425 19.4319H13.1085C13.3635 19.4319 13.5734 19.2219 13.5734 18.9669C13.5734 18.7119 13.3635 18.502 13.1085 18.502Z" fill="black"/>
<path d="M3.62488 18.6419C3.53989 18.5519 3.4199 18.502 3.29991 18.502C3.17992 18.502 3.05994 18.5519 2.96995 18.6369C2.88496 18.7219 2.83496 18.8419 2.83496 18.9669C2.83496 19.0869 2.88496 19.2119 2.96995 19.2969C3.05494 19.3819 3.17493 19.4319 3.29991 19.4319C3.4249 19.4319 3.53989 19.3819 3.62988 19.2969C3.71487 19.2119 3.76486 19.0919 3.76486 18.9669C3.76486 18.8469 3.71487 18.7269 3.62488 18.6419Z" fill="black"/>
<path fill-rule="evenodd" clip-rule="evenodd" d="M9.55427 8.44109C9.45928 8.44109 9.36929 8.45109 9.2843 8.44109C9.18431 8.4261 9.07932 8.4111 8.98433 8.3761C8.81435 8.31611 8.69936 8.19112 8.64437 8.02114C8.57937 7.81616 8.56437 7.60618 8.59937 7.3962C8.63437 7.17623 8.75935 7.01124 8.95933 6.92125C9.2693 6.78127 9.58927 6.77627 9.89424 6.94625C10.1242 7.07624 10.2792 7.27622 10.3842 7.51619C10.5792 7.96114 10.5892 8.4111 10.4392 8.87105C10.2742 9.366 9.97423 9.77595 9.57427 10.1109C9.2993 10.3409 8.99433 10.5159 8.64936 10.6159C8.48938 10.6659 8.3244 10.6909 8.15442 10.7009C7.95444 10.7159 7.76446 10.6659 7.58448 10.5759C7.3095 10.4359 7.07953 10.2459 6.89455 9.99593C6.86955 9.96094 6.84955 9.92594 6.82955 9.89094C6.78456 9.81595 6.76456 9.73596 6.76456 9.64097C6.76956 9.01603 6.76456 8.3861 6.76456 7.76117C6.76456 7.74617 6.76456 7.73117 6.76456 7.70617C6.74456 7.70617 6.72957 7.70617 6.71457 7.70617C6.53959 7.70617 6.3596 7.70617 6.18462 7.70617C6.16462 7.70617 6.14463 7.70117 6.12963 7.68617C5.94465 7.49619 5.75967 7.30621 5.57469 7.11123C5.56969 7.10623 5.56469 7.10123 5.55469 7.09124C5.95965 7.09124 6.3596 7.09124 6.75956 7.09124C6.75956 7.07624 6.75956 7.06124 6.75956 7.04624C6.75956 6.66128 6.75956 6.27632 6.75956 5.89136C6.75956 5.84636 6.75456 5.80137 6.74956 5.76137C6.73456 5.65638 6.67957 5.57639 6.58458 5.5264C6.4446 5.45141 6.29461 5.41641 6.13463 5.45641C6.09963 5.4664 6.06963 5.4814 6.03464 5.4964C5.99964 5.43641 5.95965 5.37141 5.92965 5.30142C5.88965 5.21643 5.85466 5.13144 5.82966 5.04645C5.79966 4.93646 5.83966 4.84147 5.93465 4.77648C6.08963 4.67149 6.26461 4.62149 6.4446 4.59649C6.77456 4.5465 7.08453 4.71648 7.23951 5.05145C7.3295 5.23643 7.3695 5.43641 7.3945 5.64139C7.4045 5.72138 7.4045 5.80137 7.4045 5.88136C7.4045 6.27132 7.4045 6.66128 7.4045 7.05124C7.4045 7.06624 7.4045 7.08124 7.4045 7.10123C7.41949 7.10123 7.42949 7.10623 7.44449 7.10623C7.50448 7.10623 7.56948 7.11123 7.63447 7.10623C7.72946 7.09623 7.79445 7.12623 7.85945 7.20122C8.00943 7.36621 8.17441 7.52619 8.3294 7.68617C8.3394 7.69617 8.3494 7.70617 8.36439 7.72617C8.04443 7.72617 7.72946 7.72617 7.40949 7.72617C7.40949 7.74617 7.40949 7.76617 7.40949 7.78116C7.40949 8.33611 7.40949 8.89105 7.40949 9.44599C7.40949 9.74596 7.58948 9.95094 7.88445 10.0009C8.12442 10.0409 8.3494 9.99093 8.55438 9.86595C8.97933 9.61597 9.2843 9.26101 9.46928 8.80606C9.49428 8.74106 9.51428 8.67107 9.52927 8.59608C9.54427 8.53109 9.54927 8.48609 9.55427 8.44109Z" fill="black"/>
<path d="M23.7375 3.23216C23.5825 3.14717 23.3776 3.15717 23.2276 3.25716L22.3127 3.8671L21.3978 3.25716C21.2328 3.14717 21.0128 3.14717 20.8478 3.25716L19.9329 3.8671L19.018 3.25216C18.858 3.14217 18.6331 3.14217 18.4681 3.25216L17.5532 3.8571L16.8582 3.38715V0.497448C16.8582 0.297469 16.7383 0.117488 16.5533 0.0374961C16.3733 -0.0374961 16.1533 0.00249974 16.0133 0.142485L15.5034 0.652432L14.6535 0.0824914C14.4885 -0.0274971 14.2685 -0.0274971 14.1035 0.0824914L13.1886 0.692428L12.2737 0.0824914C12.1087 -0.0274971 11.8888 -0.0274971 11.7238 0.0824914L10.8089 0.692428L9.89397 0.0824914C9.72899 -0.0274971 9.50901 -0.0274971 9.34403 0.0824914L8.42912 0.692428L7.51422 0.0824914C7.34923 -0.0274971 7.12926 -0.0274971 6.96427 0.0824914L6.04937 0.697427L5.13447 0.0874909C4.96948 -0.0224976 4.74951 -0.0224976 4.58452 0.0874909L3.66962 0.697427L2.75471 0.0874909C2.58973 -0.0224976 2.36975 -0.0224976 2.20477 0.0874909L1.35486 0.652432L0.844912 0.147485C0.704927 0.00749921 0.489949 -0.0374961 0.304968 0.0374961C0.119988 0.117488 0 0.297469 0 0.497448V21.5203C0 22.8901 1.10988 24 2.47974 24H19.138C21.8177 24 23.9975 21.8202 23.9975 19.1405V3.67212C23.9975 3.48714 23.8975 3.32215 23.7375 3.23216ZM15.8683 15.5559C14.8585 16.4808 14.2835 17.7806 14.2835 19.1405C14.2835 20.6653 14.9984 22.0902 16.2083 23.0101H2.47974C1.65983 23.0101 0.989897 22.3402 0.989897 21.5253V1.68732C1.15488 1.81231 1.38986 1.81731 1.56484 1.70232L2.47974 1.09239L3.39465 1.70232C3.55963 1.81231 3.77961 1.81231 3.94459 1.70232L4.85949 1.09239L5.7744 1.70232C5.93938 1.81231 6.15936 1.81231 6.32434 1.70232L7.23925 1.09239L8.15415 1.70232C8.31913 1.81231 8.53911 1.81231 8.70409 1.70232L9.619 1.09239L10.5339 1.70232C10.6989 1.81231 10.9189 1.81231 11.0838 1.70232L11.9988 1.09239L12.9137 1.70232C13.0786 1.81231 13.2986 1.81231 13.4636 1.70232L14.3785 1.09239L15.2934 1.70232C15.4684 1.81731 15.7034 1.80731 15.8683 1.68732V15.5559ZM16.8582 14.856V4.58202L17.2732 4.86199C17.4382 4.97198 17.6582 4.97198 17.8231 4.86699L18.738 4.26206L19.653 4.87699C19.8179 4.98698 20.0379 4.98698 20.2029 4.87699L21.1178 4.26706L22.0327 4.87699C22.1977 4.98698 22.4177 4.98698 22.5826 4.87699L23.0026 4.59702V16.2058C22.0827 14.9959 20.6578 14.281 19.133 14.281C18.3481 14.281 17.5632 14.481 16.8582 14.856ZM19.138 23.0101C17.0032 23.0101 15.2684 21.2753 15.2684 19.1405C15.2684 17.0107 17.0032 15.2709 19.138 15.2709C21.2728 15.2709 23.0076 17.0057 23.0076 19.1405C23.0076 21.2753 21.2728 23.0101 19.138 23.0101Z" fill="black"/>
<path d="M18.598 21.0566C18.313 21.0566 18.083 21.2866 18.083 21.5716C18.083 21.8566 18.313 22.0865 18.598 22.0865C18.8829 22.0865 19.1129 21.8566 19.1129 21.5716C19.1129 21.2866 18.8829 21.0566 18.598 21.0566ZM18.7129 21.5716C18.7129 21.6366 18.6579 21.6916 18.593 21.6916C18.528 21.6916 18.473 21.6366 18.473 21.5716C18.473 21.5066 18.528 21.4516 18.593 21.4516C18.6579 21.4516 18.7129 21.5016 18.7129 21.5716Z" fill="black"/>
<path d="M20.137 21.0566C19.852 21.0566 19.6221 21.2866 19.6221 21.5716C19.6221 21.8566 19.852 22.0865 20.137 22.0865C20.422 22.0865 20.652 21.8566 20.652 21.5716C20.652 21.2866 20.422 21.0566 20.137 21.0566ZM20.257 21.5716C20.257 21.6366 20.202 21.6916 20.137 21.6916C20.072 21.6916 20.017 21.6366 20.017 21.5716C20.017 21.5066 20.072 21.4516 20.137 21.4516C20.202 21.4516 20.257 21.5016 20.257 21.5716Z" fill="black"/>
<path d="M21.502 17.8961C21.442 17.8211 21.352 17.7761 21.252 17.7761H17.4874L17.4224 17.4611C17.4024 17.3611 17.3324 17.2711 17.2375 17.2311L16.6975 16.9962C16.6475 16.9762 16.5975 16.9762 16.5475 16.9912C16.4975 17.0112 16.4625 17.0462 16.4375 17.0961C16.3925 17.1961 16.4425 17.3111 16.5425 17.3561L17.0475 17.5761L17.6324 20.4208C17.6624 20.5708 17.7974 20.6758 17.9474 20.6758H20.8871C20.9971 20.6758 21.0871 20.5858 21.0871 20.4758C21.0871 20.3658 20.9971 20.2758 20.8871 20.2758H18.0074L17.9674 20.0758H20.9121C21.0621 20.0758 21.197 19.9658 21.227 19.8209L21.572 18.156C21.587 18.066 21.562 17.9711 21.502 17.8961ZM21.162 18.171L20.8521 19.6859H17.8874L17.5774 18.171H21.162Z" fill="black"/>
</svg>
