<svg id="Layer_1" data-name="Layer 1" xmlns="http://www.w3.org/2000/svg" width="920" height="102" viewBox="0 0 920 102"><defs><style>.cls-1{fill:#2e4149;}</style></defs><path class="cls-1" d="M37.451,73.261a38.088,38.088,0,0,0,1.4575-31.1152c-3.6057-8.9987-10.4464-16.289-18.5241-21.5023a61.5243,61.5243,0,0,0-15.8236-7.195,1.2625,1.2625,0,0,0-1.5377.873A33.6675,33.6675,0,0,0,7.1253,38.9323c4.1671,6.9534,10.8308,12.0065,17.8812,15.8a65.0246,65.0246,0,0,0,13.2563,5.3914,1.2511,1.2511,0,0,0,.6646-2.4107A61.106,61.106,0,0,1,18.0147,47.2585,33.7115,33.7115,0,0,1,5.5263,28.506a30.0172,30.0172,0,0,1-.0925-13.52l-1.5376.8731c17.8279,5.3039,34.786,19.6365,35.1907,39.5016a35.6508,35.6508,0,0,1-3.7946,16.6384c-.7165,1.4353,1.4393,2.703,2.1587,1.2618Z"/><path class="cls-1" d="M42.5253,55.5086c-3.2364-16.3293,4.3522-32.66,16.3651-43.53A61.9783,61.9783,0,0,1,71.5472,3.1938l-1.71-.4484A36.4941,36.4941,0,0,1,71.29,33.5683a31.9105,31.9105,0,0,1-7.3945,11.0763,36.1559,36.1559,0,0,1-9.5017,6.1416c-4.7437,2.2456-9.6852,4.06-14.51,6.12-1.4751.63-.2028,2.7839,1.2618,2.1587,8.1848-3.4941,17.3413-6.1619,24.0757-12.2441,7.5167-6.7889,11.4361-17.4945,11.3431-27.4892A39.34,39.34,0,0,0,71.9962,1.4838a1.2714,1.2714,0,0,0-1.71-.4484C54.6473,9.3029,41.9818,24.26,39.638,42.17a43.1305,43.1305,0,0,0,.4768,14.0028c.3125,1.5768,2.7226.9094,2.4107-.6646Z"/><path class="cls-1" d="M41.3986,58.2557c6.0278-6.29,11.3631-13.204,17.3909-19.4945,1.1132-1.1618-.652-2.9322-1.7678-1.7678-6.0278,6.2905-11.3631,13.204-17.3909,19.4945C38.5176,57.65,40.2828,59.42,41.3986,58.2557Z"/><path class="cls-1" d="M40.4789,57.0337,26.8975,41.7109c-1.0693-1.2065-2.8321.5669-1.7678,1.7677L38.7112,58.8015C39.7805,60.0079,41.5433,58.2345,40.4789,57.0337Z"/><path class="cls-1" d="M3.06,100.5357V85.985l-2.3828.7773V85.4811l2.6967-1.0284H4.683v16.083Z"/><path class="cls-1" d="M7.2753,87.5387c0-2.708,1.31-3.3594,3.09-3.3594s3.09.6514,3.09,3.3594v9.91c0,2.709-1.31,3.3594-3.09,3.3594s-3.09-.65-3.09-3.3594Zm4.5562-.5664a1.4716,1.4716,0,1,0-2.9327,0V98.0162a1.4716,1.4716,0,1,0,2.9327,0Z"/><path class="cls-1" d="M15.6542,87.5387c0-2.708,1.31-3.3594,3.09-3.3594s3.09.6514,3.09,3.3594v9.91c0,2.709-1.31,3.3594-3.09,3.3594s-3.09-.65-3.09-3.3594Zm4.5562-.5664a1.4716,1.4716,0,1,0-2.9327,0V98.0162a1.4716,1.4716,0,1,0,2.9327,0Z"/><path class="cls-1" d="M23.6147,87.4967c0-2.2881.4711-3.1494,2.4091-3.1494,1.8853,0,2.3565.8193,2.3565,3.1494v4.1787c0,2.33-.4712,3.1494-2.3565,3.1494-1.938,0-2.4091-.8613-2.4091-3.1494Zm3.3256-.5039c0-1.1758-.2094-1.5957-.9428-1.5957s-.9424.42-.9424,1.5957v5.1865c0,1.1758.21,1.5957.9424,1.5957s.9428-.42.9428-1.5957Zm.419,13.5429,5.3935-16.083h1.3355l-5.3941,16.083Zm5.6294-7.16c0-2.2881.4712-3.1494,2.4087-3.1494,1.8857,0,2.3569.8193,2.3569,3.1494v4.1787c0,2.33-.4712,3.1494-2.3569,3.1494-1.9375,0-2.4087-.8613-2.4087-3.1494Zm3.3252-.5039c0-1.1758-.21-1.5957-.9424-1.5957s-.9429.42-.9429,1.5957v5.1865c0,1.1758.2095,1.5957.9429,1.5957s.9424-.42.9424-1.5957Z"/><path class="cls-1" d="M43.96,100.5357l-2.461-16.083h1.6231L44.851,98.4781l1.7543-14.0258h1.623l-2.435,16.083Z"/><path class="cls-1" d="M49.5116,100.5357V84.4523h5.3418v1.3018H51.1353V91.78H54.67v1.3017H51.1353v6.1524h3.7182v1.3017Z"/><path class="cls-1" d="M61.2431,93.901H59.4887v-1.26h3.3774v4.8076c0,2.709-1.3091,3.3594-3.2207,3.3594s-3.2207-.65-3.2207-3.3594v-9.91c0-2.708,1.31-3.3594,3.2207-3.3594s3.2207.6514,3.2207,3.3594v2.5195h-1.623V86.9723a1.5975,1.5975,0,0,0-3.1949,0V98.0162a1.5975,1.5975,0,0,0,3.1949,0Z"/><path class="cls-1" d="M69.3861,100.5357,68.81,96.5465H65.956l-.5762,3.9892H63.7567l2.6968-16.1045h1.833L71.01,100.5357ZM67.37,86.7408l-1.2046,8.6084h2.4351Z"/><path class="cls-1" d="M77.2421,100.5357,73.7333,89.2823l.0523,11.2539H72.162V84.4523h1.5449l3.64,11.4219-.0526-11.4219h1.6236v16.083Z"/><path class="cls-1" d="M181.2475,95.109h1.6235v2.2881c0,2.709-1.3091,3.3593-3.09,3.3593s-3.0894-.65-3.0894-3.3593v-9.91c0-2.708,1.3091-3.3594,3.0894-3.3594s3.09.6514,3.09,3.3594v2.499h-1.6235V86.9207a1.4715,1.4715,0,1,0-2.9326,0V97.9646a1.4716,1.4716,0,1,0,2.9326,0Z"/><path class="cls-1" d="M189.5482,100.484l-2.3564-6.9922h-.9687v6.9922H184.6V84.401h2.54c2.54,0,3.5087.5244,3.5087,3.3593v2.4141c0,1.8477-.4711,2.877-1.9379,3.1709l2.4614,7.1387Zm-.5229-13.1856c0-1.1757-.4712-1.5957-1.4663-1.5957h-1.3354V92.19h1.3354c.9951,0,1.4663-.42,1.4663-1.5957Z"/><path class="cls-1" d="M196.9066,84.401H198.53V97.3971c0,2.709-1.3091,3.3593-3.09,3.3593s-3.0894-.65-3.0894-3.3593V84.401h1.6235V97.9644a1.4716,1.4716,0,1,0,2.9326,0Z"/><path class="cls-1" d="M200.5463,100.484V84.401h5.3418v1.3013H202.17v6.0254h3.5347V93.03H202.17v6.1528h3.7183v1.3018Z"/><path class="cls-1" d="M207.5375,100.484V84.401h1.6235V99.1823h2.6709v1.3018Z"/><path class="cls-1" d="M213.6653,100.484V85.7023H211.178V84.4006h6.5987v1.3017h-2.4878v14.7813Z"/><path class="cls-1" d="M221.0753,100.484V94.4791l-2.854-10.0781h1.6494l1.99,7.81,1.99-7.81H225.5l-2.854,10.0781v6.0049Z"/><path class="cls-1" d="M229.4545,100.484V84.401h5.3418v1.3013H231.078v6.0254h3.5347V93.03H231.078v7.4541Z"/><path class="cls-1" d="M241.29,100.484l-2.3569-6.9922h-.9682v6.9922h-1.6236V84.401h2.54c2.54,0,3.5087.5244,3.5087,3.3593v2.4141c0,1.8477-.4716,2.877-1.9375,3.1709l2.461,7.1387Zm-.5239-13.1856c0-1.1757-.4712-1.5957-1.4663-1.5957h-1.3349V92.19h1.3354c.9951,0,1.4663-.42,1.4663-1.5957Z"/><path class="cls-1" d="M244.1181,100.484V84.401H249.46v1.3013h-3.7183v6.0254h3.5352V93.03h-3.5352v6.1528H249.46v1.3018Z"/><path class="cls-1" d="M251.1093,100.484V84.401h5.3418v1.3013h-3.7183v6.0254h3.5352V93.03h-3.5352v6.1528h3.7183v1.3018Z"/><path class="cls-1" d="M220.7637,25.4834a22.1881,22.1881,0,0,1-6.6953-6.8158,21.3794,21.3794,0,0,1-2.09-4.322c-.3685-1.067-1.0117-2.9855-.0133-3.9045,1.2728-1.1715,3.1593.4935,4.0628,1.346A36.3317,36.3317,0,0,1,224.71,24.42l.8731-1.5377a9.6337,9.6337,0,0,0-7.2335,7.7525c-.2432,1.5739,2.1654,2.2522,2.4107.6646a7.214,7.214,0,0,1,5.4874-6.0064,1.2542,1.2542,0,0,0,.873-1.5376,39.6366,39.6366,0,0,0-4.8813-8.7095,40.2612,40.2612,0,0,0-3.2745-3.8694,13.29,13.29,0,0,0-3.84-3.0985c-2.8917-1.304-5.9622.31-6.1367,3.5507-.1566,2.908,1.5029,6.0628,3.0136,8.4448a25.1041,25.1041,0,0,0,7.5005,7.5682c1.351.8822,2.6052-1.2815,1.2618-2.1587Z"/><path class="cls-1" d="M223.3259,16.6858c-.4983-1.887-.9515-3.7878-1.3827-5.6911-.1967-.8683-.4036-1.74-.5406-2.62q-.0348-.2322.0057.0516-.0254-.2268-.0318-.4548a3.852,3.852,0,0,1,.0512-.8237c.0758-.4043.2285-.9007.6529-1.0514,1.2609-.448,2.2914,1.7571,2.7363,2.5648a23.9883,23.9883,0,0,1,1.91,4.5063,25.1648,25.1648,0,0,1,.9981,9.6966c-.1431,1.6021,2.3577,1.5924,2.5,0a27.1822,27.1822,0,0,0-.7525-9.1776,23.1885,23.1885,0,0,0-3.6572-8.1272,4.48,4.48,0,0,0-3.59-1.9952,3.302,3.302,0,0,0-2.9484,2.1216c-.7579,1.8075-.2409,3.7507.1657,5.5747.4543,2.0377.9394,4.0716,1.4725,6.09a1.2511,1.2511,0,0,0,2.4107-.6646Z"/><path class="cls-1" d="M226.7084,25.1734c4.7481-1.1333,10.25.8525,11.8884,5.7623a7.2785,7.2785,0,0,1-.7385,6.4386,6.6808,6.6808,0,0,1-5.2832,3.0236,1.2508,1.2508,0,0,0,0,2.5A9.435,9.435,0,0,0,241.48,34.51c.5495-4.93-2.74-9.4924-7.209-11.2721a13.7248,13.7248,0,0,0-8.2274-.4753c-1.5642.3733-.9019,2.7846.6646,2.4107Z"/><path class="cls-1" d="M231.0143,41.4451a43.7987,43.7987,0,0,0-4.8076,11.4209,1.2511,1.2511,0,0,0,2.4108.6646,41.3378,41.3378,0,0,1,4.5556-10.8237,1.2509,1.2509,0,0,0-2.1587-1.2618Z"/><path class="cls-1" d="M218.8026,29.0739c-6.1978-1.4079-13.2264-1.4025-18.73,2.1855-4.6474,3.03-7.9221,8.3723-7.19,14.04.7658,5.9314,5.3262,11.4979,10.68,14.006,5.03,2.3565,11.4011,1.982,15.421-2.169,4.0248-4.1562,3.7578-11.3729-1.0856-14.7767-1.3191-.927-2.57,1.24-1.2618,2.1586,3.451,2.4254,3.4364,7.7848.7038,10.7221-3.2334,3.4756-8.5831,3.81-12.6928,1.82-4.4234-2.1415-8.2585-6.5427-9.1977-11.4353-.8941-4.6576,1.6706-9.2521,5.4264-11.8956,5.0006-3.52,11.511-3.5521,17.2623-2.2457,1.5666.3558,2.2355-2.0539.6646-2.4107Z"/><path class="cls-1" d="M217.43,59.1923l7.1048-.08c1.8723-.0212,4.0059.21,5.7614-.5757a3.3586,3.3586,0,0,0,1.6061-4.7419,3.8824,3.8824,0,0,0-1.9606-1.57,4.0155,4.0155,0,0,0-3.16.1687,1.2577,1.2577,0,0,0-.4485,1.71,1.2825,1.2825,0,0,0,1.71.4484c.6846-.2946,1.939.1568,1.81,1.0393-.1369.9318-1.62.9606-2.3266.9842-3.3613.1121-6.7334.08-10.0964.1178a1.2508,1.2508,0,0,0,0,2.5Z"/><path class="cls-1" d="M191.1235,39.5033a6.3106,6.3106,0,0,0,2.7385,11.8516,1.25,1.25,0,0,0,0-2.5,4.0709,4.0709,0,0,1-2.1457-.8991,3.79,3.79,0,0,1-1.32-2.1437,1.5412,1.5412,0,0,1-.06-.4624,4.4224,4.4224,0,0,1,.0291-.7994c-.0233.1688.0192-.0724.0311-.1291.0229-.1091.0488-.2176.0787-.325.0358-.1291.0769-.2565.1216-.3828.0767-.2163-.0268.0286.08-.196a5.3639,5.3639,0,0,1,.3246-.5856,2.54,2.54,0,0,1,.3309-.4376,3.2862,3.2862,0,0,1,1.053-.8319c1.4091-.7772.1494-2.937-1.2618-2.1587Z"/><path class="cls-1" d="M229.9429,31.5579a1.2507,1.2507,0,1,0-1.2081-1.2081A1.2507,1.2507,0,0,0,229.9429,31.5579Z"/><path class="cls-1" d="M206.4978,6.5945C201.655,1.0159,193.351-.7669,186.4889,1.74c-7.2844,2.661-12.5391,9.1946-14.4159,16.6186C167.85,35.0648,178.89,51.775,191.431,61.8008a64.0559,64.0559,0,0,0,23.6526,11.9439,1.2511,1.2511,0,0,0,.6646-2.4107,61.0707,61.0707,0,0,1-34.7929-24.4574c-4.513-6.6619-7.6219-14.4481-7.2411-22.6063.3442-7.3756,3.82-14.6,10.23-18.54,6.5963-4.0544,15.5752-3.3707,20.7864,2.6323,1.0566,1.2171,2.8185-.5574,1.7678-1.7678Z"/><path class="cls-1" d="M226.8565,8.3623a16.1283,16.1283,0,0,1,18.4847-3.8478c6.7228,2.953,11.0151,9.533,12.2077,16.6307,2.6072,15.5185-8.2717,30.5369-19.9672,39.52a61.405,61.405,0,0,1-21.7432,10.669,1.2511,1.2511,0,0,0,.6646,2.4107A63.4494,63.4494,0,0,0,253.9772,46.31c4.547-7.3282,7.3042-15.9621,6.1584-24.6379-1.022-7.7372-5.34-15.037-12.3616-18.747-7.3729-3.8959-17.086-2.78-22.6853,3.67-1.05,1.21.7108,2.9854,1.7678,1.7678Z"/><path class="cls-1" d="M379.6166,1.3155C373.7531,12.2574,368.3129,23.42,362.49,34.3829c-2.8208,5.311-5.9509,10.7815-6.2284,16.9392A18.32,18.32,0,0,0,362.04,65.2272a27.4113,27.4113,0,0,0,30.1,4.7276,22.9644,22.9644,0,0,0,10.74-11.4239,23.3438,23.3438,0,0,0,.595-16.7092c-2.2462-6.9384-6.4352-13.2614-9.9778-19.5846L381.7753,1.3155a1.2509,1.2509,0,0,0-2.1586,1.2618l9.7678,17.435c3.0429,5.4313,6.253,10.8026,9.0739,16.3535,2.5944,5.1051,4.6115,10.8165,3.54,16.6106a21.1544,21.1544,0,0,1-7.4616,12.52c-8.08,6.5046-20.79,5.6714-28.8545-.42a16.5939,16.5939,0,0,1-6.9088-12.0036c-.3416-5.8357,2.5384-11.1854,5.2051-16.17,6.08-11.3647,11.7092-22.9647,17.7971-34.3254.76-1.4178-1.3976-2.6819-2.1586-1.2618Z"/><path class="cls-1" d="M392.2214,39.4793a16.1892,16.1892,0,0,1-.2732,13.1883,16.7439,16.7439,0,0,1-8.5782,7.9942c-1.4764.6258-.2037,2.78,1.2619,2.1587a18.6553,18.6553,0,0,0,10-24.0058c-.5988-1.47-3.0182-.8273-2.4107.6646Z"/><path class="cls-1" d="M325.1308,99.9166l.1049-16.083,2.4878.0166c2.54.0166,3.5577.5478,3.5391,3.3828l-.0161,2.4775c-.0186,2.834-1.0435,3.3516-3.583,3.335l-.8643-.0049-.0449,6.8867ZM329.642,86.76c.0078-1.1757-.4609-1.5986-1.4561-1.6054l-1.3354-.0088-.043,6.5928,1.3356.0088c.995.0058,1.4692-.4112,1.4769-1.586Z"/><path class="cls-1" d="M336.81,83.91l1.623.0107-.0849,12.9961c-.0176,2.708-1.3311,3.3506-3.1119,3.3389s-3.0849-.6709-3.0673-3.38l.0849-12.9961,1.6236.0107-.0889,13.5635a1.4715,1.4715,0,1,0,2.9326.0186Z"/><path class="cls-1" d="M344.69,100.0445l-2.31-7.0078-.9688-.0058-.0457,6.9914-1.6235-.01.105-16.083,2.54.0166c2.54.0166,3.5049.5478,3.4863,3.3828l-.0156,2.4141c-.0122,1.8476-.49,2.873-1.959,3.1572l2.4151,7.1553Zm-.4375-13.1884c.0079-1.1758-.4609-1.5987-1.4555-1.6055l-1.3355-.0088-.042,6.4873,1.3355.0088c.9946.0068,1.4682-.41,1.4761-1.586Z"/><path class="cls-1" d="M346.9164,100.0592l.105-16.083,5.3418.0351-.0087,1.3018-3.7183-.0244-.039,6.0254,3.5351.0234-.0088,1.3018-3.5351-.0235-.04,6.1514,3.7183.0244-.0083,1.3018Z"/><path class="cls-1" d="M355.8979,100.1178l.1049-16.083,5.3418.0351-.0088,1.3018-3.7182-.0244-.0391,6.0254,3.5352.0234-.0088,1.3017-3.5352-.0234-.04,6.1524,3.7183.0244-.0083,1.3017Z"/><path class="cls-1" d="M366.6117,95.5055c.0147-2.2051-4.5342-3.39-4.5136-6.5381l.0136-2.0576c.0181-2.793,1.9322-3.0948,3.11-3.0879s3.0869.3359,3.0683,3.17l-.0175,2.73-1.6231-.0108.02-3.0859a1.4716,1.4716,0,1,0-2.9326-.02l-.0141,2.1836c-.0186,2.8554,4.5332,3.4941,4.5131,6.4961l-.01,1.6171c-.0156,2.33-.6782,3.5645-3.1128,3.5489s-3.0816-1.3008-3.0664-3.59l.0137-2.0781,1.623.0107-.0186,2.8555a1.4716,1.4716,0,1,0,2.9327.0186Z"/><path class="cls-1" d="M373.7333,95.5514c.0147-2.2041-4.5342-3.3887-4.5137-6.5381l.0137-2.0576c.0181-2.792,1.9321-3.0948,3.11-3.087s3.0874.335,3.0688,3.17l-.0176,2.73-1.6235-.0108.02-3.0869a1.4715,1.4715,0,1,0-2.9326-.0186l-.0142,2.1836c-.0185,2.8545,4.5337,3.4932,4.5137,6.4961l-.01,1.6162c-.0157,2.3311-.6783,3.5655-3.1133,3.55s-3.0816-1.3018-3.0664-3.59l.0131-2.0791,1.6241.0107-.0191,2.8555a1.4716,1.4716,0,1,0,2.9326.0195Z"/><path class="cls-1" d="M376.5312,100.2523l.1049-16.083,5.3418.0352-.0088,1.3017-3.7182-.0244-.0391,6.0254,3.5352.0235-.0088,1.3017-3.5352-.0234-.04,6.1523,3.7183.0244-.0083,1.3018Z"/><path class="cls-1" d="M388,100.3277l-3.4351-11.2763-.021,11.2539-1.6236-.0108.1051-16.083,1.5448.0108,3.565,11.4443.0224-11.4209,1.6236.01-.105,16.083Z"/><path class="cls-1" d="M392.7919,100.359l.0967-14.7813-2.4873-.0154.0088-1.3018,6.5986.043L397,85.6053l-2.4883-.0166-.0957,14.7812Z"/><path class="cls-1" d="M397.5312,100.39l.1054-16.083,1.6231.0108-.1045,16.082Z"/><path class="cls-1" d="M405.36,100.441l-.55-3.9932-2.8545-.0185-.6016,3.9853-1.6229-.0107L402.533,84.318l1.833.0127,2.6183,16.1216Zm-1.9258-13.8076-1.2608,8.6006,2.4346.0156Z"/><path class="cls-1" d="M407.5341,100.4557l.1055-16.083,1.623.0107-.0967,14.78,2.6709.0175-.0078,1.3018Z"/><path class="cls-1" d="M414.7153,87.5055c.0176-2.708,1.3311-3.3506,3.1114-3.3389s3.0849.6709,3.0673,3.3789l-.0644,9.91c-.0176,2.708-1.3311,3.35-3.1123,3.3388-1.7793-.0117-3.084-.6709-3.0664-3.3789Zm4.5586-.5371a1.4716,1.4716,0,1,0-2.9326-.02l-.0723,11.044a1.4716,1.4716,0,1,0,2.9327.0195Z"/><path class="cls-1" d="M422.1718,100.5514l.1045-16.083,1.624.0107-.1055,16.082Z"/><path class="cls-1" d="M425.2353,100.5709l.1045-16.082,1.624.01L426.8671,99.28l2.6709.0176-.0088,1.3017Z"/><path class="cls-1" d="M434.4823,95.9488c.0147-2.2041-4.5341-3.3886-4.5136-6.5381l.0136-2.0576c.0186-2.792,1.9326-3.0947,3.11-3.0869s3.0879.335,3.0693,3.17l-.0176,2.73-1.624-.0107.0205-3.0869a1.4715,1.4715,0,1,0-2.9326-.0186l-.0146,2.1836c-.0185,2.8545,4.5341,3.4932,4.5137,6.4961l-.01,1.6162c-.0156,2.3311-.6787,3.5654-3.1133,3.55s-3.082-1.3017-3.0664-3.59l.0127-2.0791,1.624.0107-.0186,2.8555a1.4716,1.4716,0,1,0,2.9327.02Z"/><path class="cls-1" d="M659.6484,44.8923a57.8141,57.8141,0,0,1,14.0761-.1419,44.645,44.645,0,0,1,15.88,5.5359,1.2509,1.2509,0,0,0,1.2618-2.1587,47.0464,47.0464,0,0,0-16.458-5.7862,58.9863,58.9863,0,0,0-14.76.0509c-1.5814.176-1.5993,2.678,0,2.5Z"/><path class="cls-1" d="M690.2353,50.4571a44.5131,44.5131,0,0,1,12.941,1.619A20.5471,20.5471,0,0,1,708.8088,54.7c1.6494,1.1619,2.8332,3.5769.4745,4.6985-2.115,1.0057-4.7359-.0744-6.8825-.4772a48.9969,48.9969,0,0,0-20.973.5941c-1.562.3815-.9,2.7929.6647,2.4107a47.2119,47.2119,0,0,1,13.0463-1.3279,45.3194,45.3194,0,0,1,6.8258.7778c2.078.4006,4.1844,1.092,6.3235.8506,3.3809-.3815,5.91-3.4036,4.4032-6.7616-1.493-3.3272-5.9877-4.9475-9.2354-5.9175a48.03,48.03,0,0,0-13.2206-1.59,1.2508,1.2508,0,0,0,0,2.5Z"/><path class="cls-1" d="M693.7084,71.5106a140.89,140.89,0,0,0,24.37-14.5723q2.7644-2.0507,5.4416-4.2158a52.29,52.29,0,0,0,5.2951-4.5015c1.302-1.3815,1.9609-3.4619.3476-4.9-1.6219-1.4458-3.8-.76-5.5.1144-4.8957,2.5194-9.2856,5.8977-14.149,8.477-1.4218.7541-.16,2.9128,1.2618,2.1586,3.6561-1.939,7.0429-4.3113,10.5766-6.4548.9142-.5545,1.8388-1.0918,2.7791-1.601a5.5115,5.5115,0,0,1,2.7162-1.0444c1.3415.1028.4832,1.2132-.0841,1.7622-.7759.7507-1.6421,1.43-2.468,2.1245a149.0779,149.0779,0,0,1-19.621,14.0291,137.0122,137.0122,0,0,1-12.2279,6.4654c-1.4569.6794-.1888,2.8352,1.2618,2.1587Z"/><path class="cls-1" d="M705.9821,52.2141c1.8873-1.2213,3.8658-2.2846,5.79-3.4445,1.9073-1.15,3.7292-2.4315,5.6734-3.5215a22.03,22.03,0,0,1,5.813-2.3858,12.2261,12.2261,0,0,1,3.0928-.3139c.4327.0124.9966.2124,1.4087.1778q.4424.3419.3837-.3464-.3018.18-.6049.3581a1.2509,1.2509,0,0,0,1.2617,2.1586c.9275-.5466,1.9432-1.172,1.7907-2.4085a2.8706,2.8706,0,0,0-2.1666-2.1725c-2.5124-.76-5.59-.0946-7.9826.7808a38.1539,38.1539,0,0,0-7.4916,3.9649c-2.6981,1.7423-5.5348,3.25-8.23,4.9943-1.3461.8711-.0942,3.0362,1.2617,2.1587Z"/><path class="cls-1" d="M713.9062,42.1415a7.9882,7.9882,0,0,1,1.1471-.2971c.0486-.0086.0975-.0159.146-.0241.2036-.0342-.28.0309-.127.017.098-.0089.1955-.0206.2937-.0269a4.5741,4.5741,0,0,1,.6106,0c.0474.0033.0952.0107.1427.0127.1342.0057-.3528-.0609-.1351-.0181.0921.0181.1841.0341.2751.0574s.177.0544.2659.0816c.2035.0622-.231-.1122-.1192-.0533.0407.0214.0837.0386.1246.06a2.4039,2.4039,0,0,1,.2386.1412c.1081.0729.1411.1676-.0732-.061.032.0341.0726.0623.1069.0943.0716.067.1331.1417.2.2127.0989.1047-.1749-.2555-.0669-.0842.0337.0532.0692.1049.102.1586a1.25,1.25,0,1,0,2.1587-1.2618h0a3.7381,3.7381,0,0,0-1.3075-1.3055,4.36,4.36,0,0,0-1.7419-.5186,6.9615,6.9615,0,0,0-2.906.4047,1.25,1.25,0,0,0,.6646,2.4107Z"/><path class="cls-1" d="M655.4912,56.2907A93.2058,93.2058,0,0,0,673.23,66.955a95.5118,95.5118,0,0,0,9.4483,3.7393c3.3246,1.1121,6.8913,2.1788,10.3538,1.0325,1.52-.5033.8688-2.9184-.6646-2.4107-3.2856,1.0878-6.7347-.2372-9.8533-1.3141a89.79,89.79,0,0,1-9.2111-3.76,93.225,93.225,0,0,1-16.55-10.11c-1.2786-.9756-2.5253,1.1946-1.2617,2.1587Z"/><path class="cls-1" d="M702.5312,50.964l-1.0781-2.3653a25.2969,25.2969,0,0,0,13.8936-17.6836A22.829,22.829,0,0,0,710.68,10.898c-4.91-5.7089-12.7441-8.7553-20.9512-8.1377-8.084.6045-14.9707,4.5323-18.8945,10.7774a24.7482,24.7482,0,0,0,2.2471,28.7432L671.1123,43.98a27.4041,27.4041,0,0,1-2.48-31.8257C673,5.2032,680.6187.8344,689.5347.1676c9.0244-.6758,17.6689,2.7031,23.1152,9.0351a25.4,25.4,0,0,1,5.2354,22.2705A27.9064,27.9064,0,0,1,702.5312,50.964Z"/><path class="cls-1" d="M701.3536,47.8239a5.0924,5.0924,0,0,1-2.2105-8.4776c2.36-2.32,6.1994-2.2022,8.0521-5.2355,2.0779-3.4018-.2567-7.109.0616-10.6944.31-3.4961,3.8076-5.9259,7.1624-5.5864,1.5993.1619,1.588-2.3393,0-2.5a9.0294,9.0294,0,0,0-7.9257,3.5677c-2.2143,2.8778-1.7719,6.0428-1.1755,9.3923.2842,1.5959.5907,3.4817-.4886,4.858-.939,1.1973-2.5695,1.7139-3.9168,2.288-2.9949,1.2763-5.35,3.3452-5.7435,6.7531a7.6654,7.6654,0,0,0,5.52,8.0455c1.5407.4758,2.2-1.9367.6646-2.4107Z"/><path class="cls-1" d="M680.7273,5.6851c2.4256-.13,4.4631,1.171,6.4271,2.4379q3.1326,2.021,6.2559,4.0559c.8481.55,4.58,2.4844,3.01,3.8477-1.2213,1.06-3.5219.9135-4.9987,1.4379a12.1837,12.1837,0,0,0-7.53,7.7131c-.4973,1.5522-.9082,5.1534-3.2075,5.1133-1.5188-.0265-2.1691-2.9356-2.9549-3.9458A7.3462,7.3462,0,0,0,666.4,26.156c-1.0363,1.2191.7239,2.9959,1.7679,1.7677a4.8663,4.8663,0,0,1,6.1774-1.2643c1.9375,1.1088,2.1251,3.2508,3.5048,4.8087a3.9054,3.9054,0,0,0,5.1854.561c2.0212-1.332,2.5027-3.5971,3.1419-5.7733A9.5825,9.5825,0,0,1,689.8,21.0879c1.8383-1.31,3.8263-1.4909,5.9284-2.0722,1.6687-.4616,3.2973-1.4276,3.53-3.2957.263-2.1075-1.443-3.62-3.0282-4.6873-2.5736-1.733-5.2068-3.3864-7.8141-5.0683-2.3332-1.5051-4.8178-2.9331-7.6888-2.7793-1.6.0857-1.61,2.5862,0,2.5Z"/><path class="cls-1" d="M667.652,34.81a12.1565,12.1565,0,0,1,11.29,3.1465c3.3522,3.2938,3.2629,9.2307,8.1546,10.9994,1.5155.548,2.1685-1.867.6646-2.4107-2.4655-.8915-3.211-3.9665-4.1538-6.1053a13.6709,13.6709,0,0,0-4.1753-5.3536,14.67,14.67,0,0,0-12.4446-2.687,1.2511,1.2511,0,0,0,.6647,2.4107Z"/><path class="cls-1" d="M639.5453,99.9293l-3.5087-11.2539.0527,11.2539h-1.624V83.8463H636.01l3.64,11.4219-.0517-11.4219h1.623v16.083Z"/><path class="cls-1" d="M647.2694,99.9293l-.5761-3.9893H643.84l-.5762,3.9893h-1.6231l2.6963-16.1045h1.833l2.7237,16.1045Zm-2.0156-13.7949-1.2051,8.6084h2.4356Z"/><path class="cls-1" d="M650.0712,99.9293V85.148h-2.4873V83.8463h6.5986V85.148h-2.4872V99.9293Z"/><path class="cls-1" d="M659.1835,83.8463h1.623v12.996c0,2.709-1.3085,3.3594-3.0888,3.3594s-3.09-.65-3.09-3.3594V83.8463h1.6231V97.41a1.4715,1.4715,0,1,0,2.9326,0Z"/><path class="cls-1" d="M667.0136,99.9293l-2.3574-6.9922h-.9688v6.9922h-1.623V83.8463h2.54c2.54,0,3.5088.5244,3.5088,3.3594V89.62c0,1.8477-.4717,2.877-1.9375,3.1709l2.4608,7.1387Zm-.5244-13.1856c0-1.1757-.4707-1.5957-1.4659-1.5957h-1.3359v6.4873h1.3359c.9952,0,1.4659-.42,1.4659-1.5957Z"/><path class="cls-1" d="M673.8476,99.9293l-.5761-3.9893H670.417l-.5752,3.9893h-1.624l2.6972-16.1045h1.8331l2.7226,16.1045ZM671.831,86.1344l-1.2041,8.6084h2.4346Z"/><path class="cls-1" d="M675.8632,99.9293V83.8463h1.624V98.6275h2.6709v1.3018Z"/><path class="cls-1" d="M682.7245,99.9293V83.8463h1.6231v16.083Z"/><path class="cls-1" d="M690.7108,99.9293l-3.5087-11.2539.0527,11.2539h-1.6241V83.8463h1.5446l3.64,11.4219-.0517-11.4219h1.623v16.083Z"/><path class="cls-1" d="M698.41,93.2945h-1.7548v-1.26h3.378v4.8078c0,2.709-1.31,3.3594-3.2207,3.3594s-3.2207-.65-3.2207-3.3594v-9.91c0-2.708,1.31-3.3594,3.2207-3.3594s3.2207.6514,3.2207,3.3594v2.52H698.41v-3.086a1.5977,1.5977,0,0,0-3.1953,0V97.41a1.5977,1.5977,0,0,0,3.1953,0Z"/><path class="cls-1" d="M706.0819,99.9293l-2.3574-6.9922h-.9687v6.9922h-1.6231V83.8463h2.54c2.54,0,3.5087.5244,3.5087,3.3594V89.62c0,1.8477-.4716,2.877-1.9374,3.1709l2.4609,7.1387Zm-.5244-13.1856c0-1.1757-.4707-1.5957-1.4658-1.5957h-1.3359v6.4873h1.3359c.9951,0,1.4658-.42,1.4658-1.5957Z"/><path class="cls-1" d="M708.15,99.9293V83.8463h5.3418V85.148h-3.7188v6.0254h3.5352v1.3018h-3.5352v6.1523h3.7188v1.3018Z"/><path class="cls-1" d="M714.3827,99.9293V83.8463H716.87c2.54,0,3.5616.5244,3.5616,3.3594V96.57c0,2.834-1.0215,3.3594-3.5616,3.3594Zm4.4248-13.1856c0-1.1757-.4707-1.5957-1.4658-1.5957h-1.3358v13.48h1.3358c.9951,0,1.4658-.42,1.4658-1.5957Z"/><path class="cls-1" d="M721.6353,99.9293V83.8463h1.624v16.083Z"/><path class="cls-1" d="M724.5419,99.9293V83.8463h5.3418V85.148h-3.7178v6.0254h3.5353v1.3018h-3.5353v6.1523h3.7178v1.3018Z"/><path class="cls-1" d="M735.8544,99.9293l-3.5091-11.2539.0527,11.2539h-1.624V83.8463h1.5449l3.64,11.4219-.0518-11.4219H737.53v16.083Z"/><path class="cls-1" d="M740.4893,99.9293V85.148h-2.4874V83.8463h6.5986V85.148h-2.4883V99.9293Z"/><path class="cls-1" d="M749.3661,95.2467c0-2.2041-4.5565-3.3594-4.5565-6.5088V86.68c0-2.792,1.9121-3.1075,3.09-3.1075s3.09.3155,3.09,3.15v2.73h-1.6231v-3.086a1.4715,1.4715,0,1,0-2.9326,0V88.55c0,2.8555,4.5557,3.4639,4.5557,6.4668v1.6151c0,2.3311-.6543,3.5694-3.09,3.5694s-3.09-1.28-3.09-3.5694v-2.078h1.624V97.41a1.4715,1.4715,0,1,0,2.9326,0Z"/><path class="cls-1" d="M498.6816,72.7123l61.74.0763,17.4267.0215a1.2507,1.2507,0,0,0,0-2.5l-61.74-.0763-17.4265-.0215a1.2507,1.2507,0,0,0,0,2.5Z"/><path class="cls-1" d="M504.7031,70.157a10.1169,10.1169,0,0,1,12.4158-6.788,1.2511,1.2511,0,0,0,.6646-2.4107,12.82,12.82,0,0,0-9.9259,1.29,12.62,12.62,0,0,0-5.5652,7.2437,1.2511,1.2511,0,0,0,2.4107.6646Z"/><path class="cls-1" d="M519.3746,59.1467A17.4144,17.4144,0,0,1,532.5017,57.75a1.2511,1.2511,0,0,0,.6646-2.4107,20.0039,20.0039,0,0,0-15.0535,1.6483c-1.4138.7691-.1533,2.9285,1.2618,2.1587Z"/><path class="cls-1" d="M552.531,59.4653a12.7263,12.7263,0,0,1,10.0347.862c1.4139.7687,2.6773-1.3891,1.2618-2.1587a15.2534,15.2534,0,0,0-11.9611-1.114,1.2781,1.2781,0,0,0-.8731,1.5377A1.2628,1.2628,0,0,0,552.531,59.4653Z"/><path class="cls-1" d="M563.2672,63.6483a10.509,10.509,0,0,1,10.6764,5.9677,1.26,1.26,0,0,0,1.71.4484,1.2793,1.2793,0,0,0,.4484-1.71,12.8984,12.8984,0,0,0-12.835-7.2059,1.2878,1.2878,0,0,0-1.25,1.25,1.2579,1.2579,0,0,0,1.25,1.25Z"/><path class="cls-1" d="M541.0382,51.4378a70.1962,70.1962,0,0,0-2.9243-29.8189c-.4985-1.5222-2.9134-.87-2.4107.6646a68.4212,68.4212,0,0,1,2.835,29.1543C538.3544,53.0332,540.856,53.02,541.0382,51.4378Z"/><path class="cls-1" d="M541.0554,29.2129c-.9917-9.3837,4.3919-19.5752,13.86-22.2083l-1.5377-.873a17.3557,17.3557,0,0,1-1.4737,16.2155c-2.6559,4.094-6.2432,7.3629-11.3084,7.72-1.5958.1126-1.6082,2.6135,0,2.5,5.8611-.4136,10.1119-3.8971,13.2657-8.6514a19.7545,19.7545,0,0,0,1.9271-18.449,1.2826,1.2826,0,0,0-1.5376-.8731c-10.4654,2.91-16.8035,14.1363-15.6957,24.619.1675,1.5836,2.6692,1.6008,2.5,0Z"/><path class="cls-1" d="M537.91,21.1364C534.6482,9.2608,521.39.2755,509.21.9455a1.2835,1.2835,0,0,0-1.25,1.25,24.7157,24.7157,0,0,0,8.895,20.5083,25.5208,25.5208,0,0,0,22.3816,4.7472,1.2511,1.2511,0,0,0-.6646-2.4107,22.8928,22.8928,0,0,1-20.2467-4.35A22.3694,22.3694,0,0,1,510.46,2.195l-1.25,1.25c11.0873-.61,23.3081,7.5017,26.29,18.3555a1.2511,1.2511,0,0,0,2.4107-.6646Z"/><path class="cls-1" d="M536.1653,55.089A7.9292,7.9292,0,0,1,546.1768,56.85a1.25,1.25,0,0,0,1.7678-1.7678h0a10.4489,10.4489,0,0,0-13.041-2.1515,1.2509,1.2509,0,0,0,1.2617,2.1587Z"/><path class="cls-1" d="M513.4833,87.5035c-.0146-2.709,1.292-3.3662,3.0724-3.376s3.0927.6348,3.1074,3.3438l.0518,9.91c.0136,2.708-1.292,3.3663-3.0723,3.375s-3.0938-.6347-3.1075-3.3427Zm4.5527-.5908a1.4716,1.4716,0,1,0-2.9326.0156l.0576,11.044a1.4716,1.4716,0,1,0,2.9327-.0157Z"/><path class="cls-1" d="M526.6435,100.4312l-2.3925-6.9794-.9688.0048.0362,6.9922-1.6241.0088-.084-16.083,2.54-.0137c2.54-.0127,3.5117.5069,3.5265,3.3409l.0126,2.415c.01,1.8476-.4561,2.8789-1.9209,3.1807l2.498,7.1259Zm-.5927-13.1826c-.0059-1.1758-.48-1.5927-1.4746-1.5879l-1.3351.0069.0342,6.4873,1.335-.0069c.9952-.0048,1.4639-.4267,1.4581-1.6025Z"/><path class="cls-1" d="M534.1768,93.7574l-1.754.0088-.0069-1.26,3.378-.0175.0245,4.8086c.0145,2.708-1.2911,3.3662-3.2032,3.3759s-3.2236-.6338-3.2373-3.3427l-.0517-9.91c-.0147-2.708,1.291-3.3662,3.2021-3.376s3.2246.6338,3.2382,3.3428l.0137,2.52-1.624.0078-.0157-3.0859a1.5972,1.5972,0,0,0-3.1943.0166l.0576,11.044a1.5972,1.5972,0,1,0,3.1944-.0166h0Z"/><path class="cls-1" d="M542.3544,100.3492l-.5967-3.9863-2.8535.0156-.5557,3.9922-1.623.0078L539.3378,84.26l1.833-.0087,2.8076,16.09ZM540.2665,86.565,539.1074,95.18l2.4345-.0127Z"/><path class="cls-1" d="M550.2108,100.3082l-3.5673-11.2354.11,11.254-1.623.0078-.084-16.083,1.5449-.0079,3.6992,11.4034-.1123-11.4219,1.6241-.0088.0839,16.083Z"/><path class="cls-1" d="M553.9286,100.2887l-.0839-16.083,1.624-.0079.084,16.0831Z"/><path class="cls-1" d="M562.0439,94.8717l1.623-.0088.0117,2.289c.0148,2.7081-1.291,3.3663-3.0722,3.375s-3.0927-.6347-3.1074-3.3427l-.0517-9.91c-.0137-2.709,1.292-3.3662,3.0722-3.376s3.0938.6348,3.1074,3.3438l.0137,2.498-1.6241.0088-.0156-3.0654a1.4716,1.4716,0,1,0-2.9326.0156l.0576,11.044a1.4716,1.4716,0,1,0,2.9326-.0157Z"/><path class="cls-1" d="M803.9472,95.983c0-2.2041-4.5567-3.3594-4.5567-6.5088V87.4166c0-2.792,1.9121-3.1074,3.09-3.1074s3.09.3154,3.09,3.1494v2.73h-1.6229V87.1023a1.4715,1.4715,0,1,0-2.9327,0v2.1836c0,2.8555,4.5556,3.4639,4.5556,6.4668v1.6162c0,2.3311-.6542,3.5694-3.09,3.5694s-3.09-1.28-3.09-3.5694V95.2908h1.6241v2.8555a1.4715,1.4715,0,1,0,2.9326,0Z"/><path class="cls-1" d="M811.2265,84.5823h1.623V97.5784c0,2.709-1.3086,3.3594-3.09,3.3594-1.7793,0-3.089-.65-3.089-3.3594V84.5823h1.624V98.1458a1.4712,1.4712,0,1,0,2.9318,0Z"/><path class="cls-1" d="M818.48,95.983c0-2.2041-4.5567-3.3594-4.5567-6.5088V87.4166c0-2.792,1.9121-3.1074,3.09-3.1074s3.09.3154,3.09,3.1494v2.73h-1.623V87.1023a1.472,1.472,0,1,0-2.9336,0v2.1836c0,2.8555,4.5566,3.4639,4.5566,6.4668v1.6162c0,2.3311-.6543,3.5694-3.09,3.5694s-3.09-1.28-3.09-3.5694V95.2908h1.6231v2.8555a1.472,1.472,0,1,0,2.9336,0Z"/><path class="cls-1" d="M822.9053,100.6656V85.8844H820.418V84.5823h6.5973v1.3018H824.529v14.7812Z"/><path class="cls-1" d="M831.4677,100.6656l-.5762-3.9892H828.037l-.5761,3.9892h-1.623l2.6973-16.1045h1.833l2.7236,16.1045Zm-2.0166-13.7949-1.2041,8.6084h2.4345Z"/><path class="cls-1" d="M833.5624,100.6656V84.5823h1.6229v16.083Z"/><path class="cls-1" d="M841.6278,100.6656l-3.5087-11.2539.0526,11.2539h-1.624V84.5823h1.5449l3.64,11.4219L841.68,84.5823h1.624v16.083Z"/><path class="cls-1" d="M849.4315,100.6656l-.5761-3.9892h-2.8545l-.5752,3.9892h-1.624l2.6963-16.1045h1.8339l2.7227,16.1045Zm-2.0162-13.7949-1.2041,8.6084h2.4341Z"/><path class="cls-1" d="M851.5253,100.6656V84.5823h2.7236c2.54,0,3.3252.7764,3.3252,3.3174v2.0576a2.2024,2.2024,0,0,1-1.9111,2.4356,2.4715,2.4715,0,0,1,2.1728,2.582v2.331c0,2.792-1.02,3.3594-3.56,3.3594Zm4.4258-13.2275c0-1.1758-.4707-1.5537-1.4668-1.5537h-1.335v5.8994h1.335c.9961,0,1.4668-.42,1.4668-1.5957Zm.2617,7.2431c0-1.1757-.7324-1.5957-1.7285-1.5957h-1.335v6.2784h1.5967c.9961,0,1.4668-.42,1.4668-1.5957Z"/><path class="cls-1" d="M858.8837,100.6656V84.5823h1.624V99.3636h2.67v1.3017Z"/><path class="cls-1" d="M863.7284,100.6656V84.5823H869.07v1.3018h-3.7186V91.91h3.5351v1.3017h-3.5351v6.1524H869.07v1.3017Z"/><path class="cls-1" d="M872.5526,100.6656V84.5823H875.04c2.54,0,3.5616.5244,3.5616,3.3594v2.4775c0,2.834-1.0215,3.3594-3.5616,3.3594h-.8646v6.8867ZM876.9774,87.48c0-1.1758-.4716-1.5957-1.4658-1.5957h-1.3363v6.5927h1.3359c.9942,0,1.4658-.42,1.4658-1.5957Z"/><path class="cls-1" d="M883.7333,100.6656l-.5761-3.9892h-2.8545l-.5761,3.9892h-1.6232l2.6974-16.1045h1.833l2.7236,16.1045Zm-2.0166-13.7949-1.2041,8.6084h2.4346Z"/><path class="cls-1" d="M885.828,100.6656V84.5823h1.6231V99.3636h2.6719v1.3017Z"/><path class="cls-1" d="M898.4753,100.6656l.1045-13.123-2.8281,13.123h-1.0464l-2.5137-13.207.1045,13.207h-1.624V84.5823H893.16L895.386,96.13l2.2255-11.5479h2.4873v16.083Z"/><path class="cls-1" d="M903.8964,87.6685c0-2.708,1.3086-3.3593,3.0889-3.3593s3.09.6513,3.09,3.3593v9.91c0,2.709-1.31,3.3594-3.09,3.3594s-3.0889-.65-3.0889-3.3594Zm4.5547-.5664a1.4711,1.4711,0,1,0-2.9317,0v11.044a1.4711,1.4711,0,1,0,2.9317,0Z"/><path class="cls-1" d="M911.3583,100.6656V84.5823h1.6241v16.083Z"/><path class="cls-1" d="M914.3437,100.6656V84.5823h1.623V99.3636h2.6719v1.3017Z"/><path class="cls-1" d="M848.5,36.5029a1.2507,1.2507,0,1,0-1.2082-1.2081A1.2507,1.2507,0,0,0,848.5,36.5029Z"/><path class="cls-1" d="M867.7485,36.2882A1.2507,1.2507,0,1,0,866.54,35.08,1.2507,1.2507,0,0,0,867.7485,36.2882Z"/><path class="cls-1" d="M845.0038,30.856a8.3682,8.3682,0,0,1,.8111-.5007c.14-.0752.284-.1418.4263-.2127q.2028-.0894.029-.017.11-.045.2217-.0873a8.4346,8.4346,0,0,1,.91-.2851q.2315-.0583.4656-.1036c.0453-.0088.4245-.0709.3048-.0543s.2621-.0258.3081-.0294q.2377-.0189.4764-.0243a8.3686,8.3686,0,0,1,.9527.0322q.1187.0108.237.025-.2031-.0282.0215.0058c.1562.03.3125.0562.4677.0913a8.3793,8.3793,0,0,1,.9152.2662,1.2578,1.2578,0,0,0,1.5376-.8731,1.281,1.281,0,0,0-.873-1.5376,9.5975,9.5975,0,0,0-8.473,1.1459,1.25,1.25,0,1,0,1.2617,2.1587h0Z"/><path class="cls-1" d="M864.6918,30.18q.2021-.0892.0258-.0133.1093-.0439.22-.0846.2208-.0812.4462-.1489a8.1253,8.1253,0,0,1,.7991-.1963c.0474-.0091.52-.0772.2489-.0455q.1754-.0206.3514-.0342a8.3522,8.3522,0,0,1,.8823-.02q.2058.0063.4114.0224c.0484.0039.521.0655.2522.0228.2713.0431.5406.0956.8069.1637a8.0488,8.0488,0,0,1,.7857.2443q.11.0406.22.0846-.1766-.0762.0257.0131c.1416.0681.2827.1356.4221.2084a1.25,1.25,0,0,0,1.2618-2.1587h0a9.6035,9.6035,0,0,0-8.42-.2167,1.2543,1.2543,0,0,0-.4485,1.71,1.287,1.287,0,0,0,1.71.4484Z"/><path class="cls-1" d="M855.2374,45.5685l2.231-2.2054a1.2866,1.2866,0,0,0,.3661-.8839,1.2711,1.2711,0,0,0-.3661-.8838,1.2579,1.2579,0,0,0-.8839-.3662,1.3091,1.3091,0,0,0-.8838.3662l-2.231,2.2054a1.287,1.287,0,0,0-.3661.8839,1.2719,1.2719,0,0,0,.3661.8838,1.2574,1.2574,0,0,0,.8839.3662A1.308,1.308,0,0,0,855.2374,45.5685Z"/><path class="cls-1" d="M859.1259,43.74l2.4941,1.6614a1.25,1.25,0,0,0,1.8362-1.4116,1.3751,1.3751,0,0,0-.5744-.7471l-2.4941-1.6614a1.25,1.25,0,0,0-1.8363,1.4116A1.3753,1.3753,0,0,0,859.1259,43.74Z"/><path class="cls-1" d="M840.7028,39.394a9.1435,9.1435,0,0,1-1.402-6.8,10.4667,10.4667,0,0,1,1.5563-4.6575,10.7465,10.7465,0,0,1,7.7461-3.6257c3.1019-.0082,5.8278,1.89,8.9367,2.0179,5.7055.2341,11.899-4.21,16.9273.3286A8.1887,8.1887,0,0,1,876.87,34.753c-.71,2.7367-3.0474,4.7385-3.5259,7.5708-.2877,1.7031.2723,3.2338.53,4.89a9.3944,9.3944,0,0,1-.4731,4.34,21.4973,21.4973,0,0,1-5.2853,8.2075c-1.13,1.1475.6367,2.9165,1.7678,1.7678a25.4057,25.4057,0,0,0,5.3768-7.8572,14.7778,14.7778,0,0,0,1.1672-4.51c.1469-1.7436-.4189-3.306-.6294-5.0082-.4079-3.298,2.7979-5.8408,3.5287-8.9318a10.6442,10.6442,0,0,0-9.8778-13.17c-3.6025-.1824-6.9321,1.4492-10.4717,1.7448-3.6543.3051-6.7553-2.0023-10.3747-1.9854a13.5311,13.5311,0,0,0-8.6533,3.5463,10.26,10.26,0,0,0-3.0359,6.4184c-.4793,3.0344-.2542,6.3359,1.63,8.8807.9469,1.2789,3.1178.0335,2.1587-1.2617Z"/><path class="cls-1" d="M838.9324,41.1043c1.3935,1.6556-.1043,4.4619-.34,6.3018A8.999,8.999,0,0,0,839.894,53.08a31.4068,31.4068,0,0,0,3.5161,4.6045,42.5546,42.5546,0,0,0,4.5119,4.6689c2.9742,2.5511,6.6566,4.5132,10.6679,4.4849,4.0907-.0289,8.0647-2.3465,11.0117-5.0266,1.1928-1.0849-.5792-2.8487-1.7678-1.7678-2.7672,2.5166-6.6033,4.6758-10.4624,4.2337-3.7913-.4343-6.9725-2.8232-9.5673-5.4655-1.313-1.3371-2.5365-2.7641-3.7351-4.2037a13.161,13.161,0,0,1-2.8575-4.7343c-.5456-2.0007.3539-3.8263.6476-5.7827A5.7157,5.7157,0,0,0,840.7,39.3365C839.663,38.104,837.9023,39.88,838.9324,41.1043Z"/><path class="cls-1" d="M844.0693,52.0793a35.5062,35.5062,0,0,0,14.6455,4.4454,18.7549,18.7549,0,0,0,12.9239-4.4369c1.2386-1.0293-.5384-2.7894-1.7678-1.7678-7.2241,6.0036-16.9655,3.634-24.54-.3994-1.42-.7559-2.6839,1.4014-1.2618,2.1587Z"/><path class="cls-1" d="M886.652,36.0433q.2077-.0369-.0827.011.0829-.0051.166-.0028c.2394-.017-.2529-.0744-.0042-.0061.0931.0255.1863.0535.2791.0789q.1324.0486-.1055-.0469.0761.0357.1492.0768a1.3132,1.3132,0,0,0,.2142.1355q-.2085-.1673-.0528-.0376.0643.0561.1247.1165c.0459.0459.1595.1308.1721.19q-.16-.212-.0434-.0465l.0459.0721q.0447.0729.084.1486.0885.1845-.0207-.0661a1.6074,1.6074,0,0,0,.08.2455c.0142.0527.0435.3794.0438.1781,0-.216.0014.1441.0015.1818,0,.0876-.0078.1742-.0114.2615q-.0225.21.01-.0721-.0155.0865-.0353.172-.03.1287-.0706.2546c-.0179.0561-.0375.1117-.0584.1668q.0981-.2217.04-.0942a4.6492,4.6492,0,0,1-.2813.5046q-.05.0741-.1029.1456.1445-.1845.0567-.0788c-.0724.0744-.1373.1556-.2113.2287-.0633.0625-.131.12-.1965.18q-.1532.1249.0334-.0243-.0768.0555-.1562.107a5.6851,5.6851,0,0,1-.5379.2943q-.1263.057.0811-.0337-.0881.0345-.1776.0654-.1344.0465-.2716.0846c-.1222.0343-.2458.0634-.37.0882-.0738.0146-.3669.0793-.0448.016a4.7013,4.7013,0,0,1-1.336.0085,1.254,1.254,0,0,0-1.25,1.25,1.2841,1.2841,0,0,0,1.25,1.25,5.7652,5.7652,0,0,0,5.1378-1.9764,4.161,4.161,0,0,0-.0332-5.4079,3.4475,3.4475,0,0,0-3.18-1.03,1.2564,1.2564,0,0,0-.873,1.5377,1.2834,1.2834,0,0,0,1.5376.873Z"/><path class="cls-1" d="M885.8408,32.07a5.675,5.675,0,0,1,7.4805,2.907q.0373.0852.0721.1714a5.8271,5.8271,0,0,1-.1072,4.4035,6.7376,6.7376,0,0,1-3.4879,3.2226,10.8175,10.8175,0,0,1-6.6034.3387c-1.567-.3517-2.2362,2.058-.6646,2.4107,4.6254,1.0381,10.22.1333,12.7324-4.36a8.2063,8.2063,0,0,0-3.2911-11.129q-.0691-.0375-.1389-.0738a8.4787,8.4787,0,0,0-7.2538-.0494,1.26,1.26,0,0,0-.4484,1.71,1.2788,1.2788,0,0,0,1.71.4484Z"/><path class="cls-1" d="M833.7671,41.9523a60.8118,60.8118,0,0,1-1.65-7.76,16.3725,16.3725,0,0,1,1.1541-7.7107,49.0234,49.0234,0,0,1,3.5208-6.7369q2.196-3.7491,4.3931-7.4979h-2.1587l2.2716,4.4386a1.2539,1.2539,0,0,0,1.71.4484,29.0333,29.0333,0,0,0,8.9662-10.9467h-2.1589l3.368,6.1a1.28,1.28,0,0,0,1.71.4484A18.435,18.435,0,0,0,864.267,2.35l-1.8363.747a15.7234,15.7234,0,0,1,6.7688,11.12c.18,1.58,2.6821,1.5985,2.5,0A18.4275,18.4275,0,0,0,863.6925.9381a1.2649,1.2649,0,0,0-1.8362.747,15.9518,15.9518,0,0,1-8.2248,8.8918l1.71.4484-3.3679-6.1a1.2586,1.2586,0,0,0-2.1587,0,26.52,26.52,0,0,1-8.0693,10.05l1.71.4485-2.27-4.4384a1.26,1.26,0,0,0-2.1587,0c-2.89,4.9333-6.3289,9.851-8.3206,15.2388a17.9056,17.9056,0,0,0-1.0886,7.9685,64.4981,64.4981,0,0,0,1.7393,8.4242c.3672,1.5657,2.7784.9029,2.4107-.6646Z"/><path class="cls-1" d="M871.8032,15.4431l5.43-4.721-2.0893-.5516,5.0115,12.5769c.8047,2.0317,1.4082,4.1192,2.0659,6.2008a14.3936,14.3936,0,0,1,.9476,6.01A29.1668,29.1668,0,0,1,881.95,40.001a23.3972,23.3972,0,0,0-.8761,5.1818c-.2485,4.1856.3886,8.3842-.2023,12.5554l2.2848-.2986-1.9721-2.9043c-.5375-.7916-2.0981-.8523-2.2848.2986A17.4191,17.4191,0,0,1,873.03,65.358l2.0892.5516-.75-2.7882a1.2618,1.2618,0,0,0-2.4107,0,16.2344,16.2344,0,0,1-5.2463,6.9951L868.8464,71l-.2118-3.2806c-.0728-1.1266-1.7578-1.8414-2.3294-.6309-1.0957,2.3206-4.0255,2.623-6.1183,3.6333-2.0233.9768-3.7659,2.9129-3.5358,5.29.1536,1.587,2.6552,1.603,2.5,0-.2475-2.5566,2.7955-3.3352,4.663-4.04,1.8953-.715,3.7483-1.7128,4.65-3.6223l-2.3293-.6309L866.3466,71a1.2686,1.2686,0,0,0,2.1339.8839,18.57,18.57,0,0,0,5.8892-8.0983H871.959l.75,2.7882a1.2652,1.2652,0,0,0,2.0893.5516A19.5519,19.5519,0,0,0,881.31,55.4977l-2.2847.2986,1.9722,2.9043c.5286.7786,2.12.8622,2.2846-.2986.6038-4.2622.0712-8.4911.2678-12.7658.17-3.7,1.7629-7.0216,2.1191-10.6788a14.0068,14.0068,0,0,0-.7508-5.7871c-.7249-2.2137-1.3249-4.4668-2.1729-6.6389-1.7-4.3535-3.46-8.6844-5.19-13.0261a1.2707,1.2707,0,0,0-2.0892-.5516l-5.43,4.721c-1.2163,1.0576.5582,2.82,1.7678,1.7678Z"/><path class="cls-1" d="M831.4221,42.481l-.1138,7.9113c-.0305,2.123-.4663,4.64.4291,6.6431.7142,1.5975,2.2543,1.5421,3.2285.22a12.6334,12.6334,0,0,0,1.9084-4.1878h-2.4107c.961,4.9542,3.1969,10.2988,7.0925,13.6586a1.2645,1.2645,0,0,0,2.0892-.5516l.5938-2.4663-2.2846.2986c.7718,1.3172,1.5269,2.646,2.3161,3.9529.492.8148,1.2226,2.0834,2.3436,1.9406.8662-.11,1.1988-.89,1.287-1.6609a9.9337,9.9337,0,0,0,.0469-1.18,2.3024,2.3024,0,0,0-.0077-.4439c-.1292-.5935.42-.1869-.3022.3835l-.8839.3661c-1.1974.067-.6249-.445-.476-.1023.0437.1006.1862.204.2605.2929.1741.2087.33.4338.4846.6569.15.2159.2907.4377.4362.6565.1275.1918.2668.659.1559.1972l1.5376-1.5377a.892.892,0,0,1,.5887.3935l-1.9632,1.5148a15.5993,15.5993,0,0,0,2.96,2.4507c2.2984,1.2042,4.408,2.02,5.6592,4.45.7365,1.4309,2.8946.1677,2.1586-1.2618a10.8187,10.8187,0,0,0-5.3819-4.7739c-.5609-.2679-1.1214-.5345-1.6631-.84a3.15,3.15,0,0,1-.41-.2568c-.5379-.4858-1.0015-1.0538-1.5547-1.5358-.9929-.8649-2.8815.3187-1.9633,1.5148a1.6429,1.6429,0,0,0,.9054.7554,1.2642,1.2642,0,0,0,1.5377-1.5376,7.0144,7.0144,0,0,0-2.3284-3.2042,1.3772,1.3772,0,0,0-2.198.6444,3.6957,3.6957,0,0,0-.0533,1.1011,5.4647,5.4647,0,0,0-.0038.734c.1044.6817-.3873.2451.3746-.0842l.9632-.126c.4113.1727-.2621-.626-.3511-.7693-.2821-.4532-.5408-.9229-.8107-1.3835l-1.5055-2.5694a1.2644,1.2644,0,0,0-2.2848.2986l-.5938,2.4663,2.0892-.5516c-3.6012-3.1059-5.5623-7.982-6.45-12.5554a1.26,1.26,0,0,0-2.4107,0,11.9457,11.9457,0,0,1-1.2184,2.9138c-.0935.162-.3883.4676-.415.63q-.557.5055,1.2483.2162l-.1016-.227c-.0007-.2631-.1882-.5994-.2218-.871a9.0777,9.0777,0,0,1,.0035-1.212l.1635-11.373a1.2508,1.2508,0,0,0-2.5,0Z"/><path class="cls-1" d="M829.3786,33.7566a3.4313,3.4313,0,0,0-2.9494.7227A3.7191,3.7191,0,0,0,825.085,37.02a4.7178,4.7178,0,0,0,2.7092,4.6074,6.7,6.7,0,0,0,3.2511.6345,1.25,1.25,0,0,0,0-2.5,6.4,6.4,0,0,1-.6856.0047c-.0982-.0051-.1958-.0155-.2938-.0226q-.2154-.0249.04.0069-.0969-.0152-.1932-.0338a5.086,5.086,0,0,1-.6146-.1589,2.9868,2.9868,0,0,1-.32-.1171c.2875.1324-.0132-.0154-.0536-.0362a2.8924,2.8924,0,0,1-.5748-.3583c.2277.199-.006-.0158-.04-.0471-.0763-.07-.1489-.144-.2184-.2208q-.0452-.049-.0878-.1-.1289-.1587.0316.0419a2.66,2.66,0,0,0-.1475-.2229q-.0815-.1332-.15-.2731c-.1433-.2892.0412.1706-.031-.0687-.0337-.1116-.2127-.4983-.155-.5969l.0217.1585q-.009-.087-.013-.1744-.0058-.1308,0-.2618.0039-.0872.0132-.1739-.0411.2817-.0043.0735c.0241-.0845.04-.1709.066-.255q.0259-.0828.0575-.1634l-.0577.1429c-.021-.0325.15-.2608.17-.2953.1215-.2077-.1718.1648.0143-.0169.0612-.06.1169-.1246.18-.1825q.0629-.0577.13-.1111-.2119.162-.0461.0464c.0734-.0425.1455-.085.22-.1262.2171-.12-.2521.0785.05-.0151.0278-.0086.2807-.0586.2823-.0668q-.2735.0327-.1268.0231.0618-.0042.124-.0029.0832.0012.1657.01-.2907-.0426-.0844,0a1.25,1.25,0,1,0,.6646-2.4107Z"/><path class="cls-1" d="M831.2311,30.0482a8.2088,8.2088,0,0,0-11.0762,3.4764q-.0324.0621-.0638.1247a8.3575,8.3575,0,0,0-.3478,6.3323,9.08,9.08,0,0,0,4.4258,4.8358,13.4533,13.4533,0,0,0,8.5364.9318,1.261,1.261,0,0,0,.873-1.5377,1.2777,1.2777,0,0,0-1.5376-.873c-3.4844.6263-7.7193-.0752-9.5975-3.4313a5.6925,5.6925,0,0,1,2.3544-7.6983q.0894-.0474.18-.0917a5.8222,5.8222,0,0,1,4.9911.0891c1.4283.7346,2.6945-1.4218,1.2618-2.1586Z"/></svg>